<?xml version="1.0" standalone="no"?>
<!DOCTYPE svg PUBLIC "-//W3C//DTD SVG 1.1//EN" "http://www.w3.org/Graphics/SVG/1.1/DTD/svg11.dtd" >
<svg xmlns="http://www.w3.org/2000/svg">
<metadata>
This is a custom SVG webfont generated by Font Squirrel.
Copyright   :  J O E B O B graphics 2006   wwwjoebobnl
Designer    : J O E B O B graphics  JJW van der ham
Foundry     : J O E B O B graphics
Foundry URL : wwwmyfontscom  wwwjoebobnl
</metadata>
<defs>
<font id="joeHand2Regular" horiz-adv-x="505" >
<font-face units-per-em="1000" ascent="800" descent="-200" />
<missing-glyph horiz-adv-x="293" />
<glyph unicode=" "  horiz-adv-x="293" />
<glyph unicode="&#x09;" horiz-adv-x="293" />
<glyph unicode="&#xa0;" horiz-adv-x="293" />
<glyph unicode="!" horiz-adv-x="329" d="M246 798q0 -15 -7 -39q-10 -37 -10 -39q-11 -96 -12 -160q-2 -68 -9 -155q-6 -5 -6 -59q0 -33 -10 -49l-13 -4q-7 23 -10 80q0 7 -7.5 31t-7.5 31q0 4 5.5 16.5t5.5 14.5q0 8 -2 36.5t-2 36.5q0 75 10 169q0 4 5.5 26.5t5.5 29.5q0 4 -1.5 17.5t-1.5 17.5q0 28 21 28h19 q8 0 17.5 -10.5t9.5 -18.5zM207 -6q0 -2 -5.5 -10t-5.5 -11q-15 6 -37 13q-25 10 -25 24q11 17 32 17q8 0 24 -13q17 -12 17 -20z" />
<glyph unicode="&#x22;" horiz-adv-x="434" d="M335 814q0 -4 -9.5 -19t-9.5 -18q-9 -27 -27 -142q0 -6 -1.5 -20t-2.5 -21q-5 -32 -14 -32q-5 0 -14 8l-9 7q-5 10 -8 18q1 1 1 6q0 29 4 38l-5 -3q-3 2 -3 6t1 7t3 5.5t2 3.5l6 53q5 36 8 54q13 87 38 87q13 0 26.5 -13t13.5 -25zM215 762q0 -28 -11 -55q3 -5 3 -10 q0 -33 -10 -44q0 -3 5.5 -13t4.5 -14q-1 -8 -1 -17q0 -10 1 -14q-1 -3 -1 -10q0 -5 4 -23t4 -23v-39q-6 3 -17 3q-12 0 -21 -4q-8 28 -18 85q-10 56 -10 85q0 17 4 45q5 37 5 48q0 10 -2 20q1 6 7.5 16t9.5 9q0 4 9 4q15 0 24.5 -15t9.5 -34z" />
<glyph unicode="#" horiz-adv-x="645" d="M563 495q-3 0 -30 -8t-32 -8q3 -1 3 3l-2 6q-7 -1 -7 -24l-18 -12l-11 10q-6 -2 -13 -2q-3 0 -14 1t-15 1q-5 0 -5 -2q0 4 3 -6q-2 -2 -33 -2q-14 -28 -14 -35q0 -4 2.5 -22t2.5 -24q3 -3 33 -3q62 0 119 -9h-2q-35 0 -34 -4q0 5 1 0q1 -2 1 -6q-2 0 -5.5 -2t-8.5 -5.5 t-10 -5.5q-2 0 -11 2.5t-12 2.5q-9 0 -28 -13t-36 -13q-4 0 -7 -3v-5q0 -3 -1 -11t-1 -11q0 -13 12 -18v-87l-29 -33q-1 1 -10 3q-6 1 -8 5q0 4 -7 31q-6 20 -14 26l10 27q6 18 6 26q0 5 -6.5 10.5t-6.5 6.5v4q-1 3 -3 3q-50 0 -99 -25q-2 -26 -2 -35q0 -19 3 -32 q-2 -8 -12 -8q-7 0 -32 13q6 4 6 13q0 19 -20 37q-5 0 -5 -4q0 -2 3 -5q-6 2 -11 2q-4 0 -17 -1.5t-16 -1.5q-11 0 -55 44q11 14 46 21q44 11 52 17q0 1 3.5 10.5t3.5 14.5t-5 21t-5 20q-4 3 -12 3q-6 0 -29 -7.5t-31 -7.5q-6 0 -44 23q1 1 1 3l-1 3q-2 3 -3.5 7.5t-1.5 8.5 q0 9 8.5 19t17.5 10q4 0 6.5 -3t6.5 -3q19 0 85 25q0 4 1 14.5t2.5 29t3.5 37.5q4 49 3 80l1 2q2 2 4 6l6 7q8 9 15 9q35 0 35 -61q0 -41 -8 -57q3 -3 3 -12q0 -4 -1 -17t-1 -16h1q5 0 20 -2.5t19 -2.5t10.5 5.5t10.5 5.5q33 0 33 38q0 9 -1 16v16q0 36 14 66q9 0 31 -16 q23 -15 23 -23q0 -4 -3.5 -23.5t-3.5 -25.5q0 -32 22 -32q97 0 154 -6q2 -8 6 -14zM322 383q0 5 -3 23t-3 24q-45 -2 -61 -6q-38 -9 -38 -38l5 -5q-2 -4 -2 -9q0 -8 4 -23q-1 -6 6 -13q2 2 4 2q1 0 7 -1t8 -1q73 0 73 47z" />
<glyph unicode="$" horiz-adv-x="618" d="M378 770l7 -15h-8l-5 12zM524 170q0 -6 -5.5 -24t-5.5 -23q0 -11 6 -22q-8 -7 -34 -41q-24 -32 -26 -43q2 3 -3 4q-3 1 -8 1q-6 0 -16 -12q-10 -11 -17 -13l-10 5q-4 0 -17 -13t-16 -15l-43 -9q7 -11 13 -53q4 -35 16 -47v-22q-26 0 -49 44q-21 40 -22 68 q-6 8 -25.5 15.5t-31.5 7.5q-5 0 -3 -8q-2 -2 -4 -2q-4 0 -20 10t-21 10q-11 0 -11 -8q0 -3 3 -6q-22 20 -60 36l-20 7q-13 9 -34 30q-30 33 -31 34q-10 34 -10 60q0 43 30 92q16 25 59 79h18l-8 -10q-2 -3 -3 -2q-1 -2 -9 -15q-6 -9 -6 -14q0 -9 7 -19q-16 -18 -32 -48 q-5 -35 -13 -45v-37q7 -7 35 -44q21 -27 46 -27q9 0 16.5 -2.5t12 -5t5.5 -2.5q13 0 48 -5t48 -5q8 8 8 19l-5 20q-1 5 -2 8q-3 18 -3 71q0 6 1.5 27.5t1.5 27.5q0 20 -3 57q-2 50 -2 57v94q0 8 2 36.5t2 36.5q0 43 -22 71q-22 29 -49 98q-28 72 -28 103q0 21 18 46 q19 26 37 32l14 3q10 3 15 5q18 6 21 17q6 17 8 69t8 70q10 37 42 52q31 -21 31 -57q0 -2 -3.5 -3.5t-8 -4.5t-6.5 -7q-10 -17 -10 -81q0 -4 -3 -14t-3 -13q0 -29 17 -29q6 0 6 1l-1 1q0 3 5 3q15 0 46 -31l44 -43v-60q0 -6 -26 -46l-2 1q-2 2 -5.5 5t-6.5 6q-11 8 -16 8 q-12 0 -15 -5q0 8 9 26t9 25q0 16 -11.5 34.5t-25.5 26.5h-18q-13 -27 -13 -61q0 -5 1 -25t1 -26q0 -23 -7 -37q3 -84 3 -101t-3 -20l89 -129q52 -78 74 -137l2 -4q2 -5 8 -18l10 -24q16 -33 16 -42zM280 634v125q-5 0 -5 14q-9 3 -27 6q0 -1 -12 -18q-8 -14 -8 -19 q0 -17 10 -48q10 -36 12 -50q19 -13 18 -25q4 7 12 15zM470 177q0 10 -17 53q-17 45 -23 52l3 5q-3 1 -12 21q-7 19 -11 19q-2 0 -7 -8l-1 1q0 18 -29 61q-27 41 -47 53q2 -26 2 -33q0 -33 -13 -66v-253q1 -3 3.5 -9t3.5 -9.5t4 -8.5t5.5 -7.5t6.5 -4.5t9 -2q4 0 12.5 5 t11.5 5q10 0 35 14q23 14 33 26q9 9 20 41q11 31 11 45z" />
<glyph unicode="%" horiz-adv-x="671" d="M644 879q-6 -5 -12 -15l-5 9q-7 -7 -11 -16q-72 -54 -127 -159l-90 -186l1 -3q0 -4 -2 -14.5t-2 -12.5h-8q-6 0 -11 -3l15 -9q-38 -62 -38 -77q0 -11 11 -9q91 70 115 70q20 0 21 -10q10 -15 20 -40q-1 -4 -2.5 -8t-2.5 -6v-2q9 -6 14 -26.5t2 -32.5q11 -15 10 -26 q21 -13 21 -69q0 -1 -1.5 -10t-2.5 -16.5t0 -14.5q0 -1 -15 -13q9 -5 13 -19.5t6 -16.5q-5 -2 -13 -28q-2 -6 -4 -17t-4 -17q-10 -32 -67 -98l-38 20q-22 12 -30 29q-15 37 -15 67q0 44 32 158q32 110 30 118q-6 2 -9 2q-25 0 -96 -96q-71 -95 -71 -116q0 -2 -9.5 -8 t-11.5 -10q-9 -25 -17 -51q-20 -60 -41 -108q-19 -31 -42 -84q-29 19 -45 18v3q0 10 -6 20l314 740q9 16 27 45q33 58 50 102q-5 -3 -21 -9l-10 -9l-29 -6l4 -5q-2 -2 -4 -2q-15 0 -29 -7q-18 -8 -27 -10l-10 -9q-28 0 -37 -12q-10 -16 -15 -18q-30 -8 -45 -13 q-26 -9 -31 -32q-11 1 -21.5 -5t-10.5 -15q0 -16 21 -70q22 -53 22 -71q0 -47 -23 -105l-34 -53q-1 -1 -5 -3t-4 -3l-4 -3q-3 -3 -2.5 -5.5t0.5 -8.5q-8 -8 -26 -15l-10 9q-2 -1 -6 -1q-21 0 -36 36l-4 -8q-10 15 -21 44q-11 33 -11 46q0 6 5 12l1 1q0 4 2 19t3 26 q13 90 61 153q-13 18 -29 54q42 29 157 58q140 35 168 45q57 27 182 78q18 -17 26 -37zM206 534q0 11 -11 46q-13 42 -14 50q-21 -11 -41 -71q-19 -54 -19 -85q0 -63 26 -77q14 17 40 38q-5 2 -6 5q25 57 25 94zM510 197l-5 2q0 69 -6 106q-42 -69 -44 -151q-11 -14 -11 -38 q0 -8 5.5 -33t5.5 -33q21 20 33 60q12 41 14 43l-1 11q0 16 6 25h1q4 0 2 8z" />
<glyph unicode="&#x26;" horiz-adv-x="422" d="M333 548q-7 -12 -22 -27q-5 5 -21 5q-8 -32 -16 -109q-8 -1 -28 -9q-9 20 -9 38q0 15 8 23l-15 23q-50 -40 -66 -57q-37 -37 -45 -71q2 -2 15 -2q2 0 12 -2t13 -2q6 0 27 12q22 13 28 13q7 0 17 -14t10 -22q0 -11 -80 -102q-80 -89 -80 -114q0 -14 17 -33q18 -18 32 -18 q19 0 22 7l36 12q25 11 29 22q2 11 9 29q16 10 21 10q2 0 9.5 -4t11.5 -4q10 0 51 42q0 -3 5 -17.5t5 -18.5q0 -2 -23 -28q-24 -27 -25 -39q-9 -72 -9 -205q0 -6 2 -44t2 -44q0 -23 -5 -43q5 -8 5 -28q0 -53 -29 -71q-9 16 -5 36q-6 26 -4 71q-3 6 -3 15q0 11 4 31 q-17 26 -17 84q0 5 1.5 25t1.5 26q0 2 -1.5 11t-1.5 11q-2 32 -9 93q-2 0 -9 -13q-2 -3 -19 -3q-13 0 -17 -9q-8 9 -17 9q-3 0 -12.5 -4.5t-13.5 -4.5q-2 1 -5 2l-8 3q-3 2 -6 3t-4 2h-2v1q0 2 -4 3h-4v1q0 2 -4 2q-22 0 -41 30q-20 31 -20 52q0 42 39 90l66 78l-12 11 q-17 0 -41 25q-23 26 -23 44q0 19 54 74l71 72q25 19 55 48q7 8 7 49q0 36 9 82q10 58 29 72q1 -2 15 -21l12 -2q9 -7 9 -17q0 -2 -4 -10t-4 -9q-3 -11 -7 -35t-7 -35q-8 -45 -8 -70q22 -12 46 -31z" />
<glyph unicode="'" horiz-adv-x="306" d="M151 784q0 -4 -3 -11t-3 -9q-5 -36 -4 -84q1 -49 -1 -84q-9 -11 -28 -41q-7 5 -16 5l-9 133h-1q-5 0 -5 11q0 4 2.5 7t2.5 5l1 49q2 59 29 59l12 -3q23 -21 23 -37z" />
<glyph unicode="(" horiz-adv-x="460" d="M422 809q-47 -19 -52 -54q-20 -17 -42 -50q-3 -5 -15.5 -24.5t-18.5 -30.5l-35 -49q-13 -23 -27 -57q-1 -6 -11 -37q-9 -15 -28 -55q-26 -60 -52 -152q-14 -53 -16 -90v-32q-2 -21 -7 -30l43 -105q23 -54 72 -88q-1 -7 -15 -21q-29 19 -97 95q-2 15 -15 34q-7 10 -22 63 q-14 54 -14 66q0 7 5 27.5t5 25.5q-2 6 -2 13q0 43 19 80v5q0 19 26 76q1 1 43 111q77 180 183 298q29 32 34 32q20 0 26 -17q11 -31 13 -34z" />
<glyph unicode=")" horiz-adv-x="373" d="M310 288l5 -4q0 -25 -10 -78q-10 -63 -20 -69l1 -8q2 -36 -29 -83q-43 -68 -46 -78q-5 5 -19 5q-8 0 -14 -32q-21 -7 -42 -28q-1 13 -11 15q73 82 108 203q31 109 27 229l4 2q0 4 -6 16v5q-2 7 3 24q-16 58 -14 92q-11 22 -32 93q-16 59 -33 92q-4 7 -54 79 q-45 65 -45 68q0 16 16 32q10 -8 23 -11q19 -16 43 -48l65 -125q37 -77 44 -133q2 -12 14 -46q12 -37 14 -47v-5q-2 -15 8 -23q-4 -7 -4 -18q0 -58 4 -119z" />
<glyph unicode="*" horiz-adv-x="538" d="M473 584q-14 -6 -14 -29q-14 -11 -30 -11q-5 0 -5 -1q1 0 1 -1q0 -2 -5 -2q-2 0 -9 2t-10 2q-5 0 -28 -14q-22 -14 -28 -14q-3 0 -10 2.5t-9 2.5q-8 0 -25 -17l84 -106v-21q-11 -6 -40 -6q-5 0 -40 45l-40 54h-12l-37 -177q-2 0 -7.5 2t-8.5 2l-39 -14q4 12 4 38t3 38 q9 28 25 107l-7 8l-8 -9q-2 0 -48 -21q-39 -17 -44 -17t-19 11q-3 2 -9 7t-9 7v21q4 3 16 25l5 -10l137 55q-3 10 -14 23l5 4q-16 14 -43 47q-32 40 -32 49q0 8 8.5 15.5t17.5 7.5q5 0 42 -36q37 -37 42 -43q25 49 28 58q16 34 19 62q10 15 28 15q8 0 18 -18q12 -18 12 -26 q0 -16 -22 -64q-21 -49 -21 -70l2 -2q1 -1 1 -2l4 9q7 -4 34 -4q4 0 18.5 4.5t19.5 4.5q8 0 36 6q27 7 41 7q15 0 22 -6z" />
<glyph unicode="+" horiz-adv-x="601" d="M486 311v-28q-41 -9 -48 -22l-11 10q-17 -21 -46 -21q-1 0 -8 2.5t-8 2.5q-3 0 -17 -7.5t-19 -7.5q-8 0 -13 -9q0 -39 -1 -70q12 -36 12 -78q0 -5 -5.5 -24t-5.5 -24q-1 0 -8 -3t-12 -3q-20 0 -25.5 6t-5.5 27q0 53 -10 149q-3 3 -8 3q-23 0 -58 -18t-40 -18 q-13 0 -30 11q-26 15 -28 16v33q11 12 22 12q36 0 129 37q9 9 9 33q0 8 -3 36t-3 36q0 69 30 69q37 0 37 -66q0 -6 -1 -22t-1 -18q0 -48 22 -48q6 0 25 2.5t24 2.5q59 0 105 -1z" />
<glyph unicode="," horiz-adv-x="628" d="M295 75q0 -16 -50 -124q-48 -104 -64 -118q-5 -5 -21 -8q-7 -16 -24 -37q-19 -23 -23 -38q-17 3 -17 23q0 7 8 11l8 5q-1 26 26 72q32 53 35 68q2 5 5.5 19.5t5.5 21.5q4 12 36 100q5 15 13 35q8 14 27 14q12 0 23.5 -15.5t11.5 -28.5z" />
<glyph unicode="-" horiz-adv-x="612" d="M492 322q-4 -12 -9 -38q-6 2 -11 2q-21 0 -38 -20l-9 11q-51 -22 -103 -22l-9 -12q-25 0 -37 -4q-22 -7 -32 -9l4 -7q-2 -8 -89 -8v3l-9 64l2 2q3 2 6.5 3.5t7.5 1.5q6 0 36 8q30 9 36 9l14 -6l21 9q23 9 35 9q2 0 11 -3t11 -3q7 0 26 17l9 -12h8l9 12q14 -6 25 -6 q6 0 26.5 6t26.5 6q4 0 16.5 -6.5t15.5 -6.5z" />
<glyph unicode="." horiz-adv-x="261" d="M140 21q0 -17 -11.5 -28.5t-28.5 -11.5q-11 0 -22 20t-11 32q0 11 15 22t27 11q31 0 31 -45z" />
<glyph unicode="/" horiz-adv-x="521" d="M367 819q0 -13 -22 -57q-26 -52 -28 -58q-2 -5 -6 -19l-5 -21q-16 -13 -16 -40q0 -10 -12 -36q-14 -30 -17 -40q-11 -52 -21 -76q-9 -12 -25 -45q-9 -28 -23 -65q-15 -39 -18 -66q-5 -11 -17 -53l-46 -125q-27 -74 -25 -129v-10q-4 -11 -6 -33q-4 2 -24 -9q-4 7 -13 11 l-9 4q-1 1 -6 20q-4 15 -4 22q0 27 13 62q16 40 23 59v6q-2 24 18 69q20 46 21 69q13 23 22 53q13 43 18 55q22 50 85 251q13 43 50 133q44 105 53 105q10 0 25 -13.5t15 -23.5z" />
<glyph unicode="0" horiz-adv-x="406" d="M344 323q0 -14 -4 -42q-4 -35 -8 -38q-4 -69 -41 -148q-39 -82 -92 -123l-10 11q-1 -1 -6 -5t-9 -6l-12 11l-8 5l-12 -10q2 2 2 4q0 6 -16 6q-9 0 -32 32l-28 42q1 2 1 6q0 5 -5.5 19t-5.5 15l3 15q-1 1 -4 13q-2 10 -2 13q0 48 11 105q14 38 36 109q2 17 10 46l18 25 l23 31q12 17 32 59q6 9 23 16q21 8 30 8q8 0 35 -30q22 -22 32 -38q39 -68 39 -151zM294 333q0 7 -1.5 10.5t-5.5 2.5q2 12 2 20q0 58 -28 89q-41 -10 -47 -18q-42 -47 -68 -127q-11 -33 -32 -141q-5 -5 -8 -6q1 -10 5 -34l5 -37q11 -59 43 -59q20 0 55 50q32 44 39 71 q6 22 26 81q2 14 9 49q6 32 6 49z" />
<glyph unicode="1" horiz-adv-x="232" d="M177 440q-2 2 -4 2q-4 0 -8 -10q-30 -80 -30 -241q0 -2 -1 -9.5t-1 -9.5q0 -12 4 -20q-5 -7 -5 -19q0 -6 1.5 -24.5t1.5 -22.5q0 -24 -10 -31q5 -1 15 -9v-19q-9 -4 -17 -69q-17 5 -32 18l-14 88q0 5 -1.5 25t-2.5 35q0 1 -6 9t-6 13q0 4 3 14t3 13q2 18 2 85q0 52 9 84 l-3 -2q-4 1 -4 8q0 6 8 28q8 21 10 31q6 51 7 52q7 19 42 19q8 0 21 -16z" />
<glyph unicode="2" horiz-adv-x="443" d="M406 92q-64 -39 -76 -39q-5 0 -5 1l1 1q0 3 -5 3q-2 0 -10.5 -9.5t-12.5 -9.5q-16 0 -53 -21q-17 -11 -53 -31q-4 -3 -42 -12q-1 0 -13 -5q-5 0 -26 15l-13 9q-7 5 -10 7.5t-4 2.5l175 434l-4 16q-50 -29 -91 -74q-50 -55 -52 -103l13 -13q-10 -12 -20 -31l-39 21 q-24 14 -24 32q0 56 97 144q98 89 154 89q35 0 35 -39q0 -12 -16 -69q1 -4 15 -4l-156 -328q2 -2 3.5 -8.5t3.5 -12t5 -5.5q17 0 99 27q81 28 99 28q9 0 25 -16z" />
<glyph unicode="3" horiz-adv-x="429" d="M391 186q0 -36 -44 -112q-7 -12 -79 -76q-73 -65 -79 -65t-20 10q-14 8 -19 10q13 24 100 113q76 75 76 111q0 40 -35 40q-18 0 -63 -8q-38 -7 -62 -7q-7 0 -22 7q-8 4 -21 8v21q31 29 73 89q35 50 61 100q-3 3 -6 3q-12 0 -13.5 -1t-1.5 -10q0 -4 -5 -4q-3 0 -12 2.5 t-11 2.5q-18 0 -55 -51l-10 9q-26 -24 -39 -37q-22 -22 -25 -46q-10 7 -29 9q-10 2 -30 21q10 28 59 69q42 35 78 52q123 58 134 58q19 0 38.5 -10.5t19.5 -24.5q0 -21 -56 -103q-54 -78 -56 -99q5 5 17 5q5 0 19 -2.5t18 -2.5q2 0 8 3l6 2q24 0 55 -31t31 -55z" />
<glyph unicode="4" horiz-adv-x="443" d="M398 181q2 -6 2 -11q0 -4 -1.5 -16t-1.5 -15q0 10 -36 10l-11 -9q0 4 -22 13q-6 -8 -19 -22q-7 -32 -7 -40q0 -4 4 -21.5t3 -24.5q25 -21 25 -42q0 -10 -12.5 -18.5t-26.5 -11.5q-2 13 -38 14q-12 55 -12 79q0 2 2.5 12t2.5 13q0 16 -15 16q-8 0 -61 -28q-54 -27 -61 -27 q-17 0 -36 -10q-10 19 -43 24v15q0 12 85 136q96 141 101 152q4 11 15 37l33 75q16 37 28 77q1 5 11 10.5t16 5.5q12 0 30 -27t18 -40q0 -5 -16 -56q-10 -31 -32 -129q-1 -28 -6 -84h-1q-5 0 -5 -21q0 -27 10 -27q5 0 7 2l-5 5q2 -2 32 -2q3 0 20 -7t23 -7zM264 275v54 q-74 -105 -128 -208l12 9q3 0 4 2.5t5 2.5q2 0 6 -1t8 -2.5t5 -1.5q6 13 34 25q13 6 41 18q2 27 8 93q0 1 2.5 2.5t2.5 6.5z" />
<glyph unicode="5" horiz-adv-x="393" d="M443 550q-5 -9 -28 -7l-14 -13q-7 4 -35 4q-5 0 -7 -4t-3 -4q0 1 -2 1q-4 0 -4 -10q-2 0 -12 2t-12 2q-5 0 -24 -13t-20 -13q-5 0 -24 -11t-24 -11q-15 0 -110 -52q-2 -7 -6 -33q-5 -22 -5 -32q0 -6 4 -7l1 -1l14 -61l41 -107q24 -64 24 -110q0 -37 -29 -97 q-10 -11 -34 -46q-14 0 -60 23v41q9 17 9 28q13 -3 26 -10q0 -4 6 -7q24 12 24 72q0 12 -5 14v5q0 36 -23 87q1 2 1 7q0 11 -12 31q-3 6 -7.5 14t-6.5 12l-3 6q-27 80 -27 132q0 31 14 64q17 36 43 47q87 37 112 37q5 0 5 -1l-1 -1q0 -2 5 -2q4 0 4 9q0 4 5 4q4 0 4 -2 l-4 -5q2 -2 4 -2q3 0 13 9t14 9t4 -2v-1q0 -2 4 -2q2 0 7.5 2t9.5 2q15 12 27 18q4 0 16 -2t15 -2t11 4.5t12 4.5t21 4t22 4q7 0 20 -28z" />
<glyph unicode="6" horiz-adv-x="356" d="M327 719v-16q-56 -65 -96 -154q-57 -129 -73 -160q1 -2 16 -21q9 9 22 9q32 0 60 -55q24 -48 24 -84q0 -28 -14 -37l9 -4q0 -62 -37 -139q-43 -91 -97 -91q-3 0 -11 2.5t-10 2.5q-7 0 -8 -1l5 -4q-5 8 -19 16q-16 11 -21 15q-29 29 -26 117q-2 -1 -3.5 1.5t-2.5 8.5 q0 14 7 35q4 14 8 31q10 72 12 78q8 45 19 77q17 41 49 128q0 2 2 9t3 12q9 21 21 55q22 56 102 173q12 16 15 16t9 -4.5t10 -4.5q14 0 25 -11zM163 353l6 18h-7l-6 -15zM224 229q0 17 -9 45q-9 30 -9 43q-6 7 -29 20t-27 16q-11 -35 -10 -49q-7 -15 -9 -38q0 -3 -8.5 -20 t-8.5 -22q0 -32 -2 -56l-6 -35q-5 -23 -5 -34q0 -19 25 -79l10 1l6 -2q14 13 36 45q20 35 23 52q0 9 11 52.5t12 60.5z" />
<glyph unicode="7" horiz-adv-x="471" d="M481 171q0 -6 -10 -16q-12 -15 -13 -16l-10 9l-16 -4l-9 -9q-2 0 -6 1.5t-7 2.5q-4 0 -17 -4.5t-17 -4.5q-21 0 -54 -11q-30 -10 -32 -10q-7 0 -10.5 -2.5t-2.5 -6.5l-13 13q-20 -14 -49 -29q-6 -21 -28 -76q1 -2 1.5 -8.5t0.5 -9.5q-3 -18 -11 -54q-7 -35 -17 -50 q-1 -8 0 -66l-4 9q-16 -54 -16 -119q-8 -17 -32 -40l-22 16q-16 13 -16 19q0 31 10 68l18 67l15 74q10 44 27 67l-8 4q21 60 21 85q0 3 -8.5 13.5t-8.5 14.5t18 26q18 21 22 31q10 28 44 146q24 88 49 146l-7 6q-24 -12 -37 -12q-8 -9 -51 -36q-42 -26 -60 -44 q16 -16 43 -52q-6 -6 -6 -10l1 -4q-17 12 -36 12q-6 0 -6 -2l3 -6l-41 29q-27 20 -27 37q0 7 9 19q54 71 190 108l13 13q4 1 59 29q48 23 52 23q30 0 30 -34q-21 -18 -57 -75l-52 -83q0 -25 -27 -99t-27 -86q0 -4 4 -20q8 -2 15 -2q30 0 93 12q64 12 92 12q41 0 41 -11z" />
<glyph unicode="8" horiz-adv-x="364" d="M309 575l-1 -2q0 -2 -2 -7l-3 -12l-5 -18l-6 -23q-5 -18 -46 -84q-39 -63 -39 -81q0 -3 13 -30l16 -34q37 -120 37 -163q0 -35 -6 -53q-30 -90 -49 -103q-9 -6 -26 -6q-62 0 -93 61q-24 48 -24 116q0 9 4 28q3 17 6 32q5 43 35 96q30 52 30 71q0 11 -40 72t-40 108 q0 27 39 68q5 1 49 18q40 15 42 15q6 0 25 -4.5t24 -4.5q1 0 7 2l6 2q14 0 30 -25q17 -25 17 -39zM251 578q0 17 -20 17q-30 0 -66 -18q-42 -21 -42 -48q0 -22 55 -110l42 81q31 61 31 78zM220 127q0 12 -7 12q2 10 2 19q0 22 -12 60q-3 8 -9.5 28t-10.5 31 q-47 -62 -47 -145q0 -34 10 -70q14 -51 33 -54q41 65 41 119z" />
<glyph unicode="9" horiz-adv-x="437" d="M393 487q0 -7 -7 -43q-8 -44 -24 -123q-6 -25 -11 -59v-19q0 -36 -7 -85q-7 -62 -9 -86q-4 -10 -13 -23q0 -5 2.5 -22t2.5 -21q0 -18 -6 -48q-4 -20 -8 -48q-6 -10 -14 -19q-6 -31 -11 -66q-2 -2 -7.5 -7t-8.5 -7q0 -25 -22 -106q-3 -17 -5 -25q-1 -7 -12 -13q1 -1 1 -6 q0 -7 -5 -19q-3 5 -8 5q0 -1 -15 -21q-6 -17 -18 -58q-3 -1 -35 -24q-26 -19 -33 -19h-16q-8 1 -17 1q-2 7 -10 15q31 27 69 72q41 49 54 82q55 140 77 306q0 1 5 80q3 53 12 77l-11 12q-6 -8 -27 -43q-15 -26 -32 -39q-22 -58 -32 -58q-13 0 -27 -10.5t-14 -22.5 q0 -5 3 -10q-19 -11 -38 -11q-28 0 -50 31q-20 29 -20 57q0 4 8 22q3 6 5.5 11.5t4.5 8.5l1 4q73 201 103 239l86 104q56 35 77 32q0 1 1 4.5t1.5 5.5t1.5 5l1 4l2.5 5t2.5 4t2.5 3t3.5 3t4.5 1.5t5.5 0.5q10 0 23 -11.5t13 -22.5zM320 381q-9 0 -17 8q2 4 4.5 16.5 t3.5 16.5q-24 -17 -70 -78l-64 -87q5 -2 5 -4q-84 -167 -82 -218l11 -5q17 9 42 35q29 29 37 35q10 21 29 47q25 35 31 48z" />
<glyph unicode=":" horiz-adv-x="388" d="M286 410q0 -2 -9 -27q-6 -14 -24 -19q-8 5 -26 26q-23 28 -25 31v21q3 0 18.5 3.5t20.5 3.5q9 0 25 -15zM220 21q0 -17 -11.5 -28.5t-28.5 -11.5q-11 0 -22 20t-11 32q0 11 15 22t27 11q31 0 31 -45z" />
<glyph unicode=";" horiz-adv-x="324" d="M188 353q-2 3 -6 3q-2 0 -7 -1.5t-6 -1.5q-37 73 -37 79q0 10 11 18t22 8q38 0 38 -49q0 -33 -15 -56zM208 75q0 -16 -50 -124q-48 -104 -64 -118q-5 -5 -21 -8q-7 -16 -24 -37q-19 -23 -23 -38q-17 3 -17 23q0 7 8 11l8 5q-1 26 26 72q32 53 35 68q2 5 5.5 19.5 t5.5 21.5q4 12 36 100q5 15 13 35q8 14 27 14q11 0 23 -15.5t12 -28.5z" />
<glyph unicode="&#x3c;" horiz-adv-x="388" d="M233 526q0 -5 -8 -13q9 -6 9 -15q0 -8 -16 -24l-11 -13q-5 -6 -7 -9l-3 -3v-5q0 -4 -7 -19q-12 -10 -34 -52q-21 -41 -21 -56q0 -21 57 -79l78 -73v-25q0 -8 -12.5 -14.5t-23.5 -6.5q-17 0 -92 84t-75 104q0 21 48 101q45 75 67 93z" />
<glyph unicode="=" horiz-adv-x="665" d="M535 320q-9 -10 -45 -57l-10 6q-4 0 -8 -5.5t-9 -5.5q-3 0 -25.5 -1t-29.5 -1q0 -8 -39 -8q-5 0 -5 -2q1 -1 1 -2q0 -2 -6 -2q-5 0 -11 6l-11 -11l3 6q-2 5 -7 5q-4 0 -10.5 -5.5t-10.5 -5.5q-7 0 -28 -2.5t-27 -2.5q-4 0 -13 -2.5t-11 -2.5q-3 0 -15.5 2.5t-16.5 2.5 q-7 0 -10 -7l-5 -11q2 2 2 5q0 8 -13 8q-3 0 -15 -3t-16 -3q-12 0 -34 42q0 16 4 20.5t19 6.5q85 10 153 17q10 0 25.5 1.5t38 3t40.5 2.5q5 7 16 7q4 0 10.5 -5t10.5 -5q3 0 13 5t14 5t22.5 2.5t24.5 2.5q4 0 17 -3t17 -3zM519 178q-1 -1 -2 -4.5t-2 -6t-3 -2.5 q-4 -6 -8 -23q-4 -15 -9 -15q-1 0 -8 3l-7 2q-7 0 -7 -3t7 -10q-8 8 -16 8q-4 0 -6.5 -5.5t-6.5 -5.5t-14.5 -1t-12.5 -1q-6 0 -12 2l-11 -10q-5 5 -32 5q-4 0 -4 -11q0 -5 -6 -5q-41 0 -70 -7l-33 -7q-15 -4 -22 -5l-6 -2q-4 0 -13.5 -5t-13.5 -5q-15 0 -31 2l2 5 q-36 15 -36 40q0 23 53 34q38 8 74 8l11 11h23l7 -3q6 -3 8 -3q4 0 9 5.5t9 5.5q9 0 44 5t40 5q4 0 15 -2.5t14 -2.5q4 0 14.5 5.5t14.5 5.5q6 0 24 -3.5t23 -3.5z" />
<glyph unicode="&#x3e;" horiz-adv-x="388" d="M99 109q1 4 10 11q-7 7 -7 12q0 10 17 25q18 16 27 23q0 7 10 23q14 9 42 48q28 40 28 54q0 22 -48 85l-65 82q6 30 7 30q6 11 30 11q18 0 81 -92q63 -91 63 -114q0 -21 -60 -96q-58 -71 -81 -84q-19 -6 -54 -18z" />
<glyph unicode="?" horiz-adv-x="550" d="M506 726q0 -72 -116 -200q-7 -17 -26 -39q-27 -33 -30 -36q-36 -51 -57 -105q-17 -6 -24 -45l2 -2q-6 -27 -5 -28q-5 -5 -14 -21q-4 4 -22 4q0 4 -2 18.5t-2 18.5t4 13t4 11q-1 4 -6 4q23 64 49 116q4 5 25 24q22 40 83 125q55 75 82 127v10l-6 7q-8 -8 -20 -8 q-9 0 -10 -3l2 -3l-8 6q-2 -8 -23 -8l-8 -8q-19 1 -35 -15q-31 -9 -75 -50q-47 -44 -47 -71q0 -14 16 -45q-2 0 -9.5 -4t-11.5 -4q-8 0 -28 18t-22 18q4 7 4 16q0 2 -1 10.5t-1 11.5q0 61 80 120q69 51 137 62l8 8q16 4 56 4q23 0 40 -17t17 -40zM272 -10q-5 -9 -14 -9 q-19 0 -20 -4v1q-24 20 -24 37q0 7 7 14t14 7q31 0 37 -46z" />
<glyph unicode="@" horiz-adv-x="1010" d="M904 472q-1 -2 -7 -45q-5 -47 -5 -48q0 -14 4 -21q-3 -3 -20 -46q-6 -10 -19 -25q0 -4 3.5 -19.5t3.5 -20.5q0 -7 -6 -18q-9 -17 -10 -17q-4 -21 -5 -24q-5 -7 -15 -26q-21 -43 -40 -63q-24 -27 -65 -38l-9 9q-32 5 -56 39q-30 47 -40 54q2 4 2 8q0 7 -5 15q-1 0 -3 -2 l-3 -3q-1 -1 -3 -2l-18 -41q-1 -2 -37 -59q-31 -51 -40 -51q-8 0 -8 -3l3 -4q-4 0 -17.5 -5t-18.5 -5q-2 0 -10 4.5t-10 4.5q-14 0 -35 22t-21 36q1 5 2 5h3q1 0 1 1q-3 9 -3 19q0 24 15 54l26 51q144 293 240 293q15 0 35 -23q21 -22 21 -37q0 -7 -36 -95q-35 -90 -35 -131 q0 -26 16 -59q18 -41 38 -41q9 0 20 11q51 50 80 133q18 49 35 153l9 9q-1 5 -1 18q0 14 3 41q4 25 4 42q0 42 -7 81l-10 28q-7 17 -7 29q0 8 3 9l-34 22q-20 15 -19 31v-2q0 -3 -7 -3q-5 0 -5 1l1 1l-37 12l3 5q-2 6 -66 6q-16 0 -42 -17l-9 13q-18 1 -36 -17l-9 9 q-13 -5 -23 -10q-12 -6 -18 -15l-9 8q-1 0 -10.5 -6.5t-13.5 -6.5l-6 2l-6 3q-5 0 -33 -22q-35 -25 -36 -27q-89 -56 -171 -147q-93 -103 -120 -189q-8 -1 -13 -19q-1 -5 -2 -13t-2 -13l-21 -78q3 -5 3 -12q0 -4 -1 -7v-7h-1q-4 0 -4 -8q0 -21 14 -79q13 -53 26 -74 q10 -15 50 -61q45 -50 53 -50q5 2 5 -1l-1 -1q0 -2 4 -2t32 -17l33 -19q54 -25 146 -47h-6q-8 3 -10 4l-10 -5h-18q-47 0 -49 8l5 4q2 2 -2 2q-7 0 -11.5 -2t-5.5 -2q-10 0 -29 12q-5 0 -5 -2l2 -6q-169 86 -219 179q-4 8 -19 50q0 1 -11 24q-16 41 -16 95q0 73 28.5 149.5 t76.5 127.5q3 13 21 25q1 27 70 96l94 86q17 16 92 60q79 46 94 46q1 0 6 -2t6 -2q4 0 11.5 5t9.5 5q52 15 91 15q21 0 56 -7q38 -6 53 -12q3 -2 13 -10q6 -5 11 -7.5t7 -2.5h2l-1 -1q0 -1 2 -1.5t5 -0.5t6 -2t4 -6q28 -13 52 -60q25 -45 23 -79q9 -7 9 -32q0 -17 -5 -34 q9 -6 9 -31q0 -12 -5 -19h2q5 0 4 -7zM488 -186v-7h-15v7h15zM651 421l-11 6q-104 -127 -152 -226q-14 -31 -39 -96l-5 -5q-5 -5 -5 -10q0 -4 5 -15.5t5 -12.5q42 20 64 45l47 60q8 10 21 35q12 26 21 36q9 20 17 42q1 3 10 74q7 54 22 67z" />
<glyph unicode="A" horiz-adv-x="491" d="M565 365l-108 -31q-33 0 -67 -19q-5 -3 -34 -19l-8 4q-15 0 -23.5 -16.5t-8.5 -36.5q0 -15 9 -50q9 -33 9 -50q0 -3 -1 -15t-1 -15q0 -14 10 -41q11 -33 12 -46q1 -6 8 -41q-2 0 -8.5 -9t-10.5 -9q-10 0 -34 18q-1 11 -9 33q-8 24 -8 35q0 3 3 11.5t3 9.5q0 3 -5 13 q0 35 -12 64h1q4 0 4 8q0 9 -4 9h-3q0 -2 1 -3q4 4 4 11q0 6 -6 25t-6 24q0 6 -1 20t-1 18q-57 -13 -85 -26q-27 -14 -71 -58q-10 -49 -52 -191q-36 4 -40 4q-10 9 -10 21q0 3 38 146q-18 13 -38 43q5 4 35 18q20 9 32 25q5 5 9 27q4 21 7 31q10 19 28 59q68 193 155 404 l-13 17q0 6 3.5 27.5t3.5 26.5q0 8 7 14t14 6q28 0 41 -37q0 -4 1.5 -15t1.5 -13q0 -24 -6 -68q-5 -35 -8 -67q-5 -78 -5 -168q0 -68 -1 -73q0 -1 -2.5 -7t-2.5 -10q0 -35 14 -61l3 8q34 6 140 33q59 14 62 14q20 0 34 -32zM274 365q0 4 -4 21.5t-4 23.5q0 5 1 9v8 q0 9 -3 11q2 18 2 29l-11 95q-12 -36 -57 -142q-37 -92 -50 -145q4 4 18 4q9 0 51 18q43 19 46 25q9 16 5 39q0 1 3 0q3 0 3 4z" />
<glyph unicode="B" horiz-adv-x="727" d="M776 423q-4 -27 -4 -29q-4 0 -19 -5t-20 -5q-8 0 -36 -5t-36 -5l-9 -10q-2 0 -7.5 2.5t-9.5 2.5t-5 -1l2 -2q0 -1 -2 -1.5t-6.5 -2.5t-9.5 -8l-9 10q-7 -9 -13 -9l-10 -10l-8 5q0 -6 3 -25t3 -24q0 -39 -22 -76q-10 -17 -65 -84q-57 -70 -66 -70q-6 0 -6 2q2 2 2 4 q0 3 -1 4q-4 -10 -33 -40q-29 -29 -36 -29q-6 0 -66 -39t-66 -39q-5 0 -22 -12q-15 -12 -20 -12h-17l-13 -14q-5 -2 -13 -4t-13 -4q-21 -8 -21 -22l-14 15q-3 -14 -19 -15l-28 -5l-9 10q-9 1 -19 15t-10 24q0 4 1 7.5t3 6t2 3.5q-2 6 -2 10q0 29 45 92q51 71 59 94 q17 48 17 139v16q-1 7 -1 16q0 27 13 43l-8 4q13 48 13 67q0 26 -41 46q4 18 25 34q23 16 27 27t15 69q11 63 11 76q0 24 -17 24q-21 0 -65 -19q-43 -18 -57 -32h-20q-19 19 -38 42q3 3 6 10l-2 5q114 60 140 60q3 0 6.5 -5t7.5 -5q26 15 49 21q9 13 9 33h23q7 0 28 -12 q22 -12 28 -12q5 0 43 2q30 3 44 3q13 0 42 -9q33 -10 33 -19q0 -2 -4 -5q10 -21 21 -21q6 0 6 -4v-9q-8 -2 -12 -10q-28 -55 -97 -113l-117 -94l-5 3l-7 -5q1 -3 21 -3q6 0 31 -5l10 10q8 -5 37 -9q33 -5 41 -5q1 0 6 1.5t8 2.5l10 -10q4 0 12.5 -3.5t16.5 -7.5l7 -3 q3 0 3 2q0 -6 -3 6q2 2 4 2q5 0 63 -35q56 -34 65 -34q5 0 23 5t24 5h26q4 0 14 5t14 5t14 -2.5t14 -2.5q2 0 11 2.5t11 2.5q8 0 34 2.5t32 2.5zM369 705q-28 0 -61 -4q-58 -6 -60 -7q-6 -14 -18 -57t-12 -55q0 -5 6 -11l5 -6q18 23 72 69q48 42 68 71zM493 382 q-10 15 -42 28q-33 15 -38 23l-9 -10l-9 9q-15 0 -48 3q-31 3 -49 3q-4 0 -7 -2t-5 -4l-2 -1l-59 -6q-39 -5 -39 -36q0 -7 1 -10l8 -3q-13 -13 -13 -29q0 -69 -9 -158q3 1 17 13q14 11 18 11t72 48q67 49 73 49q7 0 50 27q45 27 51 27q4 0 10 -2.5t8 -2.5q6 0 13 8t8 15z M534 298l-5 26q-20 11 -22 11q-5 0 -3 -8q-3 -7 -32 -1l-4 -6q-13 0 -9 -10q-4 4 -14 10l-15 -15q-13 -7 -44 -27l-44 -28q-115 -75 -183 -157q10 -21 10 -46q0 -37 -26 -49q-3 8 -25 18q5 -5 8 -10l-2 -3q-17 9 -17 24l-30 -48q-19 -29 -19 -52q0 -12 6 -12q1 0 116 44 q9 11 49 33q34 19 55 27q117 111 121 111q6 0 38 31q29 28 36 38q6 9 31 52q24 43 24 47z" />
<glyph unicode="C" d="M521 349q0 -2 -11 -19q-13 -20 -13 -21q-5 -22 -24 -62l-56 -68q-9 -14 -28 -37q-18 -16 -55 -61q-2 0 -13 -14q-6 -7 -11.5 -10.5t-8 -3.5t-2.5 -1l4 -6q-12 0 -22 -10q-7 -5 -11.5 -7.5t-5.5 -2.5h-2l3 -6l-4 -2q-7 0 -32 -14q-23 -14 -29 -21q-10 0 -27 -4.5t-18 -4.5 q-4 0 -10.5 2.5t-8.5 2.5l-9 9q-28 1 -57 35q-28 32 -33 37q2 2 2 6t-1 8v8q-19 16 -19 41l6 14q3 11 3 31q1 25 3 34q5 23 21 59q19 43 22 54q20 74 93 212l-3 5q15 36 67 128l72 105q55 76 87 76q33 0 33 -58q0 -5 -15 -25q-16 -20 -17 -27q-6 -17 -9 -51t-6 -46 q-5 -13 -17 -61q-8 -82 -13 -123q-9 -79 -30 -116q-2 21 -7 48q-6 32 -6 47q0 2 8 37q3 3 10 8q-9 26 -9 44q0 31 10 62q2 10 -2 24q1 14 10 48v38q-20 2 -33 -29q-20 -42 -23 -44q-10 -11 -21 -36l-15 -41q-6 -12 -43 -76q-16 -28 -82 -186q-11 -20 -20 -40 q-21 -87 -21 -97q0 -5 4 -24t4 -24q0 -16 16 -41t32 -25q1 0 13.5 -4.5t21.5 -4.5q22 11 23 11h-1q0 3 5 3q20 0 81 56l79 75q28 25 84 96q81 105 81 106q0 -1 2 -3.5t3 -5.5t1 -7z" />
<glyph unicode="D" horiz-adv-x="661" d="M703 390v-21h-34q-52 1 -78 -2q-3 0 -16 -6t-17 -6t-6.5 2t-4.5 2q-11 0 -31 -15q-19 -13 -19 -24q0 -2 1 -8.5t1 -7.5q0 -28 -54 -104q-21 -28 -94 -97q-79 -75 -99 -75q-5 0 -69 -34q-65 -35 -72 -35q-21 0 -37 25t-29 21q1 107 -9 144l-6 17q0 3 5.5 23t5.5 29 q0 6 2.5 23.5t2.5 21.5q0 3 -1.5 13t-1.5 12q0 25 12 79q12 55 12 80q0 23 -10 89q-11 73 -16 87q-8 8 -19 39q-10 29 -10 45q0 38 40 75q41 38 78 38q4 0 16 -3t16 -3q118 -9 231 -104q120 -102 120 -218q0 -4 -1 -15t-1 -14t3 -6v-13v-26l8 -8q16 9 119 9q9 0 30.5 -10 t31.5 -19zM482 440q0 7 -3 7l-3 -2q1 4 1 12q0 17 -18 70l5 3l-21 30q1 18 -35 59l-50 56q-2 2 -13 9t-16 11q-23 15 -29 15t-23 11q-17 12 -23 12q-8 0 -55 18q-4 0 -12.5 1t-18 2.5t-12.5 1.5l-9 -10h-40q-14 0 -29 -19t-15 -34q0 -5 16 -53q0 15 7 22l-9 4q14 10 34 20 q25 -6 25 -80q0 -16 -13 -175q-5 -8 -5 -36t-11 -37q-1 -42 -10 -229q49 77 126 126l56 43q35 26 60 31q18 21 89 49q54 21 54 62zM454 310l-6 26q-4 -2 -13 -8t-14 -9l-13 -8q-8 -4 -14 -6.5t-14 -4t-16 -1.5q-16 -17 -60 -39q-42 -21 -58 -37q-12 -12 -17 -19 q-12 -14 -21 -12q-3 0 -6 1q-1 -11 -16 -32q-10 -11 -23 -28q-14 -20 -35 -77l1 -4q1 -4 3.5 -7.5t6.5 -3.5q16 0 89 44q72 45 88 59l41 44q19 19 50 64t47 58z" />
<glyph unicode="E" horiz-adv-x="633" d="M779 796q-1 0 -8.5 -5.5t-12.5 -5.5q-2 0 -12.5 3.5t-14.5 3.5q-6 0 -27 3.5t-28 3.5q-4 0 -9 -4.5t-9 -4.5q-2 0 -11.5 2t-13.5 2q-9 0 -11 -2l3 -3q-5 5 -22 5q-11 0 -48 -9t-47 -9q-2 0 -8 2l-6 2q-22 0 -32 -18l-9 9q-9 -9 -17 -9l-10 -9q-2 0 -7 2.5t-9 2.5 q-7 0 -7 -2l4 -5l-8 7q-9 -19 -19 -19q-5 0 -5 2q1 0 1 1q0 2 -5 2q-8 0 -9 -1l3 -4q-2 2 -5 2q-8 0 -26 -7.5t-26 -7.5l-9 -9h-6q-9 0 -16 -1.5t-10 -3t-13 -8.5t-15 -10q-25 -11 -27 -17q-1 -4 -26 -94q-22 -81 -22 -87v-22q1 -4 20 -4q14 0 18 -4l9 9q4 0 18.5 4.5 t18.5 4.5q28 0 96 27l9 -9q5 5 17 5l9 9l28 5q5 0 5 -7q0 -1 5 -3q4 0 22.5 2t24.5 2q0 -17 -16 -17q-4 0 -25.5 -7t-27.5 -7l-14 -13q-6 -1 -38 -15q-22 -8 -45 -8q-5 0 -5 1q1 1 1 2q1 2 1 3q0 2 -1 3q-21 -31 -95 -46l-10 -9q-3 1 -8 1q-35 0 -42 -63q-3 -24 -2 -88 q-5 -13 -5 -19q0 -59 12 -97q7 -23 35 -64q32 -44 51 -44h20q45 0 180 57q59 27 120 91q57 64 62 64l6 -2q6 -3 7 -3q4 0 11 4t9 4q-67 -103 -70 -103q-5 0 -5 2l1 2l1 2q0 3 -1 4q-20 -46 -121 -110q-126 -57 -147 -57q-4 0 -4 -2l3 -5q-2 -2 -4 -2q-5 -2 -5 1q1 0 1 1 q0 2 -5 2q-3 0 -9 -4.5t-9 -4.5t-14 -2t-14 -2q-6 0 -44 20q-46 26 -49 27q0 6 4 10q-26 32 -42 72l3 9q-24 71 -24 96q0 3 6 20t6 23q0 4 -2.5 21t-2.5 21q0 7 5.5 27.5t5.5 26.5q0 4 -2 15t-2 14v1q-2 2 -7 2q-6 0 -12 -3l-1 -1l-9 -9v-1q0 -1 -9 -3.5t-18 -8t-9 -14.5h-6 q-17 0 -28 -1q-2 0 -4 -1l-9 -3q-9 0 -21 25q14 28 65 57l80 44l-1 3q0 16 12 49q13 31 11 52q6 13 15 51q9 35 19 49q-5 12 -20 12q-2 -1 -7 -8.5t-10.5 -13.5t-9.5 -6t-12.5 -4.5t-11.5 -4.5q-4 0 -12 7t-12 7q-2 10 -2 14q0 28 52 55q58 28 69 49q2 0 10 -2t11 -2t59 14 q215 54 217 54q6 0 26.5 -2.5t25.5 -2.5t7 2l-6 6q4 0 20.5 5.5t22.5 5.5q4 0 8 -3q1 -1 42 -4q19 -1 31 0q1 0 5.5 -3.5t9.5 -3.5q4 0 4 1v1q11 7 18 7q6 0 18 -12q5 -4 9 -6.5t6.5 -3.5t4.5 -1h3q1 0 1 -1q-1 0 -1 -1l28 -12z" />
<glyph unicode="F" horiz-adv-x="573" d="M734 779q0 -7 -3.5 -13.5t-5.5 -9.5t-11 -11l-8 -8q1 1 1 3q0 1 -2 7.5t-2 9.5q-2 0 -8.5 1.5t-8.5 1.5q-4 0 -7.5 -4.5t-6.5 -4.5q-4 0 -4 2l3 5q0 2 -4 2q-6 0 -27.5 -4.5t-26.5 -4.5l-10 -9l-10 9q-27 -18 -45 -18l-7 2l-7 2q-16 0 -44 -7q-28 -6 -43 -6q-4 0 -7.5 -5 t-6.5 -5q-4 0 -4 2l3 6q0 2 -4 2t-4 -10q0 -4 -5 -4q-4 0 -14.5 2t-12.5 2q-4 0 -4 -1l3 -6q-2 -2 -4 -2q-49 0 -115 -32q-2 2 -4 2q-4 0 -2 -9q-1 -12 -16 -47q-1 0 -1 -29q0 -32 -13 -44q1 -4 1 -12q0 -16 -9 -44t-9 -42q0 -28 19 -28q4 0 13 4.5t12 4.5t9 1t10.5 1.5 t9 1.5t6.5 1.5t1 1.5l-3 5q2 2 4 2q4 0 6 -2t5 -2q4 0 17.5 7.5t17.5 7.5q27 2 81 14q55 12 70 12q4 0 4 -1l-3 -6q2 -2 4 -2q4 0 4 1l-3 6q0 2 4 2t18.5 -2.5t19.5 -2.5q0 -3 1 -10.5t1 -9.5q0 -5 -2 -11l-10 -2q-3 -1 -10 1l-10 -9q-3 5 -22 5q-4 0 -4 -2l3 -5 q-2 -3 -4 -3q-4 0 -4 2l3 6q0 2 -3 2q-5 0 -5 -2v-1q0 -1 -5 -2t-7 -5q-1 -2 -10.5 -5.5t-14.5 -3.5h-31q-11 -13 -48 -20q-29 -7 -54 -7q-44 -28 -55 -28q-17 0 -25 -5q-3 -3 -9.5 -8.5t-9.5 -8.5v-131l8 -8l6 6q5 7 7 8q11 -22 11 -32v-179q-2 1 -5 1q-18 0 -24 -38 q-1 6 -10 18l-11 -8q1 1 1 3q0 -1 -2 1.5t-7 9.5q0 30 -12 76h2q4 0 4 8q0 20 -11 47q0 28 4 104q2 86 2 105l-7 8q-26 -18 -45 -18l-2 -5l4 -2h-2q-1 0 -5 2q-15 -9 -32 -41q-7 4 -28 4q-4 0 -13.5 -3.5t-11.5 -3.5q1 1 1 2q0 3 -15 11q0 5 17 33q12 10 67 43t65 33 q7 0 7 -2l1 -3q10 39 16 105l9 106l1 -1q6 0 6 49q-6 2 -9 2q-30 0 -40 -10q1 1 1 3q0 -1 -2 1l-8 8q-14 -14 -19 -14t-39 -26q-31 -25 -39 -25q-3 0 -61 29v14q0 14 8 14l3 -1q30 20 105 38q80 19 113 37q-2 2 -8 4q5 30 7 41q6 26 21 36q9 -4 25 -5q2 -18 7 -39l-6 -4 l17 -17q54 19 77 19l10 -5q3 0 6 4.5t7 4.5t14 5t14 5l6 -2q6 -3 8 -3q23 0 68 13q48 14 70 15l9 -5q3 0 11 4.5t12 4.5q2 0 6 -1.5t7 -2.5l10 9q9 -9 14 -9q4 0 4 1l-4 6q2 2 4 2q4 0 4 -2l-3 -5q2 -2 4 -2t3.5 1.5t2 3t2 3t3.5 1.5q3 0 7 2t7 2q69 0 69 -27z" />
<glyph unicode="G" horiz-adv-x="568" d="M558 790q0 -14 -13 -60q-10 -40 -17 -61l-11 -5l-1 2q-2 2 -4 6t-5 8q-6 10 -6 17q0 6 2.5 27.5t2.5 27.5q0 18 -6 23q-8 1 -30 -21l-8 8l-5 -9l3 -6q-20 -6 -38 -26l-3 -4l-10 -13l-16 -19q-1 5 -8 17q-24 -49 -56 -94l-4 9q-11 -16 -25 -29l-27 -26q-13 -15 -23 -36 l-21 -40q-13 -23 -67 -92v-4q1 -14 -11 -30q-12 -11 -23 -23l-11 -32q-19 -30 -28 -47q-28 -83 -28 -107q0 -39 23 -80q27 -46 65 -46q6 0 9 -4l-1 1q0 2 7.5 3t7.5 2l-2 4q32 10 63 35l54 47q13 9 31 32q26 32 27 34q35 38 69 161q9 7 25 52q15 40 36 40q19 0 19 -15 q0 -3 -4 -16t-4 -17q-72 -142 -73 -275q0 -10 -7 -23q3 -8 3 -14q0 -3 -2.5 -11t-2.5 -10q0 -1 4 -6t4 -10q0 -6 -5 -21q0 -3 6 -141q0 -5 6 -27t6 -28v-37l-11 8q-4 -8 -21 -26l-9 7l-4 -2q-5 5 -5 10q-3 12 -3 103q0 99 1 171q0 15 0.5 29t0.5 25v20v15v10v7v1l-6 12 q-73 -98 -168 -172q-7 5 -16 5q-1 -4 -4 -11q-1 -7 -8 -7l-6 2q-7 3 -9 3q-3 0 -8 -4.5t-9 -4.5t-20.5 4.5t-22.5 4.5q-7 0 -32 24q-26 26 -27 34l-12 36q-8 27 -8 32q0 13 6 40q7 27 7 43q16 14 31 57q15 48 25 63l184 291l38 42q168 191 208 191q2 0 35 -14v-5 q0 -4 3 -17.5t3 -17.5z" />
<glyph unicode="H" horiz-adv-x="720" d="M684 777v-39q-7 -10 -7 -51q0 -26 -23 -75q-32 -65 -33 -74q-10 -27 -10 -90q0 -8 2.5 -34.5t2.5 -34.5q0 -35 -12 -51v-285q10 -17 12 -78q2 -63 11 -81h-3q-4 -1 -22 8q0 -4 -4.5 -17t-4.5 -16q-16 10 -38 35v2q0 6 -6.5 26t-6.5 24q0 5 2 7t4 3h1v31q0 8 7 28.5 t7 26.5q0 4 -1.5 20t-1.5 20v204q0 3 5.5 18t5.5 19q0 5 -1.5 7t-5.5 1l-4 2q0 85 6 123q-4 0 -12 9q-31 -26 -93 -67q-74 -48 -99 -52l-11 -10l2 5q-2 5 -7 5q-4 0 -5.5 -2.5t-3.5 -2.5l-8 -10q-62 -22 -81 -41q-27 -28 -27 -88q0 -22 10 -52t10 -41q0 -31 -31 -136l-10 10 q-7 -10 -13 -29q-7 9 -12 9q-7 1 -7 -1l5 -7q-46 31 -66 73q-35 74 -37 76q2 2 2 6q0 2 -2 10l1 -1q5 0 5 9q0 8 -29 45q-29 38 -29 60q0 17 73 57q87 47 95 54v29q0 20 7 28v50l-18 15v231q4 7 4 59q0 13 10 29t10 18q2 0 12.5 -2.5t14.5 -2.5q7 0 8 1l-4 5q3 -14 3 -37 q0 -32 1 -37h1q6 0 6 -10q0 -7 -8 -10l-1 -1q-4 -27 -4 -57q0 -6 3 -31t3 -32q0 -22 -13 -32v-75l14 -10q-4 -12 -4 -39l1 -71v-3q1 -3 3 -6t6 -3q4 1 17 2l22 4v1q0 3 5 3q19 0 104 39q83 39 103 53l19 12q14 8 21 13t15.5 14.5t12.5 19.5q4 8 4 43q2 38 8 52v15 q-2 30 3 78q3 40 7 78q1 56 3 61q6 41 31 41q21 0 41 -41zM642 711l14 6l-3 7l-11 -6v-7zM645 639l15 48q-3 6 -17 21q-2 -15 -12 -46q-9 -32 -9 -50q0 -4 2 -14q13 9 21 41zM193 109v134q-5 12 -15 30q-7 0 -15.5 -1.5t-13.5 -2.5l-5 -1l3 -7q-2 -2 -3 -2l-16 5l-27 -24 q-21 -20 -21 -28q0 -14 15 -45q15 -32 11 -48q11 -20 31 -60q20 -36 46 -47q-3 9 -3 12q0 5 4 6q-1 14 -1 31q0 38 10 48z" />
<glyph unicode="I" horiz-adv-x="791" d="M850 423v-17q-4 2 -5 2l-3 -2q-2 -2 -6 -4t-8 -2q-1 0 -11 2l-17 -18q-9 -1 -47 -19q-34 -17 -50 -17q-54 0 -54 -66q-5 -6 -9 -15.5t-8 -24.5t-6 -20q-15 -43 -64 -111l-47 -58q-39 -46 -48 -46q-3 0 -20 -20t-24 -20q-5 0 -5 2v2q0 5 -4 5q-19 0 -19 -8q0 -2 7 -8 l-10 -11l-1 -1q-1 0 -3 -1t-4.5 -2t-6.5 -3l-8 -4l7 4q-6 7 -12 7q-3 0 -16 -6t-17 -6l13 -14l-15 13q-7 -9 -13 -9l-9 -9q-8 -3 -23 -18l-10 9q-7 1 -19 -12q5 -8 11 -6h6l-2 4v-1q0 -4 -4 -8q-4 8 -18 18l-7 -7l8 -10q-9 12 -14 17q-9 -16 -18 -27l-10 9q-3 -3 -3 -5t4 -6 l-9 7l-9 -14l-11 10q1 0 1 1q0 3 -8 3q-7 0 -7 -2l3 -7q-8 17 -30 24q4 4 6 10q14 54 25 78q43 91 140 183q91 87 189 131q55 25 115 70v74q-14 8 -17 25q0 4 -1.5 14t-2.5 15q-28 88 -76 143q-17 20 -64 57q-52 40 -70 40h-22q-2 0 -7 7t-9 7q-2 0 -9.5 -2t-9.5 -2l-10 -10 v2q0 3 -9 3q-2 0 -11 -2.5t-11 -2.5q-7 2 -22 5l-9 -9h-13q-17 0 -54 -34q-36 -33 -45 -52l-49 -105l2 -9q-9 -22 -14 -57l-3 -45q-5 -31 -17 -38l-14 -1q-7 0 -16 35q-8 34 -8 44q0 23 23 90q26 71 41 81l-3 4q107 150 277 150q11 0 56 -22q42 -20 57 -30q64 -40 122 -145 q59 -106 59 -180q0 -15 -5 -20q2 -2 12 -16q19 5 83 27q54 18 82 18q8 -2 24 -5zM533 660l13 5l-2 7l-11 -6v-6zM608 301q-6 0 -6 6l2 3q-7 -1 -25 -3l-9 -9q-4 0 -11 -4.5t-11 -4.5q-9 -2 -9 -4l-4 9q-16 -16 -46 -23l-13 -13l-5 9q1 -18 -5 -23q-17 -6 -52 -24 q-23 -20 -83 -63q5 -2 5 -4q-36 -26 -80 -95q-46 -71 -46 -111q0 -20 24 -20q26 0 32 13q5 -5 4 -9q14 10 46 22q29 11 41 23l25 9q12 0 85 67q74 68 81 82q46 98 53 133q0 1 -1 8t-1 8q0 11 9 18z" />
<glyph unicode="J" horiz-adv-x="892" d="M882 834q0 -20 -40 -29q-45 -10 -57 -22q-26 -31 -35 -76q-5 -23 -9 -83q0 -2 -2 -17t-2 -19q0 -32 1 -57q2 -50 2 -57q0 -20 -3 -23q7 -48 7 -160q0 -7 5.5 -29.5t5.5 -28.5q0 -5 -5 -15q-4 -6 -6 -13q0 -1 -1 -7t-2 -19.5t-2 -25.5q-3 -32 -12 -52l6 -9q-6 -6 -19 -6 q-1 -4 -1 -9q0 -4 2 -10q9 -1 9 -12q0 -8 -13 -30q-12 -22 -10 -53q-4 4 -8 4q-2 0 -5 -1l-33 -76q-27 -59 -43 -59q-7 0 -14 -10q-12 -16 -13 -18q-7 -8 -40 -33q-25 -20 -33 -35q-5 0 -22.5 -9t-21.5 -9q-6 0 -20 -15q-13 -16 -20 -16q-5 0 -5 1q1 0 1 1q0 2 -5 2 q-2 0 -12.5 -6.5t-14.5 -6.5q-3 0 -14.5 -11t-15.5 -11t-9 5l-9 -9l2 5q-1 4 -6 4q-4 0 -4 -2q2 -2 2 -5q0 -2 -18 -2q-17 0 -29 -13q-3 4 -26 4q-5 0 -22 -9t-21 -9q-2 0 -7 2.5t-7 2.5q-4 0 -4 -10q0 -3 -4 -3t-4 1l3 5q-2 2 -4 2q-3 0 -16.5 -2t-17.5 -2q-10 0 -34 11 t-33 11q-6 0 -14 -9q0 8 -17 22q-16 10 -25 15q-22 34 -50 97q-4 16 -14 26v96q0 4 2.5 12.5t2.5 10.5q8 74 65 164q48 79 113 139q17 14 87 66q76 55 85 55q5 0 5 -2q-1 0 -1 -1q0 -2 5 -2q2 0 24 17q23 19 25 21q70 37 87 37q2 0 3.5 -1t2 -1.5t2 -1.5t3.5 -1q3 0 11 7 t11 7q1 0 13 -5q12 12 18 12q2 0 6 -1q-1 -1 -7 -7.5t-11.5 -11.5t-9.5 -5q-2 0 -7 2t-7 2q-8 0 -46 -44q-11 4 -28 5q-16 -16 -61 -51l-41 -23q-28 -17 -29 -31l-10 8l-5 -8q-83 -59 -162 -167q-90 -123 -90 -209q0 -2 1 -10.5t1 -10.5t-5 -10.5t-5 -12.5q0 -15 8 -47 q12 -47 12 -48q4 -11 20 -35q10 -10 31 -24q23 -15 32 -15q35 0 101 9q67 7 100 17l9 9q16 0 74 35l73 47q146 90 195 264q1 8 4 27l6 28q8 37 20 50q-2 2 -14 12q15 49 15 110q0 3 -6 9q6 2 18 9q-5 3 -19 17q4 19 4 49q0 24 -5 92q-4 55 -4 92q0 3 -3.5 15t-3.5 16 q0 14 5 52t5 53q0 2 -2 10t-2 10q0 11 12 16v38q-3 3 -4 3q-19 0 -20 -4l-9 -9q-7 -1 -54 -23q-44 -21 -52 -21q-2 0 -10 -4.5t-12 -4.5q-18 0 -46 -46q40 -28 66 -66q-7 -7 -11 -13q0 7 -17 7q-12 0 -62 37q-50 38 -50 48q0 14 20 28q2 2 12 16q181 99 320 135q3 0 15.5 8 t16.5 8l6 -2q5 -2 7 -2q3 0 13 4.5t13 4.5q9 0 21 -12t12 -21z" />
<glyph unicode="K" horiz-adv-x="728" d="M701 6v-22l-9 -2q-8 -2 -15 -3l-9 -9q-3 0 -16 -2.5t-17 -2.5q-3 0 -12 2.5t-11 2.5q-4 -1 -14 -5q-24 8 -37 28l-10 -9l-3 8q-116 84 -244 211q-169 168 -169 249q0 21 92 108q67 65 117 104l103 80q86 65 96 65q8 0 21 -16q13 -14 13 -23t-13 -19q-13 -9 -20 -16 q-5 -1 -9 -3.5t-7.5 -7t-5.5 -7.5t-6 -10t-5 -9h-6q-6 0 -19.5 -9t-17.5 -9q-6 0 -17 -15q-4 -6 -7.5 -9t-6.5 -5t-4.5 -2.5t-6 -1t-6.5 -1.5l-42 -42q-35 -35 -38 -35q-5 0 -5 2l2 4q0 1 -2 3l-27 -30l-34 -37q-18 -13 -35 -29q-26 -21 -26 -33q0 -45 119 -176 q96 -105 164 -159q94 -75 102 -75q7 0 9 -5q1 3 4 3q6 0 6 -9q0 -4 -3 -9q6 -3 30 -3q5 0 5 -1v-1q0 -3 4 -3q7 0 9 2l-4 5l10 -7h12q1 0 21 -5zM181 788q-11 -22 -14 -64q-3 -41 -11 -61q1 -5 1 -17q0 -61 -33 -130q-1 -40 -1 -64q-3 -35 -17 -60q0 -4 2 -24q-8 -11 -8 -27 q0 -3 1.5 -15t1.5 -16q0 -13 -10 -20q1 -3 3.5 -6.5t6 -9t6.5 -9.5q3 8 16 35l17 34l7 -49q-24 -23 -24 -70q0 -6 1 -27t1 -27t-10 -27q-9 -22 -9 -32q0 -8 5 -13q0 -36 -7 -96q-3 5 -9 5l-4 -28q-5 1 -15 13q-5 6 -9 8t-8.5 2.5t-6.5 1.5l1 -2q1 2 1 7t-2 35q-3 27 -3 35 q-3 62 -3 152q2 1 13 8l-8 3q8 93 8 133q0 19 14 30l-9 3v3q1 4 1.5 11t0.5 15q1 15 12 23l-9 4v33q0 7 5 29t5 27q12 183 32 254q6 20 36 20q9 0 32 -30z" />
<glyph unicode="L" horiz-adv-x="577" d="M583 382l10 8q-5 -8 -107 -89l-125 -99l-9 -1l3 -4q-2 2 -4 2q-5 0 -25 -24l-26 -31q-8 -9 -100 -88q-89 -74 -94 -74q-8 0 -8 -3l4 -6l-14 14q-3 9 -16 22l-10 -9q-4 19 -17 57q2 14 2 28v16l-3 5l48 427q2 17 11 31v4q-1 13 8 49q9 30 7 44q9 12 20 62q10 57 18 75 q15 36 41 38l1 -7l-1 -10q0 -5 -2 -7q-1 -1 -2 0q0 -5 0.5 -9t0.5 -5v-1q0 -1 4 -9t3 -12q8 -5 8 -16q0 -4 -3 -23q-2 -15 1 -23q-4 0 -10.5 -6.5t-7.5 -6.5l9 -3q-15 -28 -17 -62l-27 -50q-9 -16 -9 -61q0 -35 -22 -63l3 -6q-8 -12 -9 -49q-2 -33 -11 -41l9 -4 q-18 -104 -17 -149q-2 -21 -7 -45q1 -3 1 -8q0 -8 -4 -8q6 -40 13 -74q5 -2 12 -9q25 17 228 179q125 100 248 161q-8 -14 -8 -20q0 -1 2 -7z" />
<glyph unicode="M" horiz-adv-x="672" d="M675 259q0 -10 1 -17v-17q0 -25 -14 -36q3 -6 3 -8q0 -8 -11 -28q-14 -24 -15 -27q-16 -43 -31 -70q-26 -44 -52 -48q-14 -2 -15 -22q-1 1 -3 1l-7 -3q-7 -2 -9 -2l-11 5h-20q-119 95 -119 322q0 20 2 50q-6 24 -8 34q-14 -15 -16 -34q-9 -2 -10 -9q-2 -11 -9 -46 q-23 -74 -71 -165h-5q-3 -3 -3 -6t4 -7q-2 0 -16 -4l-13 -3l5 -6l-10 7v2q-1 1 -12 5t-14 6q-20 0 -50 98l-35 122q-32 -94 -32 -274q0 -3 -2 -15q0 -2 -0.5 -5t-1 -5t-0.5 -4v-2l-3 -66q-5 1 -16 -11q-12 -15 -13 -16q1 7 -6 7q-3 0 -7 -3q-6 25 -6 56q0 23 6 65q7 46 9 65 q5 82 19 188q20 141 25 187q-3 4 -3 14q0 6 4 29t4 29q0 2 -1 12t-1 14q0 37 25 47h15q3 -6 20 -45q3 -18 13 -47q11 -173 15 -201q18 -142 60 -178q32 45 57 112q5 12 39 119q0 1 12 31l19 52q2 6 13 74q22 146 31 179q30 125 79 150q-3 -7 -3 -64l-1 -1q0 -1 -2 -5l-4 -8 v-3q0 -23 -17 -97q-17 -73 -17 -98q0 -11 1 -16q-2 -11 -8 -19q-7 -63 -15 -189q-1 1 -2 1q-7 0 -7 -8q0 -3 3.5 -12t3.5 -10q2 -27 1 -50q0 -13 -0.5 -25.5t-1 -18.5t-0.5 -7q0 -17 1 -24q2 -4 4 -15v-16q16 -79 52 -139l-5 -5q1 0 8.5 -10t11.5 -10q6 0 9 -2.5t2 -7.5 q16 -8 29 -8q5 0 5 1l-1 1q0 3 5 3q26 0 84 115q35 68 55 95z" />
<glyph unicode="N" horiz-adv-x="572" d="M509 -7q-5 5 -8 5q-2 0 -5 -3l9 -10l-12 8q-1 3 -7 5q-3 -4 -3 -20v-24l-11 -5q-58 52 -110 142l-82 161q-14 25 -55 105q-26 59 -92 194l-5 2l-4 -3q2 -8 2 -25q0 -185 -21 -192q10 -7 13 -26q1 -9 5 -29q-3 1 -9.5 -7.5t-8.5 -8.5q4 -4 13 -3q0 -8 -7 -74 q-5 -54 -12 -66q3 -15 3 -37q0 -6 -2 -26t-2 -26q0 -8 2 -14h-1q-5 0 -9 4q-2 -2 -10 -14q-8 -9 -12 -9l-9 4q-1 0 -3 -2l9 -10q-9 9 -17 9v37q0 19 10 49q-5 15 -5 37q0 17 3 49q3 33 3 48q1 1 1 3l-5 19q5 15 5 36q0 8 -2 36t-2 36q0 24 9 35v221q-3 8 -5 60q-2 41 -17 55 v19q21 24 39 24h8q8 0 40 -65l55 -111q33 -69 47 -114q7 -4 16 -24q27 -57 64 -144q41 -97 67 -144q29 -51 34 -51q6 0 6 -2q-1 -1 -1 -4q0 -2 1 -3l11 12v34q-5 2 -13 8q1 11 1 34q0 28 -4 69t-4 69t6 38q-13 13 -13 35q0 8 5 43t5 48q0 20 -6 57q-5 42 -5 57q0 60 11 98 q-1 8 -3 18q13 49 21 112q2 0 14.5 7t17.5 7q3 0 10 -2.5t9 -2.5q0 -2 3 -13t3 -15q0 -16 -14 -22l9 -3q-20 -51 -20 -78q0 -6 1.5 -24t1.5 -24q0 -2 -10 -9l9 -3q0 -22 -13 -29q12 -13 12 -36q0 -7 -3 -30t-3 -30q0 -14 4 -23q-5 -17 -5 -35q0 -23 7 -58t7 -57 q0 -23 -10 -33v-75q0 -4 7 -10t7 -7v-3q0 -16 6 -49q6 -35 5 -50q11 -21 13 -112z" />
<glyph unicode="O" horiz-adv-x="576" d="M502 650l5 -12h-6l-5 10zM527 487q-2 -1 -13 -8q1 -3 7 -13l-4 2l-7 -6l7 -6q1 1 3 1q3 0 3 -4q0 -6 -9 -12l9 -9q-5 -3 -5 -17q0 -51 -32 -173l-34 -75q-3 -7 -24 -33q-15 -20 -14 -36q-10 -7 -26 -31q-15 -21 -35 -30q-4 -1 -2 -5q-1 -7 -12 -7q-4 0 -7 -4t-5 -4 l-12 -13q-8 1 -16.5 -6t-9.5 -15q-6 1 -21 9l-3 -5l5 -7q-4 0 -14 3.5t-14 3.5t-12 -8l-12 5h-19q-10 8 -20 8q-7 0 -38 22q-30 23 -37 30q-34 32 -57 99q-22 60 -22 114q0 38 25 125q27 90 44 122l-3 5q74 151 80 161q48 83 116 138q-1 1 -1.5 5.5t-5.5 4.5q-22 0 -44 -7 q17 29 32 41v-1q0 -4 3 -7l3 8h14q37 0 70 -24q46 -34 59 -40q7 -11 21 -19q-6 1 -6 -3l6 -4l-8 -9l7 -6q3 3 10 7l-4 -9q5 -5 8 -6q0 -7 7 -20q7 -11 11 -19q8 -24 32 -80q3 0 4 3l-3 5q4 -3 4 -6q0 -4 -9 -9q4 -2 17 -2q-4 -12 -2 -20q0 5 -5 17q-5 -5 -14 -11 q3 -2 6 -11.5t5 -11.5q3 3 3 5t-3 5q4 -2 9 -6l-3 -2q5 -5 11 -4q-6 0 -11 -5v-37q5 -5 10 -8h-1q-4 0 -5 -4q6 -4 6 -9q0 -4 -6 -13zM485 526q-11 16 -18 54q-8 39 -18 55q1 7 6 21q-17 11 -38 48q-24 40 -36 51q0 -17 -8 -17t-23.5 7.5t-22.5 13.5q-29 -19 -61 -48 q-1 -1 -8.5 -13.5t-9.5 -16.5l-9 -12q-7 -8 -13.5 -13t-14.5 -8q2 -8 2 -11q0 -16 -27 -22q-5 -25 -22 -35l7 -6q0 -1 -2 -1l-53 -113q1 -1 1 -3q0 -13 -18 -47q1 -3 1 -8q0 -18 -12 -68t-12 -68q0 -122 94 -204q18 -14 38 -27q2 -1 21 -1l8 -9q59 13 69 13q35 0 86 74 q45 65 56 106q24 92 37 198q-3 3 -3 18q0 16 3 92z" />
<glyph unicode="P" horiz-adv-x="638" d="M662 414q-3 0 -9 2q-1 0 -1 -2t8 -10q-18 -9 -47 -16q-27 -6 -47 -21l-9 8q-3 -3 -3 -5q0 -3 4 -6h-1q0 1 32 15l3 3q0 1 -1 1q-4 0 -6 -3t-3 -7v-4q-2 6 -12 6l5 5q-1 3 -7 3q-4 0 -6.5 -1.5t-3.5 -2.5l-2 -1l-10 -9q-10 -1 -43 -8q-32 -6 -34 -15l-11 9 q-20 -23 -36 -23q-21 0 -21 -3l1 -1q0 -2 1 -2q-26 -4 -118 -48q-90 -42 -91 -42q-10 0 -25 -16q-14 -17 -14 -27l9 -64l1 -1v-1v-1v-1q12 -36 12 -44q0 -4 -15 -31q-14 -28 -14 -48q0 -22 13 -49q14 -30 14 -34q0 -7 -12 -24q-14 -17 -16 -21l-7 -5q-4 -1 -15 -6q2 18 2 30 q0 5 -2 43t-2 42q0 34 10 50l-9 4q1 9 1 32q0 3 -0.5 11t-1 23t-0.5 30q-1 29 1 65q-7 7 -11 7q-5 0 -19 -4.5t-18 -4.5t-16.5 6.5t-16.5 6.5q-6 6 -6 14q0 19 43 38t43 27q-4 6 -3 10l27 455q-2 1 -11 8q-8 -6 -13 -11q-45 -11 -45 -57q0 -8 5 -16q0 -1 -11 -12 q-6 6 -40 30q-27 21 -27 36q0 16 34 47t50 34l33 7q24 5 37 7.5t33.5 5t38.5 2.5q4 0 4 -1l-3 -6l3 -2l5 1v1q10 7 18 7q4 0 13 -2.5t11 -2.5l9 -9h6q13 0 23 -7t11 -7q4 0 4 2l-4 5l5 3l72 -34q2 -6 9 -17l4 5l-5 8q38 -9 96 -61q63 -56 63 -88q0 -5 -5.5 -14.5t-5.5 -10.5 q3 -13 3 -25q0 -46 -58 -110l-94 -93q3 0 6.5 -1.5t8.5 -2.5l10 -3q5 5 5 13l5 -8q44 30 94 41l103 15q1 1 2 1q10 -11 13 -12zM536 538h8v16h-8v-16zM534 599q0 11 -16 33q-17 25 -25 31q5 5 3 8v2q-3 -4 -10 -4q-123 78 -132 78q-7 -4 -14 -5l-8 9q-64 18 -114 18 q-8 0 -21 -5q-14 -8 -14 -15t8 -20q10 -16 10 -17q1 -40 0 -99q-1 -24 -20 -102q-17 -73 -17 -92q0 -6 2 -27t2 -28q0 -26 -7 -34q0 -16 6 -34q3 3 10 3q6 0 9 -3l5 9l3 -9q9 18 27 18q6 0 22 10q20 13 21 13q18 19 54 41q42 25 57 38q19 20 60 57l5 -9l57 63q37 41 37 72z M514 505q-44 -46 -77 -66l2 -4q-56 -38 -67 -47q-40 -30 -57 -54q15 3 52 26l11 -5v8q-1 6 4 11q-1 0 -1 -8q2 -2 5 -2q4 0 4 2l-4 5l5 3q5 0 52 43q54 49 60 54v2q0 5 11 32zM307 335l13 5l-2 7l-11 -5v-7z" />
<glyph unicode="Q" horiz-adv-x="576" d="M545 618q0 -41 -20 -132q-5 -15 -9 -46l-12 -41q-7 -28 -17 -36q-7 -64 -33 -73l8 -3q-42 -121 -132 -203q-8 -6 -18 -24q-10 -17 -10 -26t14 -45v-3q-1 -7 1.5 -30.5t2.5 -28.5q0 -11 -3 -19q2 -7 7 -15q-1 -36 7 -135q-7 19 -36 134q-24 97 -39 118q-3 -5 -10 -9 q0 2 -2 2q-5 0 -13 -14h-26q-6 -2 -1 -7l-9 11l-7 -8l3 -4q-1 3 -13 3q-5 0 -5 -3q1 0 1 -1q0 -5 -5 -5q-4 0 -4 2l4 5q-2 2 -4 2q-5 0 -5 -1l1 -1q0 -2 -5 -2q-3 0 -8 1l-10 3l-4 1q1 0 1 1q-3 1 -8 3.5t-8 3.5q-13 0 -39 22q-21 18 -34 36q-10 17 -21 48q-10 31 -10 54 q0 22 10 29q0 79 39 139v2q0 17 35 76l-3 5l10 17l14 28l14 29q59 123 122 211q100 142 174 142q4 0 10 -6t7 -6q47 -28 67 -63q13 -24 14 -41q-2 -1 0 -3l2 3q2 3 4 3q4 0 5 -6q6 -20 6 -94zM506 581q0 25 -13 70l-21 69q-1 2 -5 6.5t-7.5 9t-7.5 8.5q-14 -8 -23 -22 q-15 15 -15 30h-20q-25 -20 -63 -58q-13 -14 -37 -42q-22 -25 -31 -47q-41 -44 -90 -136q-4 -6 -13 -10q-7 -52 -55 -129v-2q0 -13 -10 -37q-11 -25 -19 -32q5 0 5 -4q-14 -42 -14 -73q0 -44 12 -66q5 -12 32 -45q29 -35 37 -35q2 0 8 2t9 2t3 -1l-4 -6l3 -1q5 0 23 2t23 2 q9 0 26 11q18 11 24 12q-8 10 -8 31q0 14 -7 38t-7 38q0 11 5 16q-14 104 -14 106q0 11 11 23t22 12q22 0 28 -24q10 -37 13 -40q0 -160 -3 -166q50 29 113 140q5 19 25 52q0 18 6 36l12 35q47 174 47 225zM163 499h16v8h-16v-8z" />
<glyph unicode="R" horiz-adv-x="746" d="M790 -70q-1 0 -7 -14q-59 -30 -75 -30q-4 0 -4 1q0 -3 1 0q1 2 2 7q-1 1 -4 1t-10 -2.5t-9 -2.5t-2 2q-8 8 -14 8q-3 0 -10 -2.5t-9 -2.5q-10 0 -25 7q-12 5 -21 7q-3 1 -3 2q0 -5 3 6q-2 2 -4 2l-15 -5l-10 10q-1 -1 -12 -1q-20 0 -90 64q-2 0 -5 -1t-5 -1 q-4 0 -14.5 12t-13.5 12q-16 16 -67 62q-39 37 -57 70q-21 6 -55 45q-40 46 -55 55h1q4 0 4 10q0 6 -12 24l-16 23q8 20 38 42l48 34q43 35 277 200q2 2 2 3t-4 4q43 47 73 90q-7 9 -39 37q-32 27 -39 27q-4 0 -7.5 -4.5t-6.5 -4.5q-5 0 -12 5q-3 3 -7 6l-4 3l-10 -10 q-1 1 -4 7q-2 3 -8 3q-5 0 -18 7t-17 7q-8 -2 -24 -5q-5 0 -5 1l1 1q0 1 -4.5 3t-13.5 5l-11 4q-12 0 -19 -4l-9 9l-10 -9q-5 5 -29 4l-10 10h-22q-5 0 -6.5 -2.5t-2.5 -2.5l-10 -9q-1 2 -4 6q-2 3 -8 3q-3 0 -3 -1l5 -7q-1 -1 -4 -1q-6 0 -14 9l-9 -9h-53l-27 -7q0 4 3 -6 l-4 -2q-5 0 -5 2q1 1 1 2q1 2 1 3t-2 3l-8 -9q-17 0 -46 -16q-29 -15 -32 -29q3 -4 3 -15v-16q-14 9 -32 9q-4 0 -20 9.5t-20 9.5l-11 -4q0 1 -3 8.5t-3 12.5q0 20 58 51q53 30 78 33q11 0 85 10q52 7 84 7q4 0 14 -4.5t14 -4.5h96q4 0 14 -5t13 -5q32 0 94 -28q4 1 14 5 q6 0 57 -24l62 -29l16 -15q-16 -30 -26 -59q-19 -10 -82 -88q-61 -73 -74 -73q-5 0 -6 1q1 1 3 5q0 1 -2 3q-15 -23 -86 -80q-71 -56 -88 -56q-11 0 -31 -20q-19 -19 -19 -30q0 -20 163 -201q36 -30 77 -71l8 -9q-2 4 -2 5q0 4 6 5q85 -81 107 -81q5 0 31 -14 q13 -7 22 -10.5t11.5 -4t3.5 -0.5v-1q0 -1 5 -3t12.5 -4.5t10.5 -4.5h33q5 0 23.5 8t21.5 8zM186 664q0 -18 -5 -60q-5 -44 -6 -60q-1 -9 0 -25q1 -12 1 -24q0 -32 -13 -45l9 -5q5 -3 5 -10t-9 -23t-15 -19q16 -15 16 -19q0 -84 -6 -94l9 -4q0 -40 -4 -100h-2q-4 1 -6 -2 t-2 -8q0 -8 11 -54q12 -44 12 -63v-49q-4 -4 -8 -4q-3 0 -7 3q-12 -24 -18 -24q-2 0 -3.5 1t-2 1.5t-2 1.5t-3.5 1q-9 0 -10 -1l4 -4q-10 79 -10 276q0 38 -7 62q0 5 3 19q-6 6 -6 11l8 5q-1 11 -1 34q0 9 2 81q3 54 3 81q0 6 4 24t4 23q0 7 -1.5 31t-1.5 31q0 45 10 56 q15 7 37 7q2 0 6 -1q0 -5 2.5 -25t2.5 -26zM581 726h8v13h-8v-13z" />
<glyph unicode="S" horiz-adv-x="633" d="M687 404v-26q-14 8 -42 10q14 -1 -1 -1h-43q-4 0 -4 2q0 -3 1 -1q0 2 1 6q-2 2 -5 2q-4 0 -12 -6.5t-11 -6.5t-9 4.5t-9 4.5q-18 -6 -19 -6l5 -6q-6 7 -14 7q-4 0 -18 -7t-18 -7q-20 0 -20 -1l5 -6q-2 -2 -4 -2q-5 0 -5 2h1q0 3 -5 3q-3 0 -9 -4.5t-9 -4.5q-23 0 -67 -35 q11 -23 27 -122q14 -95 14 -121q0 -25 -23 -74q-21 -44 -43 -70q-8 -8 -39 -28q-29 -19 -39 -19q-3 0 -9.5 -4.5t-11.5 -4.5q-2 0 -3.5 1t-2 1.5t-2 1.5t-3.5 1q-4 0 -9.5 -7t-9.5 -7t-4 2l4 5q-2 2 -4 2q-4 0 -7 -2t-7 -2h-23q-5 0 -23 4.5t-24 4.5l-10 10q1 0 1 1 q0 3 -8 3q-1 0 -14 9t-14 9q-5 0 -32 37q-4 5 -31 46q2 8 2 14l-1 15l-4 5q0 5 13 14l-8 3v3q0 22 10 31l-4 -2q-2 2 -2 6q0 25 62 93t91 66q11 17 73 60q58 40 58 47q0 5 -7 15.5t-7 12.5q0 4 5 9q-27 56 -27 74q0 13 4 22q-5 5 -13 5q11 1 12 9q0 1 -5.5 3t-10.5 3l-5 2 q0 3 4.5 16t4.5 18l-21 59q-21 59 -21 83q0 3 3 10t3 9q4 35 5 42q26 143 115 143q49 0 78 -44q26 -38 26 -89q0 -28 -18 -67t-40 -55q-8 -3 -22 -20q-4 4 -12 4q-4 0 -22 -4t-24 -4q8 12 35 30q24 17 31 32q21 54 21 82q0 19 -9 47q-12 33 -27 33q-10 0 -25 -12l3 -5 q-8 3 -13 8q-48 -58 -48 -126q0 -34 29 -173q31 -151 51 -151q4 0 43 9q191 46 194 46q15 0 41 -10q29 -9 40 -19zM362 112q0 39 -28 197l-11 5q-35 -18 -99 -57q-13 -9 -42 -37q-34 -30 -37 -36q-20 -31 -51 -70q4 -1 4 -5q0 -8 -16 -18q0 -50 -13 -69l51 -64 q33 -39 68 -39q4 0 13 -4.5t12 -4.5l23 6q75 15 103 70q23 44 23 126z" />
<glyph unicode="T" horiz-adv-x="605" d="M736 736q-8 0 -21 -15q1 24 -96 24l-12 -7l-24 -3q-1 1 -2 1t-2 1q1 1 1 3t1 3q-1 1 -5 2q-4 0 -4 -2l4 -6q-2 -2 -4 -2q-4 0 -16.5 2.5t-16.5 2.5q-1 0 -10 -3.5t-13 -1.5l-9 -9q-9 9 -19 9l-2 -1q-1 0 -7 -2l-11 -4q-20 -7 -31 -7q-1 0 -7 2.5t-7 2.5q-3 0 -10 -2.5 t-9 -2.5q-19 0 -74 -28l-5 2q1 0 1 1q0 2 -5 2q-15 0 -13 -34q1 -16 1 -20q-11 -24 -11 -46q0 -11 3 -17q-8 -40 -8 -47q0 -12 3 -24q-17 -146 -20 -504q-3 -1 -9 -1l-40 1q-11 20 -11 89l-2 6l25 541q1 37 -9 37q-8 0 -41 -16q-32 -16 -40 -16q-26 0 -44 -18.5t-20 -46.5 q-6 2 -9 2q-2 0 -10 -1t-10 -1q-10 0 -34 15t-24 24q0 5 17 28q21 27 22 28q211 72 223 72q2 0 8 -2l6 -2q7 0 9 11h7q8 0 16 12q14 -2 25 -2q20 0 62 5q47 7 62 9q124 11 161 11q4 0 6 -2.5t6 -2.5q64 0 95 -16q0 -7 13 -34z" />
<glyph unicode="U" horiz-adv-x="635" d="M635 185q0 -19 -12 -48q-21 -30 -26 -48q0 5 -4 9q-2 -25 -29 -60t-43 -35q-3 0 -12 -2l-28 -4q1 0 1 -1t-27 -7l-22 14h-9q-48 40 -74 115q-27 101 -35 134q-35 -69 -37 -75q-20 -42 -30 -79l-42 -60q-34 -49 -39 -49q-4 0 -25 -18q-18 -18 -37 -20l-9 -9q-8 9 -34 20 q-30 46 -30 71v287q0 2 3 12t3 12q0 33 3 99q4 59 4 99v117q0 17 18 24q20 8 29 12q0 -3 9 -16.5t9 -22.5l-5 -57q1 1 2 1q4 0 4 -9q0 -46 -16 -222q-1 -14 -3 -36l-4 -36q0 -2 1.5 -8.5t1.5 -8.5q0 -12 -11 -25q13 -12 13 -69q0 -42 -5 -77q4 -9 7 -54q2 -33 23 -52 q11 5 16 23q23 4 40 48q1 -1 5 -1q6 0 7 7q-2 5 -9 5q1 1 2 1q3 0 4 -3q29 43 59 110l50 115q21 45 35 93q6 17 31 134q18 84 40 130l21 68q17 42 50 42q11 0 20 -21q8 -18 8 -31t-21 -66q-4 -11 -14 -34t-14 -34q-14 -35 -42 -151q-2 -4 -7 -10q-5 -21 -13 -63 q-7 -38 -7 -63q0 -23 7 -30q-2 -8 -2 -17q0 -55 21 -128q34 -82 81 -82q23 0 48 37q79 110 89 120q12 -6 12 -17z" />
<glyph unicode="V" horiz-adv-x="476" d="M467 815q0 -7 -31 -81q-2 -7 -11 -41q-2 -9 -18 -34q-12 -21 -12 -35q0 -2 2 -8q-3 -10 -17 -32q0 -2 -2 -11.5t-5.5 -28t-6.5 -38.5q-7 -44 -22 -74q-10 -6 -11 -12q-17 -57 -17 -80l-2 -3l7 -4q-28 -53 -28 -57v-81q-6 -4 -11 -9q-1 -17 -6 -56q0 -2 -3.5 -14 t-10.5 -41l-15 -58q-13 -6 -18 -26q-4 -27 -8 -32q-69 41 -111 212q-13 51 -13 53q0 6 8 14l-9 6l4 4q-10 15 -22 102l-12 48l3 9q-23 116 -28 296q-1 7 -6 32t-5 33q0 18 33 31q8 0 14.5 -11t6.5 -22q0 -5 -2 -11q8 -9 18 -9l-9 -10l9 -4q0 -8 5.5 -33t5.5 -29l-1 -99 q0 -17 4 -29q-14 -12 -14 -37q0 -7 5.5 -29.5t5.5 -26.5q0 -6 2 -56q0 -5 7.5 -24.5t7.5 -26.5q0 -11 -9 -20q10 -8 12 -10v-3q0 -19 10 -49q11 -32 9 -50q8 -14 18 -57q8 -36 24 -54q1 0 12 7l-9 4q14 27 29 83q15 58 28 83q0 20 11 56q5 15 9 29l6 21q2 6 2 7 q21 95 65 220q46 135 85 207q-2 3 0 9v11q17 2 19 0l5 10q13 -13 13 -31z" />
<glyph unicode="W" horiz-adv-x="616" d="M436 -14l-2 6v5q1 2 1 5l-11 -11q3 -3 12 -5zM588 808l-7 -32q-19 -109 -21 -112q-17 -74 -37 -104l1 -12q0 -7 -11 -75q-11 -65 -15 -77q2 -30 2 -39q0 -14 -2 -30l-5 8q-6 -2 -14.5 -13t-8.5 -16t9 -5q13 0 20 4q-24 -25 -28 -77v-85q-12 -21 -24 -98q-10 -73 -20 -81 q-2 0 -10 -2t-10 -2q-15 0 -27 21q-12 19 -10 35q-18 41 -25 100q-3 27 -6 50l-5 38l-2 15q-5 43 -26 151q-7 21 -7 92q0 11 7 15l-7 4l-5 -2q1 13 1 20q0 13 -4 18l2 -1q2 -1 3 1t1 6q0 5 -7 33l-9 52q-7 37 -19 44q-16 -58 -42 -138l2 -7q-6 -13 -7 -34q-1 -12 -1 -36 q0 -1 -11 -24q0 -6 10 -39q-2 -2 -8 -6l-9 -6l8 -3q-8 -5 -8 -18q0 -5 4.5 -27t3.5 -29h5q0 -1 -1.5 -4.5t-4 -12t-5.5 -17.5q0 12 -7 13q-6 -10 -6 -15q0 1 2.5 -2t8.5 -11q-8 -6 -13 -9l8 -3q0 -4 -8 -9q17 -26 17 -49q0 -11 -5 -29q-9 -25 -9 -28q0 -24 -11 -79 q5 -5 7 -12l-2 -3l-11 21q-9 -22 -9 -23q0 -9 6 -13q-12 -15 -19 -15q-19 0 -45 62q-17 42 -26 83q-12 68 -18 171l-9 171q2 30 -4 80l-5 18v130q6 18 49 19l22 -27v-17q0 -4 -5.5 -11.5t-5.5 -9.5q-5 -35 -5 -109q0 -2 1 -12t1 -14l-1 -1q-2 -2 -4 -4.5t-2 -5.5 q0 -18 7 -49q8 -35 7 -49v-27q-1 -24 2 -73q5 -60 11 -66l-6 -3l17 -22l-12 -13q9 -5 4 -8q5 -10 10 -15l70 421q1 11 35 101l20 60q18 43 38 43q13 0 18 -20q6 -20 19 -24v-19q0 -4 1.5 -18.5t1.5 -18.5q0 -2 -3 -12t-3 -13q0 -21 9 -63q9 -40 9 -62q0 -2 -2 -11t-2 -11 q0 -16 7 -40q8 -33 9 -40q2 -16 2 -93q0 -34 23 -126v-35q0 -13 13 -33q-1 -5 -9 -13q11 -11 19 -11q6 19 19 84q27 133 45 252q4 35 21 97q20 77 23 97q5 55 23 139q6 17 18 20q13 4 20 7q0 -1 7 -14.5t7 -18.5zM187 167h6l-5 12l-6 -2zM132 165l6 4l-10 15l-5 -4z" />
<glyph unicode="X" horiz-adv-x="646" d="M308 347h-7l-5 10l6 3zM627 802q-28 -2 -50 -45l-34 -66l-17 -21q-13 -14 -21 -16l-52 -77l5 9q-5 15 -5 4v2q0 4 7 4q1 0 3.5 1t4.5 2l1 1l1 5q0 3 -7 6q5 4 11 13t20 15q-9 18 -22 28l-15 -46q-9 -26 -23 -43l-9 13q-3 -5 -3 -10q0 -7 5 -15q-24 -14 -85 -131 q2 -13 20 -45q24 -43 26 -50q2 -8 5 -24t5 -24q6 -27 24 -42l-9 -9l82 -118q46 -70 69 -124q-4 1 -18 8q-1 -5 -9.5 -18.5t-8.5 -16.5l1 4l-6 4q-18 2 -46 53q-26 48 -27 70q-34 41 -52 85q-19 49 -23 57q-4 6 -11 18.5t-9 16.5q-11 21 -13 37l-7 -7q-1 21 -22 45 q-5 -7 -8 -10.5t-5 -2.5l-9 4q-11 0 -12 -31q-9 1 -18 -10t-10 -21q0 8 -5 13q-11 -11 -13 -27l-5 9q-3 -3 -3 -8q0 -4 3 -7l-4 1l-8 -5q-111 -181 -126 -181q-2 0 -10 -9.5t-12 -11.5v-3q2 -3 -9 -21q-7 0 -7 11q0 8 20 39q22 31 30 38v6q0 2 1 7q17 15 41 59q22 41 39 58 q5 27 35 72q46 69 47 70l9 12q10 11 10 16q0 4 -36 68q-40 72 -43 76q-11 15 -49 59q-41 49 -41 53q0 10 9.5 21.5t18.5 7.5l14 14q37 -37 86 -113l76 -119v3q0 2 1.5 4t5.5 2q125 197 187 283l-3 5l30 51q17 26 47 26q6 0 21 -26q4 -7 11 -20.5t8 -14.5zM37 25q1 -2 1 -9 q0 -12 -9.5 -24t-9.5 -14l-1 2q-2 1 -4 3.5t-2 5.5q0 6 11 20q14 15 14 16zM11 -20q-2 -6 -28 -53q0 2 -1 4q0 7 9 9l2 4l-8 8q19 8 26 28zM-24 -80v-8h-17v8h17zM-41 -91l5 -13h-6l-6 11z" />
<glyph unicode="Y" horiz-adv-x="529" d="M555 923v-36q-6 -4 -11 -9v-7q1 -27 -14 -61q-1 -2 -5 -9l-11 -20l-15 -27v-2q1 -14 -10 -35q-4 -35 -24 -61q1 -1 1 -5q0 -16 -7 -40q-7 -30 -9 -42l-5 10q-7 -10 -7 -16q0 -2 2 -8q2 -1 3 0.5t1 4.5q-15 -42 -29 -86q2 -5 7 -5q-16 -7 -16 -46q0 -12 3 -18 q-6 -17 -8 -60q0 -12 -0.5 -22.5t-0.5 -18t-0.5 -12.5t-0.5 -8v-3l-1 -5q-1 -4 -3 -14l-4 -21q-3 -18 -2 -44q3 -42 3 -45q0 -46 -14 -63q15 -13 15 -35q0 -11 -5 -41t-5 -41q0 -5 1 -9v-9q0 -16 -5 -24q5 -12 5 -24q0 -8 -16 -39l9 -4q2 -14 2 -28q0 -64 -20 -78 q6 -29 6 -50q0 -22 -17 -76l-24 -78q-8 0 -12 4q-1 0 -3 -2q7 -9 10 -9q1 0 3 2q-2 -8 -33 -72q-30 -65 -34 -69q-6 -7 -19 -20q-14 -16 -13 -22l1 -4q-2 2 -5 2q-2 0 -10 -4q-4 -5 -43 -46l-27 -21q-18 -15 -19 -25l-11 10q-7 -15 -35 -15q-4 0 -7 -3v-9l22 -3q4 0 7.5 7.5 t7.5 7.5l10 -5q12 0 12 7v1q0 -5 5 -10h1q0 2 -8 2q-4 0 -6 -2h1l-1 -1l-6 -3q-4 -2 -7.5 -3t-8.5 -3t-7 -3l-25 1h4q-7 -1 -10.5 -3.5t-2.5 -7.5q0 2 -3 2q-1 0 -9.5 -3.5t-12.5 -3.5q-5 0 -25 20q-1 0 -12.5 -12.5t-16.5 -12.5q-4 0 -12.5 5t-12.5 5q-5 -1 -15 -5l-11 10 q-11 1 -19 6l-4 5q-4 4 -5 4q-5 0 -5 -2q0 4 1 -1q1 -2 1 -5q-2 -2 -5 -2t-8 5t-8 5q-4 0 -12 2.5t-10 2.5l-14 15q-3 0 -6.5 5t-7.5 5q-7 0 -7 -3l3 -7q-5 3 -13 10l-36 22q-20 11 -37 29q-19 27 -85 104q2 4 2 8q0 9 -9.5 25t-17.5 21q2 2 5.5 8t4.5 7q-20 10 -34 63 q-13 47 -9 75q-12 16 -12 40q0 13 7 38q8 26 6 41q3 3 8 15q4 23 5 28q14 45 53 81q37 36 84 50q-5 -11 -29 -34q-30 -32 -32 -35q-13 -15 -27 -49l-22 -52v-6q0 -6 -1.5 -23.5t-1.5 -21.5q0 -6 5.5 -26t5.5 -26l-16 -15q5 -5 19 -3v-8v-3q0 -2 0.5 -4t0.5 -6v-8 q0 -4 0.5 -9.5t0.5 -11.5q18 -22 37 -68q24 -62 29 -70q11 -13 24 -40q32 -32 103 -91q38 -26 55 -26q5 0 5 -3v-2q-1 -1 -1 -2q0 -2 6 -3l6 3q7 2 9 2q3 0 9.5 -5t10.5 -5q18 0 18 -2l-1 -4l2 -3l4 9q4 -4 26 -4q14 11 30 14h38q2 0 10 2.5t10 2.5q35 0 104 69 q60 60 83 103q44 82 62 158q13 54 22 171q3 80 5 103q0 5 3 25q1 11 1 25q0 10 -2 80q-1 35 -1 79q0 17 4 46q2 36 1 47h1q6 0 6 10v97l-12 14q-43 -62 -41 -97l-31 -77q-21 -49 -44 -66l9 -3q-14 -28 -50 -67q-40 -46 -63 -46q-8 0 -35 15q-27 16 -28 22q-1 2 -10 63 q-8 62 -8 64q0 24 4 119q-12 9 -12 36q0 5 2 5q1 -1 3 -1q3 0 3 150q0 34 4 63q0 1 2 11.5t2 13.5l-2 3q-1 2 -2.5 6t-1.5 8q0 7 3.5 29.5t3.5 26.5q1 0 8 11q4 7 10 7q10 0 22 -16q16 -20 20 -24q7 7 10 13q0 -3 2 -15t2 -15q0 -19 -8 -73t-14 -70q6 -2 15 -9v-71 q0 -2 -18 -54q0 -2 2.5 -8t2.5 -8q0 -14 -11 -27l9 -4q0 -53 11 -174q1 -2 3.5 -6t3.5 -7l3 2q4 -2 12 -2q31 0 84 104q1 1 59 135q13 31 48 100q0 1 0.5 3.5t1 5.5t0.5 6q23 25 37 152q0 4 10 168q5 67 32 144q10 29 37 69q31 46 56 46q4 0 4 -7q0 -2 6 -3q1 0 5 1.5t6 2.5 q-1 1 -2 -2t-2 -9q23 -44 29 -49zM226 -653l5 -5l-12 -12l-5 5zM467 789q-3 3 -7 3q-5 0 -11 -3q-12 -25 -12 -49q0 -13 8 -13q6 23 22 62zM435 708h9v19h-9v-19zM-335 -474q-6 0 -10 7q-4 -4 -6 -14q7 7 16 7z" />
<glyph unicode="Z" horiz-adv-x="721" d="M162 120l7 -2l-6 -12l-6 3zM153 80v-14q-6 7 -10 7q8 0 8 20q2 -4 2 -9v-4zM129 53q-4 4 -9 4h-1v-22q12 11 12 18h-2zM756 360q-10 -9 -75 -39q-67 -32 -88 -45q-1 0 -4 -3l-10 -10l-14 -12q-14 -13 -33 -16l3 -3q-9 -2 -20 5q-6 -14 -13 -14l-5 -2l1 -2q-2 -3 -5 -5 l-6 -2q-3 -1 -2 -2l-18 -18q-7 5 -23 4l-1 -3q1 -3 7 -3q-4 -1 -21 -16q-16 -14 -21 -14q-11 0 -29.5 -8t-27.5 -15q-3 -3 -16 -20q-11 -15 -17 -15q-4 0 -12 -4.5t-10 -4.5q-11 -6 -32 -27l-9 9l-3 -4l5 -8q-28 -25 -65 -46q-138 -135 -178 -251l-11 1l-5 -2q2 13 -12 27 l-10 -9q-6 6 -6 16v2q1 2 2.5 7t2.5 9q-1 2 -1 8q0 24 35 77l52 73q4 4 18 38q10 24 26 33l-9 3l98 220q18 35 51 105q1 4 4.5 15.5t5.5 17t5.5 14t8.5 13t11 7.5l-9 3q17 44 37 65q3 36 27 81q33 58 39 75q0 1 -2 3q-14 0 -17 -3l3 -4l-9 7q-5 -5 -17 -5l-9 -9 q-15 2 -51 -15q-33 -16 -52 -16l-9 -9q-3 0 -58 -19l4 -5l-5 -3q-2 0 -7 2t-7 2q-7 0 -16 -19q5 -10 18 -23l-14 -16q-20 0 -59 24t-39 41q0 16 63 43q60 27 81 27q8 0 16 -9q15 15 20 19q15 12 24 12l4 -1l-3 -6l4 -2q25 12 81 34q74 22 127 51q30 19 112 59l5 -26l-18 -8 q10 -21 33 -21l6 3l-8 -11q-15 1 -33 -13q-16 -13 -27 -13q-1 -2 -4 -5q-5 -5 -9 -5q-5 0 -45 -46q-2 -4 1 -12l-5 9q-5 -5 -7 -12l2 -4l-9 7l-3 -6l3 -5l-6 2l-6 -1q-13 -16 -43 -65q-9 -24 -29 -53l3 -6l-26 8q0 -2 1 -7t1 -6q0 -6 -8 -19q-9 -16 -10 -20l3 -15 q10 10 32 53v-16q-6 -11 -24 -28q-1 -1 -4 -29q-15 -13 -34 -62l1 1v-1l-1 -1l-3 -6q-3 -6 -3 -14l-12 5q8 10 23 44q-18 -10 -22 -22q-2 -10 -2 -32q-3 3 -6 3h-3l-15 -27l7 -4q-8 -8 -23 -15q4 -3 4 -10q0 -6 -36 -89q-33 -78 -43 -104l-12 -23q-7 -14 -7 -25q0 -12 7 -25 q183 139 515 310q23 10 97 31q0 3 0.5 -8t0.5 -21zM263 337l4 -5l-11 -11l-4 5z" />
<glyph unicode="\" horiz-adv-x="476" d="M310 148l60 -220q-8 -10 -13 -21q-2 2 -3 2q-6 -3 -10 -3q-6 0 -27 23l-28 30q15 7 15 21q0 16 -13 29q-3 45 -22 107q-22 75 -29 106q-10 50 -42 264l-14 93q-1 4 -4 4l-5 -2q3 9 3 18q0 37 -12 89l-21 87q-13 52 -13 56q0 18 23 18q27 0 34 -15q4 -5 8 -38l56 -359 q6 -53 27 -179z" />
<glyph unicode="^" horiz-adv-x="426" d="M353 566q-3 0 -9 7q-5 -8 -11 -8q-4 0 -18 14l-9 9l-6 6l-2 3h-4q-2 0 -14 6q-8 10 -37 27q-29 19 -40 19q-16 0 -58 -49l-52 -65h-18q-16 0 -16 30q0 13 60 78q61 64 76 64q16 0 72 -41q58 -41 68 -57z" />
<glyph unicode="_" horiz-adv-x="707" d="M529 -20l31 -42q-2 -10 -12.5 -22.5t-16.5 -12.5q-8 0 -37 2.5t-37 2.5q-2 0 -8 -4.5t-8 -4.5q2 0 -6 -1t-28.5 -3t-47.5 -4q-2 0 -19.5 -5t-24.5 -5q-11 0 -36 -7t-35 -7q-2 0 -6.5 2.5t-6.5 2.5q-3 0 -8 -7t-7 -7h-54q-3 0 -25 16q1 1 1 3q-4 10 -4 15q0 3 11 34v-1 q0 -4 7 -4q4 0 11.5 6.5t7.5 10.5q0 1 -2 5q3 -3 23 -4q17 -2 20 -13q3 4 16 4q20 0 63 10q44 9 59 8q1 -3 6 -13q8 11 52 20q35 7 61 7q43 0 60 18z" />
<glyph unicode="`" horiz-adv-x="302" d="M201 544l-12 -12h-16q-2 0 -13.5 5t-17.5 5l-11 11l-32 20q-65 49 -80 109q34 17 43 17q6 0 23 -30q14 -24 21 -37q8 -11 53 -46q41 -33 42 -42z" />
<glyph unicode="a" horiz-adv-x="502" d="M90 102v13h-8v-13h8zM521 197h18q-9 -16 -22 -62q-12 -39 -33 -69l-2 1q-7 -4 -20 -14q-16 -12 -22 -12q-4 0 -7.5 -5t-5.5 -5q-29 -32 -28 -38q-2 0 -10 2t-11 2q-2 -1 -7 -3l3 -7l-12 10l1 1q-1 4 -7 4q-3 0 -9 -3l3 -7l-47 40q-60 63 -74 178q-9 -7 -10 -14l1 -4 q-3 4 -7 4l-6 -1l-8 -12q7 -8 19 -10q-19 -12 -34 -43l-24 -50q-11 -14 -31 -42q-21 -29 -22 -45q-20 -11 -50 -11q-40 43 -40 64q0 42 125 221l-3 6l69 90q43 55 85 70q6 -16 20 -27q-13 -30 -8 -60q-20 -69 -20 -119q0 -45 21 -101q25 -70 62 -70h29q16 0 124 141z M203 285h7l-6 15l-7 -3zM150 214l12 12l-5 5l-12 -12zM130 176h8v18h-8v-18zM208 246q0 6 -7 13q-1 -4 -10 -19l-3 1q-6 -3 -11 -4l4 -3v-2q-2 -1 -12.5 -16t-22.5 -18q2 -6 2 -7q0 -21 -30 -32l4 -10l-2 -4l-7 8q5 6 13 26q-1 0 -8 -2t-9 -1q0 -6 -8 -24t-8 -24l5 -13h-4 q0 -27 -10 -36q10 -11 18 -13q15 25 47 73q27 41 38 78q6 17 21 29z" />
<glyph unicode="b" horiz-adv-x="371" d="M335 355q0 -16 -5 -51l-4 -23q-2 -12 -3 -18.5t-1 -8.5q-2 -13 -12 -23q-2 -20 -14 -51q-12 -33 -12 -50q-19 -22 -58 -80q-12 -3 -36 -37q-22 -34 -45 -34q-3 0 -9 -3t-10 -5.5t-4 -0.5l3 -5q0 -2 -4 -2q-7 0 -26 11q-24 14 -26 15l-20 52q0 4 3.5 13t3.5 11 q11 59 58 127q52 74 103 82l-62 -86q-5 -7 -14.5 -34t-13.5 -33q1 -3 1 -9q0 -7 -7 -29t-7 -26q0 -10 9 -22h12q29 19 53 54q27 42 45 57q6 17 10.5 33.5t7 23.5t2.5 8q14 39 27 62v3q2 22 2 50q11 19 11 33q0 1 -5 13t-5 16q0 7 5 12q-6 6 -22 27q-2 0 -3 1h-3 q-10 0 -10 -12h-6q-40 2 -96 -111q-29 -59 -83 -110q-2 2 -35 21v92q0 3 1 7.5t3 8.5t2 5v51q0 11 5.5 33t5.5 23q0 2 -4 11.5t-4 13.5q0 6 2 34q0 7 0.5 15.5t1 13t0.5 6.5q5 98 8 116q12 74 47 101q7 -5 17 -11q1 -2 8.5 -12t13.5 -23t6 -28q0 -4 -3 -7.5t-10 -10t-8 -7.5 q-3 -3 -7 -26q-5 -21 -15 -25l9 -3v-18q-6 -6 -6 -45q0 -6 -8 -21.5t-8 -19.5q0 -15 13 -25q-9 -8 -11 -19q-2 -13 -5 -21q9 -12 9 -22q0 -13 -11 -18q0 -1 2 -6.5t2 -9.5q0 -2 -2 -12q1 -4 0 -11q3 -2 2 -20q1 0 12 -7q26 50 69 98q56 62 95 62q22 0 47 -34q25 -33 23 -56 q0 -4 -0.5 -7.5t-1 -5.5t-0.5 -3q0 -7 2.5 -12t2.5 -6z" />
<glyph unicode="c" horiz-adv-x="429" d="M438 276l-54 -81q-16 -19 -51 -70l-15 -12q-3 -5 -3 -21q0 -7 -7 -7q-4 0 -4 2q1 1 1 3t-1 3q-2 -2 -8 -7l-10 -8q-3 -3 -8.5 -8t-8.5 -8l-7 -9q-4 -5 -6 -10t-3 -10q-19 -1 -15 -15q-6 0 -13 7q-7 -9 -6 -22q-19 -7 -24 -19q-1 0 -12 7l-1 -3q-2 -2 -4 -5t-4.5 -5 t-5.5 -2q-2 0 -9 2t-9 2q-4 0 -8.5 -4t-6.5 -4q-3 0 -8 5.5t-8 5.5q-3 1 -3 -1l2 -2q1 -2 1 -3q-1 -1 -3 -1q-4 0 -4 1t2 3l1 2q-2 2 -3 1q-36 0 -62 35q-23 32 -23 69q0 73 84 202v2q0 11 19 40q18 28 20 37l47 67q36 51 38 64q4 23 17 28q32 -43 32 -47q0 -10 -10 -16 l5 -9q0 -3 -17 -66q-17 -65 -20 -71l-13 -27q3 -13 3 -26q0 -19 -7 -48q-7 -31 -6 -48q1 3 -9 3q-5 0 -5 -1l1 -5q0 6 -2.5 29.5t-2.5 31.5q-4 4 -4 11q0 19 4 46q5 35 5 47q0 9 1 12l3 -1q2 2 2 6q0 11 -13 24q-5 -5 -5 -12q0 -6 3 -13q-13 -5 -17 -9q-8 -5 -11 -14 q-9 -24 -35 -66q-24 -39 -29 -63q-2 5 -9 19q-8 -8 -14 -8q-1 -1 -1 -2q0 -2 5 -5q-4 -3 -11 -20q-8 -18 -8 -20q0 -4 3 -4q-2 0 -13 -11q6 -9 10 -13l4 6l-2 4l8 -3l-1 6q0 8 3 15q13 13 13 32q-1 -1 -1 -2q0 -3 8 -3l-12 -12l8 -3q-7 -11 -9 -13l-15 -30v-4q0 -2 -3 -13.5 t-3 -15.5q0 -25 19 -47.5t43 -22.5h49q3 0 3 1l-1 2q-1 2 -1 3t3 2l4 1h-1q0 2 4 2q39 0 129 104q29 31 112 141q7 -2 10 -5zM206 395q2 0 2 5q0 7 -3 10q0 -9 -8 -9q5 -5 9 -6zM195 378q-10 3 -15 4q4 0 3 -10q3 3 12 6zM185 351l-9 10l-9 -10q5 0 5 -5l-1 -3q6 0 14 8z M155 315q-6 -6 -26 -21q3 -2 18 -8q0 13 8 29zM131 275h7v13h-7v-13zM133 268q-7 2 -14 6q-2 -10 -20 -44q3 -1 7 -3q-2 -1 -11 -8q3 -3 10 -5q5 15 28 54z" />
<glyph unicode="d" horiz-adv-x="534" d="M545 -42q0 -3 4 -7q-23 -7 -52 -39q-12 -5 -20 -5l-10 -9q-38 3 -57 5l-9 9q-8 2 -17 11l6 5q-6 7 -12 7q-27 0 -60 56q-30 49 -33 82q-1 3 -1 11t-1 11q-2 16 -7 20q-8 40 -8 149q-2 2 -6 2q-6 0 -17 -6l8 -5l5 3q-12 -17 -32 -69q-17 -41 -47 -60l10 -9 q-19 -34 -51 -83q-42 -65 -57 -65q-4 0 -7.5 5t-6.5 5q-20 0 -33.5 19t-13.5 42q0 29 34 97q28 57 52 94l74 115q43 58 104 92l36 103l27 76q8 24 11 32q23 75 65 117q6 -6 15 -18l-10 5l1 -27q1 -26 -5 -62q-8 -14 -14 -22l9 -4q-9 -13 -48 -126q-19 -60 -22 -67 q-4 -8 -4 -44q-2 -23 -8 -32q2 -9 3 -28q-18 -34 -18 -42t4 -12q-6 -9 -6 -23q0 -4 1.5 -15.5t1.5 -13.5t-4 -7.5t-4 -9.5q0 -3 4.5 -12t4.5 -12t-3 -15t-3 -15q0 -57 41 -127q44 -77 95 -77h13q32 0 58 13q29 12 34 12q6 0 10 -1q-4 0 -14 -13t-10 -16zM229 291l-70 -91 l3 -5q-16 -9 -17 -10l-18 -41q-14 -28 -27 -32q3 -12 6 -36q11 12 42 62q25 39 45 58q-5 0 -6 4q32 47 42 91z" />
<glyph unicode="e" horiz-adv-x="339" d="M258 -29l-10 -9l2 5q-1 4 -6 4q-4 0 -9 -4.5t-9 -4.5t-4 1l3 5q0 2 -4 3q-3 -1 -3 -2l2 -5l-4 -2v4h-25q-78 50 -104 86q-41 38 -42 90q-1 49 -3 58q-6 9 -6 27q0 41 12 99q7 39 44 89q42 56 76 56q22 0 43 -28q20 -26 22 -50l-5 -6q-1 -27 -11 -75q-6 -14 -62 -101 q-3 -3 -28 -31q-21 -22 -21 -32q0 -18 27 -64q28 -46 44 -46q3 0 5 -2q-1 0 -1 -1q0 -2 5 -3h4v-1q0 -2 6 -2q4 0 20 -4.5t21 -4.5q41 0 59 8q7 3 47 35l17 -20q-4 -11 -45 -39q-40 -29 -49 -29q-6 0 -8 -4zM197 351v48q-11 0 -20 9q-88 -79 -88 -144q0 -25 11 -50 q35 32 49 49q27 31 33 60q8 -1 11.5 6t3.5 22z" />
<glyph unicode="f" horiz-adv-x="347" d="M239 362q-1 -1 -13 -8q-10 -7 -7 -10q1 2 -2.5 3t-10.5 1q-14 0 -45 -23q-28 -23 -37 -36q-15 -21 -19 -106q2 -9 7 -18q-12 -2 -13 -12l1 -21q0 -48 -6 -142q-6 -96 -6 -144q0 -67 8 -67q4 0 7.5 1.5t5.5 2.5l2 1q18 -33 18 -111q0 -17 -1 -38q-4 -5 -4 -14q0 -8 4 -16 q17 -8 17 -34q0 -6 -2 -6q-1 1 -4 1t-5 -18q0 -21 1 -36q0 -8 0.5 -15t0.5 -9v-2q0 -5 -1.5 -21t-1.5 -20q-3 1 -9 1q-14 0 -15 -16q1 7 1 -1v-25q0 -10 -1 -14q1 9 -8.5 20.5t-17.5 11.5q-4 0 -6.5 -0.5t-3.5 -1.5l-2 -2h-1v50l-8 72q-10 83 -10 153q0 36 1 53l-6 4 q0 4 4 17t4 18q0 8 -2 32t-2 30q0 5 4.5 17.5t4.5 15.5l-1 55q0 21 6 32q0 1 -2 47q-2 40 -2 47q0 32 7 82q7 52 7 82q0 68 -30 68q-4 0 -5 4q0 3 -11 5q-10 1 -10 22q0 7 29 54q30 47 33 64q6 30 9 92q3 65 10 94q16 84 25 127q17 77 43 121q34 61 50 61h21q21 0 40 -61 q17 -54 17 -77q0 -14 -13 -23v-4q1 -60 -30 -102l10 -5q-17 -63 -29 -63q-8 -2 -8 2l1 1q0 2 -2 2q-4 -14 -23 -50q-4 -4 -4 -25q-18 -5 -36 -47q-24 -56 -28 -60v-20l9 -9q27 11 59 11q4 0 18.5 -3t18.5 -3q43 0 52 -23q-6 0 -25 -10q-18 -9 -27 -6zM248 796q-11 19 -15 20 l-2 -5q-20 -29 -50 -91q-36 -72 -36 -94q0 -8 1.5 -10.5t5.5 -0.5q-12 -18 -14 -32q4 -3 5 -14v-16q1 0 3 5.5t7 5.5q11 0 47 71q34 69 38 89q8 38 10 72z" />
<glyph unicode="g" horiz-adv-x="410" d="M387 482q-18 -10 -41 -119q-25 -128 -34 -145l1 -2q0 -4 -4.5 -19t-4.5 -19t2 -19.5t2 -20.5q0 -6 -3 -24t-3 -24v-8q1 -3 1 -8q0 -4 -3.5 -15t-3.5 -15q0 -22 -1 -44q-1 -28 0 -45q-4 -5 -4 -40q0 -25 -7 -33q4 -3 4 -14q0 -10 -5 -42q-4 -25 -4 -42q0 -7 2 -15 q-2 -13 -5 -39q-4 -40 -16 -59l2 -5q-2 -6 -5 -17t-5 -17q-8 -26 -15 -27l1 -4q0 -19 -21 -81q-23 -66 -35 -66q-4 0 -4 1q1 1 1 4v3q-8 -23 -20 -40q-16 0 -21 -35q-5 -8 -21 -22v1q0 2 -3 7q-6 -9 -17.5 -18.5t-19.5 -9.5l-8 4q-8 -5 -24 -17q-10 2 -17 2q-4 0 -15 -1 t-13 -1q-4 0 -4 2l3 5l-3 1q-6 2 -6 -3q-1 -1 -2 0l-10 -8q1 1 1 3q0 4 -9 7q-3 3 -8 10l-2 -3q-1 -4 -3.5 -7t-5.5 -3q-17 0 -18 16q-3 -1 -11 -1q-37 0 -84 32q-40 27 -66 64q-8 11 -31 69q-11 19 -21 41q-14 48 -14 77q0 8 5 13q0 4 2 22q9 58 31 88q11 19 39 37l47 29 l5 -10q-27 -17 -50 -58q-25 -47 -31 -52v-96l11 -5q31 -86 56 -125q9 -12 43 -40q37 -32 42 -32q12 0 41 -12q27 -12 41 -12q4 0 21 2t21 2q34 0 83 43q36 32 64 73q0 15 18 49q21 41 23 52q6 15 16 61q17 140 27 161l-7 4q7 113 10 152q3 2 8 8v221q-11 0 -12 -7 q-17 -53 -52 -98q-1 -1 -3 -5l3 -1q-17 -31 -99 -125h-20q-4 0 -4 1l3 5l-3 2q-4 0 -7 -4t-5 -4q-7 0 -23 27q-16 26 -16 34q0 3 2.5 9.5t2.5 8.5q9 83 91 189q75 95 154 149q28 100 81 135q12 -11 12 -18l-2 -5q2 -5 12 -20zM277 279q0 4 -2.5 14t-2.5 12q-16 -10 -48 -38 q-9 -18 -35 -50q-7 -6 -20 -25.5t-17 -23.5q-22 -22 -34 -52q-17 -43 -27 -55v-18q8 -1 22 -9q31 32 84 99q5 7 44 75q36 66 36 71z" />
<glyph unicode="h" horiz-adv-x="454" d="M402 -47q-10 0 -18 9q-9 -8 -16 -22q-74 5 -139 91q-61 81 -59 157l-11 13q-20 -55 -72 -160q-11 2 -18 10t-10 8t-6 -2.5t-7 -2.5q-7 0 -9 17q-1 7 -3 23q6 4 6 120q0 30 4 74t4 73q0 13 -5 30l55 431q9 12 14 39q5 28 10 34q10 16 41 16q7 0 37 -57q-1 -5 -1 -12 q0 -2 2 -2v-3q0 -19 -18 -44q-13 -20 -29 -41q0 -24 -14 -64q-18 -54 -20 -64q1 -2 1 -8q0 -13 -4 -29q-20 -78 -20 -125q0 -22 -10 -58q2 -18 2 -23q0 -17 -7 -27q5 -12 5 -23q0 -7 -4.5 -32t-4.5 -32q0 -35 -12 -45q13 -9 13 -27q0 -4 -1 -16t-1 -16q0 -5 2 -13h7 q11 0 20 20q4 13 11 29q0 2 4 14l13 37l17 54q24 75 38 96q3 3 39 15q-1 -1 -1 -5t3 -14t3 -12q0 -8 -5 -28l-6 -29q0 -5 -3.5 -25.5t-3.5 -27.5q0 -4 2.5 -13.5t2.5 -11.5q1 -29 16 -101q3 -18 36 -66q34 -51 49 -51q4 0 4 -1l-4 -6q2 -5 42 -11q38 -5 48 -5q14 0 54 22 q36 19 50 32q-24 -40 -27 -43q-16 -22 -35 -35q-46 -31 -51 -31z" />
<glyph unicode="i" horiz-adv-x="270" d="M356 673q0 -3 -10 -20q-9 3 -25 2q-5 0 -9.5 -0.5t-7.5 -0.5t-6 -1h-2h-1l-3 1l3 5q-2 2 -4 2q-4 0 -4 -1l3 -5q0 -2 -3 -2t-6 4t-7 4t-4 -1v-1q0 -2 -25 -2q-2 0 -11.5 -4t-13.5 -4q-8 0 -54 -18q-46 -17 -50 -21q-20 -16 -30 -39l5 -12v-40l-11 8l-12 -4q-17 0 -69 31 q8 8 9 17q12 43 94 83q74 37 126 37q2 0 10.5 -2.5t10.5 -2.5q3 0 14 4.5t15 4.5q24 0 78 -22zM203 167q0 -7 -23 -48q-19 -34 -31 -51l-65 -79q-11 6 -40 31v336q0 36 48 36q10 0 10 -29q0 -17 -6 -52q-5 -37 -5 -50q0 -147 22 -160q17 9 41 39t44 41z" />
<glyph unicode="j" horiz-adv-x="238" d="M379 771q-8 -9 -21 -11q9 1 -2 1h-25q-43 -21 -52 -21q-3 0 -8 -4.5t-9 -4.5l-9 4q-12 0 -77 -47h-16l-3 -4l4 -2l-1 -1q-1 -1 -6 -3.5t-10 -5.5l2 -18q4 0 28 -24q-4 -2 -10 -12t-9 -11h-21q-8 0 -31 10q-24 11 -30 11t-9 -4q0 2 -9.5 15t-9.5 17q0 26 71 67 q70 40 94 34l12 13q7 0 34.5 4t35.5 4q3 0 14.5 4.5t15.5 4.5l6 -2q5 -2 7 -2q3 0 14.5 4t15.5 4q14 0 14 -20zM199 391l-6 -18q-33 -8 -41 -28l-14 -37q-13 -51 -13 -81q0 -15 3 -25q-10 -51 -10 -90q0 -1 0.5 -3t1 -6t0.5 -8q3 -13 3 -22q0 -4 5 -46v-54q0 -23 -3 -37 q7 -26 4 -68q6 -10 6 -13q0 -4 -3.5 -12t-3.5 -10q-3 -19 -5 -68l-2 -69q-6 -72 -19 -108q-15 -26 -43 -85q-16 -12 -74 -69q-1 0 -4 -2l-11 -6q-7 -4 -13 -8q-25 -15 -30 -15q-1 0 -6 2t-6 2q-2 0 -6.5 -4.5t-8.5 -4.5q-16 0 -20 -4l-8 9l-8 -9q-43 11 -77 45 q-39 37 -36 77q-10 26 -10 64q0 61 49 178l11 -5v-49q-9 -7 -16 -35q-5 -27 -5 -39q0 -54 18 -106q24 -70 65 -70q4 0 4 -2q-2 -2 -2 -4q0 -3 30 -3q86 0 158 141q13 25 17 70q2 12 4 37t4 37q6 24 6 27v187q-17 26 -17 234q0 52 13 133q18 107 40 107q6 0 27 -2t27 -2 q12 -10 16 -10q-2 -2 -2 -4t1 -3h4z" />
<glyph unicode="k" horiz-adv-x="431" d="M543 145v-27q0 -18 -70 -76q-69 -57 -86 -57q-6 0 -6 -2l1 -2l-13 -13q-2 0 -8 -2.5t-10 -2.5t-5 -2t-3 -2q-7 -3 -34 -25l-13 4l-8 -8h-51q-3 0 -15 2t-16 2l-9 9q-42 9 -105 119q-9 16 -10 16q-13 0 -40 -21q-19 16 -19 78q2 20 5 60q10 93 10 144q0 19 7 30 q-1 8 -1 25q0 41 2 51q1 1 4 3l7 5l-8 3l37 311q4 27 36 27q14 0 25 -9t11 -22q0 -3 -7 -21.5t-7 -25.5q0 -30 -9 -50q-11 -26 -12 -35l-30 -259l-3 -67q-3 -44 -12 -64v-50l6 -11q7 14 16 45q22 71 51 111q2 4 38 71q3 2 26 23l19 -14q13 -9 13 -16q-39 -90 -43 -98 q-29 -63 -50 -94l8 -4q-16 -48 -16 -75q0 -7 5.5 -35.5t5.5 -38.5q43 -79 135 -79q37 0 128 70q4 3 123 99z" />
<glyph unicode="l" horiz-adv-x="256" d="M122 -36q-6 0 -16 3q-3 1 -11 1t-11.5 3t-10.5 12q-14 19 -18 20l9 10q-8 3 -9 5q-9 26 -21 92q-11 69 -11 94q0 22 14 30l-9 3q1 18 2.5 63t2.5 70q0 7 2 65q5 28 12 76q15 127 19 153q15 87 42 148q1 -1 34 -1q1 -5 1 -19q0 -61 -20 -107v-7l-1 -3q0 -3 -1.5 -10.5 t-2.5 -15.5q3 -5 3 -10q0 -11 -10 -31q-9 -20 -9 -31q0 -7 4 -11l-14 -9l9 -4q-16 -89 -16 -100q0 -5 2 -23t2 -24q0 -18 -6 -68q-5 -49 -4 -68h-1q-4 0 -4 -9q0 -5 2.5 -6.5t2.5 -2.5v-30q0 -149 40 -208l8 -4q45 35 71 67l57 75q6 9 27 30q21 22 25 22q2 0 2 -1 q0 -20 -92 -157q-11 -17 -44 -48q-37 -34 -51 -34z" />
<glyph unicode="m" horiz-adv-x="636" d="M662 205q1 -18 -67 -102q-68 -83 -81 -83q-4 0 -7 -4t-6 -4t-16 -2t-17 -2q-34 0 -49 41l-15 61q-5 10 -8 19l5 -8q6 5 6 15q0 7 -7 27q-16 -10 -15 -28q-26 -5 -44 -66q-18 -23 -37 -43q-26 -26 -46 -26q-2 0 -10.5 -4.5t-12.5 -4.5q-8 0 -20 12.5t-16 23.5 q-20 51 -20 145q0 23 -5 41q-13 -4 -48 -88q-28 -68 -39 -104q-5 1 -17 8q-5 -1 -21 -17q-13 14 -20 62q5 13 5 36q0 13 -8 34q0 101 22 267q12 16 32 16q12 0 23 -13.5t11 -26.5q0 -10 -6 -31t-6 -32q-3 -3 -5 -6t-3.5 -7.5t-2 -7t-1.5 -10.5t-1 -12q-4 -29 -10 -57l-3 -11 q0 -30 11 -50q2 6 24 41l46 98q37 75 62 75q31 0 31 -81q0 -26 -4 -63q-4 -36 -4 -62q0 -43 6 -110q4 -7 15 -7q3 0 20 24q84 120 139 225q3 0 15 7.5t16 7.5q9 0 20 -21q10 -19 10 -31q0 -30 -12 -97q0 -3 -7 -15t-7 -16q0 -42 20 -80q40 11 95 65q68 68 90 82z" />
<glyph unicode="n" horiz-adv-x="435" d="M477 209q0 -32 -76 -120q-71 -84 -107 -104h-27q-45 17 -59 50l-18 73q8 58 7 108v11q-16 -25 -64 -128q-44 -92 -71 -105q2 2 2 5q0 7 -11 7q-7 1 -7 -1l4 -4q-6 6 -22 6q0 2 -2.5 12.5t-2.5 14.5q0 35 13 106t13 106q0 18 -8 82q0 4 -4.5 18.5t-4.5 18.5q0 7 10 26 l41 -9q19 -130 19 -188q0 -7 -6 -13q7 -7 14 -7q0 4 4 15t4 13q0 6 21 37q6 9 11.5 18.5t8.5 14t4 5.5q53 114 91 114q5 0 14 -24q10 -21 10 -30q0 -20 -10 -71q-11 -57 -16 -68v-117q0 -6 7 -20q9 -18 9 -21l12 1q16 0 98 82q66 67 93 99l3 -4q3 -4 3 -9z" />
<glyph unicode="o" horiz-adv-x="292" d="M188 250l6 7q4 35 -4 70q-8 10 -18 28q-21 -70 -48 -91l-9 -75q-2 -23 -1 -62q2 -47 6 -60l12 4l-8 8q1 1 3 1q26 26 41 79q11 46 20 91zM247 236q-3 -21 -11 -27q0 -3 -1 -9t-1 -9q-14 -119 -99 -203q-7 4 -45 12q-24 6 -35 35q-4 11 -5 74q-1 66 0 82q8 68 47 156 q25 56 49 82.5t47 23.5q27 -26 44 -102q15 -69 10 -115z" />
<glyph unicode="p" horiz-adv-x="426" d="M379 249q0 -63 -7 -88q-2 -1 -7 -8q1 -3 1 -9q0 -22 -39 -72q-38 -50 -58 -50q-3 1 -4 2v2q0 4 -4 4q-3 0 -11 -2t-10 -2q-13 0 -23 25q-8 22 -8 35q0 4 4.5 14.5t4.5 11.5q11 47 38 76q8 -10 23 -26l-12 -9l8 -3q-12 -36 -12 -47q0 -6 7 -19q18 12 27 28q6 11 20 66 q16 55 16 66q0 4 -1.5 6.5t-2.5 3.5l-1 2q-3 9 -3 27v19q0 25 -5 42q-7 21 -47 81q-32 -17 -45 -61q-62 -208 -67 -394q1 -62 -8 -199q4 -7 4 -17q0 -6 -4 -25t-4 -24q0 -6 1 -9l-8 -48q-6 -38 -19 -38q-3 0 -15 2.5t-15 2.5q-23 58 -23 134q0 33 3 41q4 9 8 22q7 56 17 117 q23 123 23 180q0 3 -5 11q1 7 1 29q0 84 -19 157q-10 38 -63 36h-6l-9 -8h-12q-6 -1 -13 -1q-5 0 -15 2q3 15 24 28q18 13 33 17q1 0 9 1l12 3q2 1 5 1l7 3h-1q29 0 51 -39l33 -61q7 7 22 59q17 59 32 87q23 45 52 45q53 0 90 -91q30 -76 30 -139z" />
<glyph unicode="q" horiz-adv-x="370" d="M379 60q-26 -19 -63 -52q-68 -74 -102 -241h1q4 0 4 -7q0 -4 -4.5 -13t-4.5 -11q-3 -10 -3 -34q0 -5 1 -14t3 -18.5t2 -11.5q-3 -4 -5 -24q0 -17 -8 -25q-6 6 -17 6q-3 0 -7 3.5t-6 3.5q-9 0 -9 19v75l44 351v60l-5 6q-4 -3 -17 -16q-3 -5 -49 -75q-7 -1 -21 -17t-14 -21 l2 -5q-3 5 -10 5q-5 0 -21 -3.5t-21 -3.5q-19 0 -23 13q-3 13 -11 18q19 132 110 251l60 86q50 68 65 68q2 0 8.5 -2t8.5 -2q5 0 12 18q6 16 9 23q18 -4 21 -6q8 -3 19 -12v-21q-9 -12 -25 -45q-3 -19 -15 -55q-14 -27 -21 -91q-1 -19 -22 -136q1 -5 1 -18q0 -18 -4 -45 q-3 -30 -3 -45q0 -12 2 -26q45 59 51 65q27 30 69 47q4 -8 18 -22zM236 340q-53 -20 -135 -181l-15 -29q0 -3 1 -4.5t2 -1.5l1 -1l-6 3q-6 -1 -16 -28q-9 -26 -9 -35q0 -13 12 -25q113 98 150 237q5 35 10 60q1 4 5 5z" />
<glyph unicode="r" horiz-adv-x="316" d="M298 174l12 -11q-4 -19 -29 -53q-36 -48 -38 -50q-6 -6 -13 -14q-16 -12 -20 -12q-1 0 -3 -3q-20 -22 -19 -27q-8 0 -26 -12q-16 -12 -19 -12q-2 0 -9 4t-10 4q-2 0 -7 -2l-5 -2q-4 0 -6 4t-6 4q-10 0 -17.5 15t-7.5 30q0 23 22 88q25 73 26 92q3 21 8 41q6 27 6 38 q0 18 -18 72q-6 -6 -26 -49q-19 -41 -45 -57q-13 -8 -15 -8q-5 0 -5 10q0 36 12 48q2 18 27 70q27 58 33 78q4 3 9 12q3 6 22 6q13 0 34 -79q19 -72 19 -97q0 -78 -30 -178q-20 -69 -20 -87l9 6q2 0 5 4t7 4q9 0 68 56q60 59 68 73l6 -1q4 0 7 3z" />
<glyph unicode="s" horiz-adv-x="294" d="M255 327q55 28 68 20q-43 -34 -57 -50q-1 -2 -7 -8l-9 -9q-2 -2 -7 -8l-8 -10q-3 -3 -7 -9l-7 -9q-3 -4 -6 -9.5t-4.5 -9.5t-2.5 -9t-1 -9q0 -6 1.5 -27.5t1.5 -27.5q0 -27 -5 -69q-3 -15 -8 -32q-5 -22 -5 -32q0 -6 2 -14q-7 -4 -24 -32q-17 -29 -23 -33q-6 0 -31.5 4.5 t-33.5 4.5q-11 0 -29 29q-18 28 -18 42l5 8q-1 2 -1 8q0 49 55 128t55 83q-1 7 -3 7l-3 2q-6 53 -20 121q-1 3 -5 3q-1 17 -22 10q-70 -80 -79 -88q-22 48 96 193q2 0 13 -1.5t15 -1.5q14 -6 20 -16q18 -37 30 -119q1 -6 1.5 -17.5t0.5 -17.5q4 -22 7 -32l21 14zM147 154 l-27 -47q-17 -32 -17 -51q0 -6 1 -9h-1q-1 0 -2.5 -1.5t-1.5 -5.5q0 -11 11 -41q8 8 15 10q6 14 16 56q0 31 6 89z" />
<glyph unicode="t" horiz-adv-x="407" d="M449 390v-21q-19 -21 -79 -59q-61 -40 -83 -40q-11 0 -23 -9t-15 -9q-11 0 -37 -10q-26 -9 -32 -15q-7 -31 -7 -39q0 -35 25 -151q0 -1 5.5 -11.5t5.5 -15.5q0 -6 -6 -13l-9 -11q-10 8 -23 8q-1 0 -7 -2l-6 -2q-4 0 -13 34q-4 21 -28 123l-27 71q-3 4 -49 43 q-41 35 -41 40q0 13 9.5 22t21.5 9q20 0 43 -20t40 -15l8 -9l5 7q1 33 5 98t5 98q7 113 24 195l6 48q8 29 31 29q9 0 19 -11t10 -20q0 -13 -9 -40q-8 -29 -8 -41q0 -9 -6 -29q-4 -15 -7 -30q-7 -47 -14 -229h-1q-4 0 -4 -9q0 -2 1.5 -8t1.5 -7q-1 -17 4 -47q12 9 24 9 q3 0 7 -4.5t8 -4.5q11 0 209 98h16z" />
<glyph unicode="u" horiz-adv-x="445" d="M416 134q0 -24 -32 -71q-39 -56 -41 -64h-4l-27 -6q-11 -3 -18 -4l-11 -10l-10 10q-3 0 -11 2.5t-10 2.5q-22 0 -33 32q-6 21 -13 50q-15 -16 -62 -77q-4 0 -21 -2.5t-23 -2.5q-4 0 -13 2.5t-11 2.5q-11 0 -20 -10q-31 75 -31 82q0 17 7 45q8 32 8 45q0 34 20 100 q21 65 21 99q0 9 -2 23q6 31 30 31q16 0 33.5 -12.5t17.5 -26.5q0 -20 -26 -80q-1 -29 -22 -100q-19 -63 -19 -100q0 -12 8 -39q15 4 70 88q47 71 63 104q1 2 4 9t4 9l4 8q3 6 5.5 8t6 5.5t7.5 4.5t9 1q11 0 23.5 -16.5t12.5 -29.5q0 -5 -2 -5l-4 2l-1 -1q-1 -1 -2 -1 q2 -4 2 -9q0 -2 -1 -11.5t-1 -13.5q-11 -8 -14 -19q-1 -4 -9 -44q-7 -36 -7 -42t2.5 -26.5t2.5 -26.5q7 -10 11 -10l6 2q31 16 57 48q4 5 43 58h17q6 -4 6 -14z" />
<glyph unicode="v" horiz-adv-x="355" d="M353 310q2 -23 -15 -29q-1 0 -35 -2q-41 -2 -41 -41v-40q-7 0 -13 -9q-9 -50 -36 -151q-11 -13 -32 -54q-17 2 -45 12q-35 12 -36 22l6 6q-17 17 -30 74q-10 46 -12 83q-2 30 -20 84q-19 56 -19 70q0 15 17 29t33 14q30 0 42 -92q1 -20 5 -59t5 -59q5 -58 15 -90 q21 8 34 66l18 79v3q0 5 5 26.5t5 28.5t-1.5 31t-1.5 32q3 0 12.5 7.5t13.5 7.5q7 0 28 -10q23 -9 29 -9q20 0 69 -30z" />
<glyph unicode="w" horiz-adv-x="544" d="M569 321v-5q0 -27 -49 -52q-68 -37 -70 -37q-12 -2 -22 -14v-16q3 -5 13 -46q10 -36 10 -49q0 -21 -14 -29l9 -4q-7 -13 -3 -28q-3 -11 -21 -27q-17 -17 -26 -17q-20 0 -67 19l-10 9q-17 7 -60 61t-56 58l-41 -169l-28 23q-10 -6 -19 -14q-16 44 -22 68q-9 34 -11 71 q-2 13 -12 42q0 36 -31 107t-31 77q0 8 8.5 17.5t16.5 9.5q47 0 102 -192q12 3 13 19q3 20 5 27q8 14 35 14q14 0 48 -42l44 -55l36 -36q3 -4 20 -31q13 -19 30 -19q6 1 6 -1q-2 -2 -2 -4q0 -3 1 -4q3 1 10 8q10 19 10 68q0 13 -10 47q-11 39 -16 47q-1 1 -9 13q-6 7 -6 13 q0 10 10 26l106 28q66 19 103 19z" />
<glyph unicode="x" horiz-adv-x="519" d="M561 169v-21q0 -41 -109 -114q-2 0 -13.5 -5t-15.5 -5q-10 0 -23 4q-9 3 -15.5 4.5t-8.5 1.5h-3v1q0 3 -4 3q-4 -1 -14 -5q-2 0 -4 2l3 5q0 2 -4 2q-3 0 -3 -1l3 -6q-2 -2 -4 -2q-4 0 -4 2l3 5q-2 2 -4 2q-42 0 -158 86l-89 -103q-68 -74 -100 -74q-12 0 -27 15v21 q47 37 74 63q25 25 56 64q41 52 43 66q-41 73 -41 102q12 8 29 23q9 -1 26 -26l21 -33q11 0 33 36l30 48q43 50 89 161l10 -9q5 5 4 14q2 -8 16 -19t14 -27q0 -11 -22 -52q-12 -22 -34 -51q-23 -29 -37 -50q-4 -7 -30 -57q-19 -37 -36 -55q26 -26 78 -68q62 -48 83 -48 q5 0 24 4.5t24 4.5q15 0 69 39z" />
<glyph unicode="y" horiz-adv-x="390" d="M363 583q0 -12 -10 -32q-11 -24 -12 -31l2 -6q-51 -128 -64 -208q-2 -33 -8 -69v-7q2 -37 -8 -55q3 -29 3 -40l-1 -16q-9 -276 -66 -461q-5 -5 -6 -10l3 -5q-11 -15 -24 -44q-14 -32 -23 -44q-3 -5 -3 -6t3 -6l-8 4q-13 -24 -42 -48q-35 -31 -46 -42q-4 0 -22.5 -8.5 t-22.5 -8.5h-67q-4 0 -4 1q1 2 1 4q0 1 -3 3q-4 0 -4 -1l3 -5l-4 -2q-26 12 -36 12q-6 0 -13 1.5t-11 2.5l-5 1v1q0 2 -4 2q-33 0 -91 55q-55 53 -68 87q-15 25 -33 65q-11 39 -11 76q0 85 79 197q16 -5 23 -1q-2 -6 -5.5 -22.5t-5.5 -24.5q-3 -15 -16 -35q-15 -25 -19 -35 q-15 -39 -15 -83l4 -11q1 -2 1 -3q1 -3 1.5 -12.5t0.5 -13.5q8 -52 28 -84q82 -126 176 -126q8 0 36.5 -2t37.5 -2q15 0 57 27t54 42q85 103 109 367q0 8 1.5 21t3 31.5t2.5 33.5q0 3 5 31q3 20 3 31q-1 28 -2 84q-14 -20 -46 -77q0 -10 -27 -49q-26 -38 -33 -38l-5 2 q-6 2 -8 2h-24q-4 0 -11 9t-8 9q-16 33 -16 54v199q-2 39 3 69q6 18 48 37q23 -11 23 -27q0 -4 -8 -26q-10 -24 -10 -28q-6 -17 -7 -43q-2 -32 -5 -42q1 -10 1 -32q0 -8 -2 -42l-3 2q-3 -2 -3 -6q0 -6 2 -6q3 0 3 -2q1 -5 1 -30q0 -2 3 -13.5t2 -13.5l8 -15q14 5 27 28 q105 175 119 306q8 72 26 129q28 87 70 103q26 -26 26 -29z" />
<glyph unicode="z" horiz-adv-x="442" d="M433 255l9 -10q-10 -17 -61 -52q-11 -8 -46 -51q-38 -44 -39 -44q-6 0 -74 -87q-68 -86 -79 -86h-20q-7 0 -19 14q-12 13 -12 20q0 37 165 414h1q0 2 -7 2q-8 0 -41 -18q-32 -17 -38 -26q-40 -17 -76 -47q1 -5 16 -27q-11 -14 -42 -14q-11 0 -24.5 14.5t-13.5 25.5 q0 12 20 38q19 25 32 33q19 10 133 63q117 55 123 55q10 0 18 -9.5t8 -20.5q0 -2 -42 -74q-48 -79 -50 -83q-70 -132 -92 -225l-9 -9v-11h4q45 43 67 76q18 26 79 81q65 58 90 58h20z" />
<glyph unicode="|" horiz-adv-x="585" d="M230 163l20 -227q-5 -4 -16 -18q-2 2 -3 2l-10 -1q-7 2 -23 27l-22 35q16 5 18 18q3 15 -7 31q5 41 -3 109t-11 109q-1 41 5 267q2 42 2 94q0 5 -3 5l-5 -1q4 7 6 17q6 33 4 90l-6 89q-3 55 -3 58q3 18 26 13q27 -5 31 -20q2 -9 1 -39l-7 -363q-3 -41 -5 -181z" />
<glyph unicode="~" horiz-adv-x="461" d="M386 712q2 -10 2 -17q0 -24 -11 -55l-26 -26q-17 -17 -31 -17q-20 0 -25 -5l-8 9l1 1q0 3 -6 3t-3 -8q-2 5 -22 13q-11 12 -27 22q-4 3 -21 24q-13 18 -26 18t-36 -16q-19 -14 -30 -27q0 -1 -6 -16q-5 -14 -9 -14q-2 0 -8 6.5t-9 6.5t-5.5 -2.5t-4.5 -2.5q-9 0 -9 22 q0 27 36 60q37 34 64 34q22 0 60 -34q40 -34 52 -34q2 0 11 -4.5t11 -4.5q23 0 47 24z" />
<glyph unicode="&#xa1;" horiz-adv-x="576" d="M246 -87q0 15 7 39q10 37 10 39q11 96 12 160q2 68 9 155q6 4 6 59q0 33 10 49l13 4q7 -23 10 -80q0 -6 7.5 -31t7.5 -31q0 -4 -5.5 -16.5t-5.5 -14.5q0 -8 2 -36.5t2 -36.5q0 -75 -10 -169q0 -4 -5.5 -26.5t-5.5 -29.5q0 -4 1.5 -17.5t1.5 -17.5q0 -28 -21 -28h-19 q-8 0 -17.5 10.5t-9.5 18.5zM285 717q0 3 5.5 11t5.5 10q15 -6 37 -13q25 -10 25 -24q-11 -17 -32 -17q-8 0 -25 12q-16 13 -16 21z" />
<glyph unicode="&#xa2;" horiz-adv-x="379" d="M241 52l19 -166q-5 -2 -16 -12q0 1 -2 1h-4q-2 -1 -6 -1q-8 2 -23 20q-7 9 -21 25q16 4 18 14q1 10 -7 23q3 24 -1 56q0 -6 1 -9q-19 -7 -24 -19q-1 0 -12 7l-1 -3q-2 -2 -4 -5t-4.5 -5t-5.5 -2q-2 0 -9 2t-9 2q-4 0 -8.5 -4t-6.5 -4q-3 0 -8 5.5t-8 5.5q-3 1 -3 -1l2 -2 q1 -2 1 -3q-1 -1 -3 -1q-4 0 -4 1t2 3l1 2q-2 2 -3 1q-36 0 -62 35q-23 32 -23 69q0 73 84 202v2q0 11 19 40q18 28 20 37l47 67q4 5 9.5 14t7.5 11l-6 66q0 12 -0.5 22t-1.5 15v5q2 14 24 9q27 -2 31 -15q2 -5 1 -28l-1 -20q23 -31 23 -34q0 -10 -10 -16l5 -9q0 -3 -17 -66 q-1 -7 -5 -19l-2 -101q-5 -42 -6 -133l8 -58q26 24 59 62q29 31 112 141q7 -2 10 -5l-54 -81q-16 -19 -51 -70l-15 -12q-3 -5 -3 -21q0 -7 -7 -7q-4 0 -4 2q1 1 1 3t-1 3l-31 -28q-8 -6 -12 -13zM186 172q-2 9 -3 24q-2 26 -2 31l-2 3q-2 4 -2 8q0 19 4 46q5 35 5 47 q0 9 1 12l3 -1q2 2 2 6q0 11 -13 24q-5 -5 -5 -12q0 -6 3 -13q-13 -5 -17 -9q-8 -5 -11 -14q-9 -24 -35 -66q-24 -39 -29 -63q-2 5 -9 19q-8 -8 -14 -8q-1 -1 -1 -2q0 -2 5 -5q-4 -3 -11 -20q-8 -18 -8 -20q0 -4 2 -4q-2 -1 -12 -11q6 -9 10 -13l4 6l-2 4l7 -3q-2 -5 -5 -10 v-4q0 -2 -3 -13.5t-3 -15.5q0 -25 19 -47.5t43 -22.5h49q3 0 3 1l-1 2q-1 2 -1 3t3 2l4 1h-1q0 2 4 2q11 0 27 9l-8 70q-2 17 0 57zM113 268q-7 2 -14 6q-2 -10 -20 -44q3 -1 7 -3q-2 -1 -11 -8q3 -3 10 -5q5 15 28 54zM135 315q-6 -6 -26 -21q3 -2 18 -8q0 13 8 29zM59 159 q4 4 10 14l6 -2q-7 -11 -9 -13q0 -1 -1.5 -3.5t-3.5 -7t-4 -9.5l-1 6q0 8 3 15zM165 351l-9 10l-9 -10q5 0 5 -5l-1 -3q6 0 14 8zM111 275h7v13h-7v-13zM186 395q2 0 2 5q0 7 -3 10q0 -9 -8 -9q5 -5 9 -6zM175 378q-10 3 -14 4q4 -2 2 -10q3 3 12 6zM72 187q1 -1 7 -1l-9 -9 q0 1 1 5t1 5zM70 177q-1 -1 -1 -4l-2 1zM72 191v-4q-1 1 -1 2t1 2zM186 171h-1l1 -4v4zM57 138h-1h1z" />
<glyph unicode="&#xa3;" horiz-adv-x="793" d="M-53 262l-4 17l22 11q27 8 84 3q77 -5 87 -5q2 4 4 10.5t3 8.5q-5 3 -10 18q-19 71 11 189q32 118 82 171q12 14 47 44q40 34 49 35q166 44 306 -74l-2 -5q18 -6 60 -68q39 -59 45 -81q4 -11 4 -44q0 -37 -7 -38l-14 -3q-15 5 -26 32q-2 5 -6.5 20t-7.5 23q-14 32 -28 52 l-1 9l-74 89q-13 16 -57 39q-45 23 -60 19l-13 -3l-11 6l-20 -10q-2 -1 -11 -1h-11q-4 -1 -6.5 -2t-1.5 -3v-2l-12 7h-10q-8 0 -9 -1q-4 -1 -7 -9.5t-5 -8.5l-22 -5q-17 -4 -57 -57q-34 -44 -48 -71q-33 -68 -37 -158q1 -5 2.5 -15t1.5 -14q1 -16 -10 -29l19 -71 q64 -27 129 -38q105 -18 216 -79q116 -65 182 -141q20 -24 44 -69q2 -5 8 -8q-20 -14 -23 -31l2 7q-1 1 -8 0t-7 -5q1 -1 2 0l-9 -13l-12 11l-7 -9q3 4 3 7q-4 3 -5 4l-7 -11q-12 8 -24 22q-7 -13 -9 -20l5 11l-9 5q-9 -11 -13 -22q-5 3 -6 7v1l-1 -4q2 0 6 1q6 1 9 9 q-15 9 -21 6l-8 -11q-18 10 -26 12l-11 6q-4 -1 -15 6l-11 -17l9 17q-3 0 -17.5 2.5t-17.5 0.5q-6 -1 -10 -10l8 -2q-7 1 -13.5 2.5t-9.5 1.5l-3 1l-12 8q5 8 5 10q-1 7 -21 3q-4 -1 -2 -6v-2q1 -1 -0.5 -1.5t-3.5 -1.5q-7 -1 -29 13q-21 15 -24 14q-10 -2 -58 32l-60 44 q-65 56 -90 91q-28 45 -38 53l-69 50q-16 -4 -53 3q-40 8 -50 7l-21 13q-4 -3 -10 -5q-5 -1 -9 0t-7 2l-3 1q-1 0 -4 -3zM175 590l14 -1l-2 5l-12 3v-7zM208 222q10 -4 13 -15q2 -6 2 -16q18 -33 85 -115q11 -13 99 -59t100 -43q9 -1 26 -2q14 -8 46 -12q38 -5 50 -9 q-2 4 2 10q9 -12 34 -5q23 6 18 26q-10 37 -73 95q-60 55 -101 72q-2 3 3 5q-68 25 -96 40q-38 8 -56 9q-6 3 -11 21l-2 -10l-16 10q-32 0 -51 10l-1 -9q2 3 -2 2q-2 0 -8 -1q-3 0 -12 2t-12 1l-11 7l-14 -2q-9 -2 -11 -2l3 -2q2 -7 -4 -8zM415 450q-2 0 -10 6t-11 6 t-16.5 -5.5t-17.5 -5.5q-8 0 -16 5l-6 -11h-5l-6 11q-15 -15 -17 -15t-7 2.5t-7 2.5q-7 0 -23 -8q-12 -7 -13 -8l-9 5q-3 0 -24 -8t-24 -8t-7 -3l-3 -3l6 -59v-3q57 0 58 7l-3 7q3 1 21 8q8 4 24 4l6 11q32 0 67 20l6 -10q10 19 24 19q5 0 7 -2q4 22 6 35z" />
<glyph unicode="&#xa5;" horiz-adv-x="476" d="M206 -653l5 -5l-12 -12l-5 5zM425 -101q-1 -1 -2 -4.5t-2 -6t-3 -2.5q-4 -6 -8 -23q-4 -15 -9 -15q-1 0 -8 2l-7 3q-7 0 -7 -3q0 -1 5 -8q-8 6 -14 6q-4 0 -6.5 -5.5t-6.5 -5.5t-14.5 -1t-12.5 -1q-6 0 -12 2l-11 -10q-5 5 -32 5q-4 0 -4 -11q0 -5 -6 -5q-16 0 -42 -2 l11 -56l20 -122q-7 -3 -16 -10q-1 1 -3 1h-4q-4 -1 -7 0q-6 0 -23 14q-21 18 -22 19q17 3 18 10q3 7 -7 16q5 23 -3 59q-7 34 -11 59v1q-39 -10 -42 -10q-4 0 -13.5 -5t-13.5 -5q-15 0 -31 2l2 5q-36 15 -36 40q0 23 53 34q38 8 74 8l8 9q0 6 2 28l2 37v4q-1 -1 -5 -1 q-18 -3 -27 -3q-4 0 -13 -2.5t-11 -2.5q-3 0 -15.5 2.5t-16.5 2.5q-7 0 -10 -7q-1 -5 -3 -6q0 8 -13 8q-3 0 -15 -3t-16 -3q-12 0 -34 42q0 16 4 20.5t19 6.5q85 10 153 17h6q2 22 1 36l-1 9q-48 55 -79 185q-13 51 -13 53q0 6 8 14l-9 6l4 4q-10 15 -22 102q-5 16 -12 48 l3 9q-23 116 -28 296q-1 7 -6 32t-5 33q0 18 33 31q8 0 14.5 -11t6.5 -22q0 -5 -2 -11q7 -9 18 -9l-9 -10l9 -4q0 -8 5.5 -33t5.5 -29q-1 0 -1 -99q0 -17 4 -29q-14 -12 -14 -37q0 -7 5.5 -29.5t5.5 -26.5q0 -6 2 -56q0 -5 7.5 -24.5t7.5 -26.5q0 -11 -9 -20q10 -8 12 -10 v-3q0 -19 10 -49q11 -32 9 -50q7 -14 18 -57q7 -36 24 -54q1 0 12 7l-9 4q14 27 29 83q15 58 28 83q0 20 11 56q5 15 9 29l6 21q2 6 2 7q21 95 65 220q46 135 85 207q-1 3 0 9v11q17 2 19 0l5 10q13 -13 13 -31q0 -7 -31 -81q-2 -7 -11 -41q-2 -9 -18 -34q-12 -21 -12 -35 q0 -2 2 -8q-3 -10 -17 -32q0 -2 -2 -11.5t-5.5 -28t-6.5 -38.5q-7 -44 -22 -74q-10 -6 -11 -12q-17 -57 -17 -80l-2 -3l7 -4q-28 -53 -28 -57v-81q-6 -4 -11 -9q-1 -17 -6 -56q0 -2 -3.5 -14t-10.5 -40l-15 -59q-4 -1 -8 -5l-3 -68q5 0 22 2l29 2l4 3q4 4 12 4q4 0 10.5 -5 t10.5 -5q3 0 13 5t14 5t22.5 2.5t24.5 2.5q4 0 17 -3t17 -3q-9 -10 -45 -57l-10 6q-4 0 -8 -5.5t-9 -5.5q-3 0 -25.5 -1t-29.5 -1q0 -8 -39 -8q-5 0 -5 -2q1 -1 1 -2q0 -2 -6 -2q-5 0 -11 6l-11 -11l3 6q-2 4 -3 5l-2 -46q-4 -34 -4 -37l4 4q3 5 9 5q9 0 44 5t40 5 q4 0 15 -2.5t14 -2.5q4 0 14.5 5.5t14.5 5.5q6 0 24 -3.5t23 -3.5zM79 -68q0 2 1 3q0 -2 -1 -3zM78 -70q0 1 1 2q0 -1 -1 -2z" />
<glyph unicode="&#xa8;" horiz-adv-x="509" d="M211 581q0 -1 -9 -27q-6 -14 -24 -19q-8 5 -26 26q-22 29 -25 31v21q3 0 18.5 3.5t20.5 3.5q8 0 25 -15zM385 578q0 -17 -11.5 -28.5t-28.5 -11.5q-11 0 -22 20t-11 32q0 11 15 22t27 11q31 0 31 -45z" />
<glyph unicode="&#xa9;" horiz-adv-x="833" d="M664 635l6 -10h-7l-6 7zM694 507q-2 -1 -7 -3t-8 -4l8 -10l-5 3l-8 -6l8 -5q1 1 4 1q4 0 4 -3q0 -4 -11 -9l11 -7q-7 -1 -7 -13q0 -40 -38 -136l-42 -58q-3 -6 -29 -26q-18 -15 -17 -28q-12 -5 -31 -24q-18 -17 -43 -24q-4 -1 -2 -3q-1 -6 -14 -6q-5 0 -8.5 -3.5 t-6.5 -3.5l-15 -10q-9 1 -19.5 -4.5t-11.5 -11.5q-9 2 -26 7l-3 -3l6 -6q-4 0 -17 3t-17 3q-5 0 -15 -7l-14 4h-23q-11 6 -24 6q-7 0 -46 17l-45 24q-43 26 -69 77q-27 50 -27 89q0 29 30 97q32 66 54 96l-4 4q93 122 97 126q59 66 140 108l-1 4q-2 3 -7 3q-28 0 -53 -4 q22 24 38 31v-1q0 -4 4 -5l4 6h17q46 0 85 -19q62 -29 71 -31q12 -10 25 -14q-7 0 -7 -3l7 -3l-9 -7l8 -4l12 4l-4 -7q3 -2 9 -4q0 -6 9 -16q3 -4 6.5 -7.5t4.5 -5.5l2 -2q12 -22 39 -62q1 0 5 2l-4 5q5 -3 5 -5q0 -5 -11 -8q3 -1 21 -1q-5 -11 -3 -16q0 6 -6 14 q-5 -4 -17 -9q4 -2 7.5 -9t5.5 -9q4 3 4 4q0 2 -4 3q9 -3 11 -4l-3 -1q6 -5 13 -4q-7 0 -13 -3v-30q6 -3 12 -5h-1q-5 0 -6 -4q7 -3 7 -7q0 -3 -7 -10q2 0 15 -7zM643 538q-11 11 -22 42q-9 29 -21 43q2 7 7 16q-20 7 -46 38q-28 31 -44 39q0 -13 -9 -13q-10 0 -29.5 6 t-26.5 11q-30 -13 -74 -38q-33 -39 -67 -50q3 -4 3 -8q0 -12 -33 -17q-5 -19 -27 -27l9 -5q0 -1 -3 -1l-64 -88q1 -1 1 -3q0 -9 -21 -36q1 -2 1 -7q0 -14 -15 -53q-14 -39 -14 -52q0 -97 114 -161q4 -2 46 -20q2 -1 25 -1l10 -7q70 10 84 10q43 0 104 58q54 51 68 83 q28 68 44 155q-3 2 -3 13q0 13 3 73zM558 447l-42 -51q-12 -10 -41 -44l-12 -7q-2 -6 -2 -14q0 -4 -6 -4q-3 0 -3 1q1 1 1 2t-1 2q-37 -25 -40 -38q-16 0 -12 -9q-6 0 -10 4q-7 -4 -5 -14q-14 -4 -19 -12l-10 5q0 -1 -1.5 -3t-4.5 -4.5t-6 -2.5q-1 0 -6.5 1.5t-7.5 1.5 q-3 0 -6.5 -2.5t-5.5 -2.5t-6 3.5t-6 3.5q-3 0 -3 -1q3 -2 3 -3q-1 -1 -3 -1q-3 0 -3 1l2 3q0 1 -2 1q-28 0 -49 22q-18 19 -18 43q0 46 66 127v1q0 7 15 25q14 18 16 24q13 14 37 42q30 33 30 40q5 15 14 18q25 -26 25 -30q0 -5 -8 -10l4 -6q0 -5 -13 -41q-15 -43 -16 -44 q-5 -10 -10 -18q2 -10 2 -16t-5.5 -29.5t-4.5 -30.5l-5 2h-2q-4 0 -4 -1l1 -3q0 4 -2 18.5t-2 19.5q-4 3 -4 7q0 7 4 29t4 29v8l3 -1q1 1 1 4q0 8 -10 15q-4 -3 -4 -7q0 -3 2 -9q-3 -1 -7.5 -3t-5.5 -2q-6 -3 -9 -9q-4 -12 -27 -41q-20 -28 -23 -40q-1 1 -2.5 3t-3 4.5 t-2.5 4.5q-5 -5 -11 -5v-1q0 -2 3 -3q-3 -3 -9 -13t-6 -13q0 -2 3 -2q-3 0 -10 -7q1 -2 7 -8l4 4l-2 2l6 -2v4q0 3 2 9q10 9 10 20q-1 0 -1 -1q0 -2 7 -2l-10 -7l7 -2l-8 -8q0 -2 -11 -19v-3q0 -1 -2.5 -8.5t-2.5 -9.5q0 -15 15.5 -29.5t33.5 -14.5h39q2 0 2 1l-1 1v2 q0 1 2.5 1t2.5 1h-1q0 1 3 1q30 0 103 65l88 89q6 -2 8 -3zM375 522q1 0 1 3q0 4 -2 6q0 -6 -7 -6q1 -1 4 -2t4 -1zM366 511q-2 1 -6 1.5t-6 0.5q4 0 2 -6q7 3 10 4zM358 494l-7 6l-7 -6q4 0 4 -3l-1 -2q4 0 11 5zM334 471q-10 -7 -20 -13l5 -2q5 -2 9 -3q0 9 6 18zM315 446 h6v8h-6v-8zM317 442q-6 0 -11 4q-3 -9 -16 -28q1 0 2.5 -0.5t2.5 -1.5q-6 -3 -8 -5q2 -1 8 -3q3 9 22 34z" />
<glyph unicode="&#xaa;" horiz-adv-x="517" d="M206 416v10h-6v-10h6zM550 487h15q-8 -12 -18 -46q-12 -33 -26 -52l-2 1l-2 -2l-6 -3q-4 -2 -8 -5q-13 -9 -18 -9q-3 0 -5.5 -4t-4.5 -4q-23 -23 -22 -28q-2 0 -8.5 1.5t-8.5 1.5q-2 -1 -6 -2l3 -6l-10 8l1 1q-2 2 -6 2q-1 0 -7 -2l3 -5l-38 30q-48 47 -59 132 q-6 -4 -8 -10l1 -3q-3 3 -6 3l-5 -1l-6 -9q5 -5 15 -7q-15 -9 -27 -32l-19 -37q-16 -19 -25 -32q-17 -20 -18 -33q-16 -8 -39 -8q-32 32 -32 47q0 32 99 165l-2 4l55 67q35 41 68 53q4 -11 16 -21q-11 -23 -6 -44q-16 -48 -16 -89q0 -34 16 -75q21 -52 50 -52h23 q13 0 99 105zM296 552h6l-5 12l-6 -3zM254 499l9 9l-4 4l-9 -9zM238 471h6v14h-6v-14zM300 523q0 3 -5 10q-1 -4 -8 -14l-3 1q-2 -2 -9 -3l4 -3v-1q-2 -1 -10.5 -12t-17.5 -13q1 -2 1 -6q0 -15 -24 -24q1 -1 3 -7l-1 -3l-6 6q6 8 11 19q-1 0 -6.5 -1.5t-7.5 -0.5 q0 -4 -6.5 -18t-6.5 -18q1 -1 4 -9h-3q0 -19 -8 -27q8 -8 14 -10l38 55q22 31 30 58q4 11 17 21z" />
<glyph unicode="&#xab;" horiz-adv-x="698" d="M509 496q-1 -4 -10 -11q7 -7 7 -12q0 -10 -17 -25q-18 -16 -27 -23q0 -7 -10 -23q-14 -9 -42 -49q-28 -38 -28 -53q0 -22 48 -85l65 -82q-6 -30 -7 -30q-6 -11 -30 -11q-18 0 -81 91t-63 115q0 21 60 96q58 70 81 84q19 6 54 18zM309 496q-1 -4 -10 -11q7 -7 7 -12 q0 -10 -17 -25q-18 -16 -27 -23q0 -7 -10 -23q-14 -9 -42 -49q-28 -38 -28 -53q0 -22 48 -85l65 -82q-6 -30 -7 -30q-6 -11 -30 -11q-18 0 -81 91t-63 115q0 21 60 96q58 70 81 84q19 6 54 18z" />
<glyph unicode="&#xad;" horiz-adv-x="647" d="M492 322q-4 -12 -9 -38q-6 2 -11 2q-21 0 -38 -20l-9 11q-51 -22 -103 -22l-9 -12q-25 0 -37 -4q-22 -7 -32 -9l4 -7q-2 -8 -89 -8v3l-9 64l2 2q3 2 6.5 3.5t7.5 1.5q6 0 36 8q30 9 36 9l14 -6l21 9q23 9 35 9q2 0 11 -3t11 -3q7 0 26 17l9 -12h8l9 12q14 -6 25 -6 q6 0 26.5 6t26.5 6q4 0 16.5 -6.5t15.5 -6.5z" />
<glyph unicode="&#xae;" horiz-adv-x="833" d="M664 635l6 -10h-7l-6 7zM694 507q-2 -1 -7 -3t-8 -4l8 -10l-5 3l-8 -6l8 -5q1 1 4 1q4 0 4 -3q0 -4 -11 -9l11 -7q-7 -1 -7 -13q0 -40 -38 -136l-42 -58q-3 -6 -29 -26q-18 -15 -17 -28q-12 -5 -31 -24q-18 -17 -43 -24q-4 -1 -2 -3q-1 -6 -14 -6q-5 0 -8.5 -3.5 t-6.5 -3.5l-15 -10q-9 1 -19.5 -4.5t-11.5 -11.5q-9 2 -26 7l-3 -3l6 -6q-4 0 -17 3t-17 3q-5 0 -15 -7l-14 4h-23q-11 6 -24 6q-7 0 -46 17l-45 24q-43 26 -69 77q-27 50 -27 89q0 29 30 97q32 66 54 96l-4 4q93 122 97 126q59 66 140 108l-1 4q-2 3 -7 3q-28 0 -53 -4 q22 24 38 31v-1q0 -4 4 -5l4 6h17q46 0 85 -19q62 -29 71 -31q12 -10 25 -14q-7 0 -7 -3l7 -3l-9 -7l8 -4l12 4l-4 -7q3 -2 9 -4q0 -6 9 -16q3 -4 6.5 -7.5t4.5 -5.5l2 -2q12 -22 39 -62q1 0 5 2l-4 5q5 -3 5 -5q0 -5 -11 -8q3 -1 21 -1q-5 -11 -3 -16q0 6 -6 14 q-5 -4 -17 -9q4 -2 7.5 -9t5.5 -9q4 3 4 4q0 2 -4 3q9 -3 11 -4l-3 -1q6 -5 13 -4q-7 0 -13 -3v-30q6 -3 12 -5h-1q-5 0 -6 -4q7 -3 7 -7q0 -3 -7 -10q2 0 15 -7zM643 538q-11 11 -22 42q-9 29 -21 43q2 7 7 16q-20 7 -46 38q-28 31 -44 39q0 -13 -9 -13q-10 0 -29.5 6 t-26.5 11q-30 -13 -74 -38q-33 -39 -67 -50q3 -4 3 -8q0 -12 -33 -17q-5 -19 -27 -27l9 -5q0 -1 -3 -1l-64 -88q1 -1 1 -3q0 -9 -21 -36q1 -2 1 -7q0 -14 -15 -53q-14 -39 -14 -52q0 -97 114 -161q4 -2 46 -20q2 -1 25 -1l10 -7q70 10 84 10q43 0 104 58q54 51 68 83 q28 68 44 155q-3 2 -3 13q0 13 3 73zM499 386l9 -7q-5 -15 -23 -36q-29 -31 -30 -33q-4 -4 -10 -9q-4 -3 -18 -10q-15 -14 -14 -18q-7 0 -21 -9q-14 -8 -15 -8t-6.5 3t-8.5 3l-4 -2q-4 -1 -5 -1q-3 0 -5 2.5t-4 2.5q-8 0 -14 10.5t-6 20.5q0 13 17 58q19 46 21 62q0 7 6 27 q5 20 5 26q0 12 -15 48q-6 -6 -20 -33q-15 -27 -35 -38q-11 -6 -12 -6q-4 0 -4 7q0 25 10 32q2 13 21 47q23 42 26 52q2 1 7 8q1 4 17 4q10 0 27 -53q14 -50 14 -64q0 -52 -23 -119q-16 -44 -16 -58l7 4q2 0 4.5 2.5t5.5 2.5q9 0 53 37q42 34 53 49l5 -1q2 0 6 2z" />
<glyph unicode="&#xb0;" horiz-adv-x="443" d="M356 605q0 -9 -14 -43q-15 -35 -20 -42q-4 -2 -12 -7t-12 -7q-18 -10 -17 -26q-18 2 -52 10q-50 45 -50 93q0 22 27 64q29 43 49 56q1 1 50 17l34 -51q17 -29 17 -64zM306 615q0 7 -6 16q-10 14 -10 16q-51 -49 -51 -95v-3q2 2 6 2q7 0 15 -8q10 10 46 72z" />
<glyph unicode="&#xb1;" horiz-adv-x="672" d="M516 448v-28q-41 -9 -48 -22l-11 10q-17 -21 -46 -21q-1 0 -8 2.5t-8 2.5q-3 0 -17 -7.5t-19 -7.5q-8 0 -13 -9q0 -39 -1 -70q12 -36 12 -78q0 -6 -5.5 -24t-5.5 -24q-1 0 -8 -3t-12 -3q-20 0 -25.5 6t-5.5 27q0 53 -10 149q-3 3 -8 3q-23 0 -58 -18t-40 -18 q-13 0 -30 11q-26 15 -28 16v33q11 12 22 12q36 0 129 37q9 9 9 33q0 8 -3 36t-3 36q0 69 30 69q37 0 37 -66q0 -6 -1 -22t-1 -18q0 -48 22 -48q6 0 25 2.5t24 2.5q59 0 105 -1zM492 77q-4 -12 -9 -38q-6 2 -11 2q-21 0 -38 -20l-9 11q-51 -22 -103 -22l-9 -12q-25 0 -37 -4 q-22 -7 -32 -9l4 -7q-2 -8 -89 -8v3l-9 64l2 1q3 2 6.5 4t7.5 2q6 0 36 8q30 9 36 9l14 -6l21 9q23 9 35 9q2 0 11 -3t11 -3q7 0 26 17l9 -12h8l9 12q14 -6 25 -6q6 0 26.5 6t26.5 6q4 0 16.5 -6.5t15.5 -6.5z" />
<glyph unicode="&#xb2;" horiz-adv-x="466" d="M466 382q-44 -27 -53 -27q-3 0 -3 1q0 2 -3 2q-2 0 -7.5 -6.5t-8.5 -6.5q-11 0 -37 -14q-16 -11 -37 -22q-12 -4 -29 -8q-2 -1 -5 -2t-4 -2q-3 0 -19 11q-14 9 -18 13l122 303l-3 11q-31 -18 -64 -52q-35 -39 -36 -72l9 -9q-7 -9 -14 -21q-4 3 -13 7t-14 7q-17 9 -17 23 q0 38 68 100t107 62q25 0 25 -27q0 -6 -11 -48q1 -3 10 -3l-109 -229q2 -2 3 -6.5t2.5 -8t3.5 -3.5q13 0 69 19t69 19q6 0 17 -11z" />
<glyph unicode="&#xb3;" horiz-adv-x="466" d="M470 423q0 -28 -33 -85q-6 -9 -61 -58q-53 -49 -59 -49q-3 0 -15.5 7.5t-14.5 7.5q10 18 76 86q58 57 58 85q0 30 -27 30q-16 0 -48 -6q-35 -5 -47 -5q-3 0 -17 5.5t-16 5.5v16q23 21 56 68q29 41 46 76q-2 2 -4 2q-9 0 -10.5 -1t-1.5 -8q0 -3 -3 -3q-2 0 -9 2t-9 2 q-13 0 -42 -39l-7 7q-20 -18 -30 -28q-18 -18 -19 -35q-7 5 -22 7q-7 1 -23 16q9 22 45 52q31 27 59 40q96 44 102 44q14 0 29 -8t15 -19q0 -16 -42 -78q-41 -61 -43 -75q3 4 13 4q4 0 15 -2t13 -2t6 2l5 2q19 0 41 -24q24 -23 24 -42z" />
<glyph unicode="&#xb4;" horiz-adv-x="411" d="M323 655q-16 -12 -23 -18q-16 -12 -16 -21q0 -5 4 -9l-21 -15l-9 6q-1 -1 -1 -3t5 -7q-1 1 -3 1q-1 0 -4 -1t-4 -1q-48 -31 -119 -88l-41 37v13q80 46 183 100l8 -8q1 3 4 10q3 6 8 6q4 0 4 -2q-1 -1 -1 -3t1 -3q1 4 7 11q1 0 7 -2t11 -3z" />
<glyph unicode="&#xb9;" horiz-adv-x="402" d="M349 635q-2 2 -3 2q-3 0 -6 -7q-21 -56 -21 -169q0 -1 -0.5 -6t-0.5 -7q0 -8 3 -14q-4 -4 -4 -13q0 -4 1 -17t1 -16q0 -16 -7 -22q2 -1 11 -6v-13q-7 -3 -12 -48q-11 1 -22 12q-3 13 -10 62q-1 13 -3 42l-2 3q-2 2 -4 5.5t-2 6.5q0 2 2 9t2 10q1 6 1 59q0 36 6 59l-2 -2 q-2 2 -2 6t6 20.5t6 20.5l5 36q5 14 29 14q6 0 15 -11q12 -15 13 -16z" />
<glyph unicode="&#xba;" horiz-adv-x="473" d="M377 509l6 6q5 33 -4 59q-12 12 -20 23q-22 -58 -52 -76l-9 -62q-2 -20 -1 -52q2 -40 6 -50l13 3l-9 7q1 1 4 1q27 20 44 66q4 11 22 75zM441 498q-3 -19 -12 -23q-1 -3 -1 -8t-1 -7q-15 -98 -108 -169q-5 2 -48 10q-26 5 -38 29q-4 7 -6 62q-1 55 0 68q7 53 51 130 q53 94 104 89q31 -22 48 -85q16 -56 11 -96z" />
<glyph unicode="&#xbb;" horiz-adv-x="738" d="M148 84q1 4 10 11q-7 7 -7 12q0 10 17 25q18 16 27 23q0 7 10 23q13 9 42 48q28 40 28 54q0 22 -48 85l-65 82q6 30 7 30q6 11 30 11q18 0 81 -92t63 -114q0 -21 -60 -96q-59 -70 -81 -84q-20 -6 -54 -18zM348 84q1 4 10 11q-7 7 -7 12q0 10 17 25q18 16 27 23q0 7 10 23 q13 9 42 48q28 40 28 54q0 22 -48 85l-65 82q6 30 7 30q6 11 30 11q18 0 81 -92t63 -114q0 -21 -60 -96q-59 -70 -81 -84q-20 -6 -54 -18z" />
<glyph unicode="&#xbc;" horiz-adv-x="736" d="M208 634q-2 2 -3 2q-2 0 -5 -7q-18 -49 -18 -149q0 -2 -0.5 -6t-0.5 -6q0 -5 2 -13q-3 -3 -3 -11q0 -4 1 -15t1 -15q0 -14 -6 -19q7 -3 9 -5v-12q-7 -3 -11 -43q-9 1 -20 11q-5 30 -8 55q-2 12 -3 37l-1 2q-2 2 -4 5.5t-2 6.5q0 2 2 8t2 8q1 6 1 53q0 30 5 52l-1 -1 q-3 2 -3 5t5.5 18t5.5 19l5 32q4 12 26 12q6 0 13 -10q1 -1 11 -14zM484 704q0 -10 -20 -48q-24 -43 -26 -50q-3 -9 -10 -34q-15 -10 -15 -34q0 -8 -11 -30q-14 -26 -15 -34q-11 -46 -20 -65q-14 -21 -23 -38l-21 -55q-13 -33 -16 -56q-6 -11 -16 -45l-42 -107 q-25 -61 -23 -109v-9q-5 -9 -6 -28q-4 1 -22 -8q-3 5 -12 10l-8 4q-2 1 -5.5 15.5t-3.5 19.5q0 21 12 53l21 50v5q-1 19 17 59q17 38 19 58q8 13 20 45q17 46 17 47q23 46 78 213q17 47 46 113q39 89 48 89t23 -11t14 -20zM627 141q2 -4 2 -8q0 -2 -1 -10t-1 -10q0 6 -24 6 l-8 -6q0 3 -14 9q-1 -1 -13 -15q-5 -25 -5 -26q0 -3 3 -15t2 -16q17 -14 17 -28q0 -7 -8.5 -13t-17.5 -7q-2 8 -26 9q-8 40 -8 53q0 2 2 8.5t2 8.5q0 10 -10 10q-5 0 -41 -18t-41 -18q-11 0 -24 -7q-7 13 -28 16v10q0 6 56 91l33 50l26 37l9 14q4 11 10 25l22 50 q12 29 18 51q1 4 7.5 7.5t10.5 3.5q8 0 20 -18t12 -27q0 -4 -10 -37q-7 -21 -22 -86q0 -23 -4 -56q-4 0 -4 -14q0 -18 7 -18q4 0 5 1l-4 3q1 -1 22 -1q2 0 13 -4.5t15 -4.5zM538 203v37q-52 -75 -85 -139l8 6q2 0 2.5 1.5t3.5 1.5q1 0 6 -1.5t6 -1.5q6 9 23 16l27 12 q2 31 6 62q0 1 1.5 2t1.5 4z" />
<glyph unicode="&#xbd;" horiz-adv-x="718" d="M188 646l-2 2q-4 0 -5 -7q-20 -52 -20 -155q0 -2 -0.5 -6t-0.5 -6q0 -7 3 -13q-4 -4 -4 -12q0 -3 1 -15t1 -16q0 -14 -6 -20l10 -5v-13q-6 -1 -11 -44q-10 3 -21 12l-9 56q-2 14 -3 39l-4 5q-4 6 -4 9q0 2 2 8.5t2 8.5q2 12 2 55q0 32 5 54l-2 -1q-2 2 -2 5q0 4 6 19 t6 19q3 33 4 34q4 12 27 12q5 0 14 -10q8 -10 11 -15zM464 718q0 -10 -21 -51q-25 -47 -27 -51t-5 -16l-6 -19q-16 -12 -16 -35q0 -8 -11 -32q-14 -27 -17 -35q-10 -41 -20 -67q-6 -8 -25 -40q-17 -46 -22 -58q-15 -35 -18 -58q-3 -5 -16 -47l-45 -110q-25 -66 -24 -114v-9 q-4 -9 -6 -29q-4 1 -23 -8q-4 5 -12.5 9t-9.5 5q-2 2 -6 17q-4 13 -4 20q0 24 13 54l22 52v6q-1 21 18 61q18 38 20 61q12 19 22 46q15 45 17 49q27 55 83 221q9 25 49 118q42 92 51 92q10 0 24.5 -11.5t14.5 -20.5zM649 44q-46 -28 -54 -28q-4 0 -4 1l1 1q0 2 -3 2 q-2 0 -7.5 -7t-9.5 -7q-9 0 -37 -14q-16 -11 -37 -22q-4 -2 -30 -9l-9 -3q-5 0 -19 10q-18 13 -19 14l124 306l-3 11q-35 -20 -64 -52q-35 -40 -37 -73l9 -9q-7 -10 -14 -22l-27 15q-17 9 -17 23q0 39 68 101q69 63 109 63q25 0 25 -28q0 -7 -12 -48q2 -3 11 -3l-110 -231 q2 -2 3 -6.5t2 -8.5t3 -4q13 0 70 19q60 20 70 20q5 0 18 -11z" />
<glyph unicode="&#xbe;" horiz-adv-x="747" d="M329 432q0 -26 -33 -82q-5 -9 -59 -56q-53 -47 -58 -47q-3 0 -15.5 7.5t-13.5 7.5q11 19 74 82q57 56 57 82q0 29 -26 29q-15 0 -47 -6q-33 -5 -46 -5q-3 0 -16.5 5.5t-15.5 5.5v15q21 20 54 65q28 39 45 74q-2 2 -4 2q-9 0 -10 -1t-1 -7q0 -3 -4 -3q-2 0 -8.5 1.5 t-8.5 1.5q-13 0 -41 -37l-7 7q-9 -9 -29 -27q-17 -17 -18 -34q-12 6 -22 7q-9 2 -22 15q8 21 44 50q33 28 57 38q90 43 100 43q14 0 28.5 -8t14.5 -18q0 -17 -42 -75q-41 -59 -41 -73q3 4 12 4q3 0 14 -2t14 -2q1 0 5 2t5 2q18 0 41 -23t23 -40zM525 672q0 -9 -22 -46 q-23 -37 -28 -47q-2 -6 -10 -33q-16 -10 -16 -32q0 -9 -12 -30q-14 -24 -17 -32q-10 -39 -20 -62q-10 -12 -25 -37q-9 -24 -23 -53q-15 -32 -18 -54q-4 -6 -16 -43q-40 -88 -46 -102q-26 -61 -24 -105v-8q-4 -9 -6 -27q-3 1 -24 -7q-4 5 -12.5 8t-9.5 4q-9 27 -9 34 q0 21 12 51q16 32 23 48v5q-1 19 18 56q20 38 21 56q11 17 21 43q14 37 18 45q25 48 84 205q10 26 49 108q42 86 52 86t25 -11t15 -20zM632 140q2 -4 2 -8q0 -2 -1 -10.5t-1 -10.5q0 7 -25 7l-8 -7q0 3 -15 9q-8 -8 -14 -15q-4 -21 -4 -28q0 -3 2.5 -15t1.5 -17 q18 -13 18 -29q0 -14 -27 -21q-1 8 -27 10q-8 40 -8 55q0 2 1.5 9t1.5 8q0 11 -10 11q-6 0 -43 -19t-42 -19q-12 0 -25 -7q-7 13 -29 17v10q0 7 59 95q58 85 70 106q4 11 10 25q9 24 23 53q9 22 19 53q1 3 8 7t11 4q8 0 20 -19q13 -17 13 -27l-1 -4q-1 -4 -4 -15l-6 -20 q-7 -23 -22 -90q0 -4 -2 -24l-2 -34h-1q-3 0 -3 -15q0 -19 7 -19q3 0 5 2l-4 3q1 -1 22 -1q2 0 14 -5t16 -5zM539 205v38q-46 -66 -89 -145l9 6q2 0 2.5 2t3.5 2q1 0 13 -4q4 9 24 18l28 12q2 32 6 65q0 1 1.5 1.5t1.5 4.5z" />
<glyph unicode="&#xbf;" horiz-adv-x="656" d="M83 -138q0 72 116 200q7 17 26 39q27 33 30 36q36 51 57 105q16 6 24 45l-2 2q6 27 5 28q5 5 14 21q4 -4 22 -4q0 -4 2 -18.5t2 -18.5t-4 -13t-4 -11q1 -4 6 -4q-23 -64 -49 -116q-4 -5 -25 -24q-22 -40 -83 -125q-55 -75 -82 -127v-10l6 -7q8 8 20 8q8 0 10 3l-2 3l8 -6 q2 8 23 8l8 8q19 -1 35 15q31 9 75 50q47 44 47 71q0 14 -16 45q2 0 9.5 4t11.5 4q9 0 28 -18t22 -18q-4 -7 -4 -16q0 -2 1 -10.5t1 -11.5q0 -61 -80 -120q-69 -51 -137 -62l-8 -8q-16 -4 -56 -4q-23 0 -40 17t-17 40zM317 598q5 9 14 9q19 0 20 4v-1q24 -20 24 -37 q0 -7 -7 -14t-14 -7q-31 0 -37 46z" />
<glyph unicode="&#xc0;" horiz-adv-x="417" d="M565 365l-108 -31q-33 0 -67 -19q-5 -3 -34 -19l-8 4q-15 0 -23.5 -16.5t-8.5 -36.5q0 -15 9 -50q9 -33 9 -50q0 -3 -1 -15t-1 -15q0 -14 10 -41q11 -33 12 -46q1 -6 8 -41q-2 0 -8.5 -9t-10.5 -9q-10 0 -34 18q-1 11 -9 33q-8 24 -8 35q0 3 3 11.5t3 9.5q0 3 -5 13 q0 35 -12 64h1q4 0 4 8q0 9 -4 9h-3q0 -2 1 -3q4 4 4 11q0 6 -6 25t-6 24q0 6 -1 20t-1 18q-57 -13 -85 -26q-27 -14 -71 -58q-10 -49 -52 -191q-36 4 -40 4q-10 9 -10 21q0 3 38 146q-18 13 -38 43q5 4 35 18q20 9 32 25q5 5 9 27q4 21 7 31q10 19 28 59q68 193 155 404 l-13 17q0 6 3.5 27.5t3.5 26.5q0 8 7 14t14 6q28 0 41 -37q0 -4 1.5 -15t1.5 -13q0 -24 -6 -68q-5 -35 -8 -67q-5 -78 -5 -168q0 -68 -1 -73q0 -1 -2.5 -7t-2.5 -10q0 -35 14 -61l3 8q34 6 140 33q59 14 62 14q20 0 34 -32zM274 365q0 4 -4 21.5t-4 23.5q0 5 1 9v8 q0 9 -3 11q2 18 2 29l-11 95q-12 -36 -57 -142q-37 -92 -50 -145q4 4 18 4q9 0 51 18q43 19 46 25q9 16 5 39q0 1 3 0q3 0 3 4zM229 965l-12 -12h-16q-2 0 -13.5 5t-17.5 5l-11 11l-32 20q-65 49 -80 109q34 17 43 17q6 0 23 -30q14 -24 21 -37q8 -11 53 -46q41 -33 42 -42z " />
<glyph unicode="&#xc1;" horiz-adv-x="417" d="M565 365l-108 -31q-33 0 -67 -19q-5 -3 -34 -19l-8 4q-15 0 -23.5 -16.5t-8.5 -36.5q0 -15 9 -50q9 -33 9 -50q0 -3 -1 -15t-1 -15q0 -14 10 -41q11 -33 12 -46q1 -6 8 -41q-2 0 -8.5 -9t-10.5 -9q-10 0 -34 18q-1 11 -9 33q-8 24 -8 35q0 3 3 11.5t3 9.5q0 3 -5 13 q0 35 -12 64h1q4 0 4 8q0 9 -4 9h-3q0 -2 1 -3q4 4 4 11q0 6 -6 25t-6 24q0 6 -1 20t-1 18q-57 -13 -85 -26q-27 -14 -71 -58q-10 -49 -52 -191q-36 4 -40 4q-10 9 -10 21q0 3 38 146q-18 13 -38 43q5 4 35 18q20 9 32 25q5 5 9 27q4 21 7 31q10 19 28 59q68 193 155 404 l-13 17q0 6 3.5 27.5t3.5 26.5q0 8 7 14t14 6q28 0 41 -37q0 -4 1.5 -15t1.5 -13q0 -24 -6 -68q-5 -35 -8 -67q-5 -78 -5 -168q0 -68 -1 -73q0 -1 -2.5 -7t-2.5 -10q0 -35 14 -61l3 8q34 6 140 33q59 14 62 14q20 0 34 -32zM274 365q0 4 -4 21.5t-4 23.5q0 5 1 9v8 q0 9 -3 11q2 18 2 29l-11 95q-12 -36 -57 -142q-37 -92 -50 -145q4 4 18 4q9 0 51 18q43 19 46 25q9 16 5 39q0 1 3 0q3 0 3 4zM473 1127q-16 -12 -23 -18q-16 -12 -16 -21q0 -5 4 -9l-21 -15l-9 6q-1 -1 -1 -3t5 -7q-1 1 -3 1q-1 0 -4 -1t-4 -1q-48 -31 -119 -88l-41 37v13 q80 46 183 100l8 -8q1 3 4 10q3 6 8 6q4 0 4 -2q-1 -1 -1 -3t1 -3q1 4 7 11q1 0 7 -2t11 -3z" />
<glyph unicode="&#xc2;" horiz-adv-x="417" d="M565 365l-108 -31q-33 0 -67 -19q-5 -3 -34 -19l-8 4q-15 0 -23.5 -16.5t-8.5 -36.5q0 -15 9 -50q9 -33 9 -50q0 -3 -1 -15t-1 -15q0 -14 10 -41q11 -33 12 -46q1 -6 8 -41q-2 0 -8.5 -9t-10.5 -9q-10 0 -34 18q-1 11 -9 33q-8 24 -8 35q0 3 3 11.5t3 9.5q0 3 -5 13 q0 35 -12 64h1q4 0 4 8q0 9 -4 9h-3q0 -2 1 -3q4 4 4 11q0 6 -6 25t-6 24q0 6 -1 20t-1 18q-57 -13 -85 -26q-27 -14 -71 -58q-10 -49 -52 -191q-36 4 -40 4q-10 9 -10 21q0 3 38 146q-18 13 -38 43q5 4 35 18q20 9 32 25q5 5 9 27q4 21 7 31q10 19 28 59q68 193 155 404 l-13 17q0 6 3.5 27.5t3.5 26.5q0 8 7 14t14 6q28 0 41 -37q0 -4 1.5 -15t1.5 -13q0 -24 -6 -68q-5 -35 -8 -67q-5 -78 -5 -168q0 -68 -1 -73q0 -1 -2.5 -7t-2.5 -10q0 -35 14 -61l3 8q34 6 140 33q59 14 62 14q20 0 34 -32zM274 365q0 4 -4 21.5t-4 23.5q0 5 1 9v8 q0 9 -3 11q2 18 2 29l-11 95q-12 -36 -57 -142q-37 -92 -50 -145q4 4 18 4q9 0 51 18q43 19 46 25q9 16 5 39q0 1 3 0q3 0 3 4zM438 944q-3 0 -9 7q-5 -8 -11 -8q-4 0 -18 14l-9 9l-6 6l-2 3h-4q-2 0 -14 6q-8 10 -37 27q-29 19 -40 19q-16 0 -58 -49l-52 -65h-18 q-16 0 -16 30q0 13 60 78q61 64 76 64q16 0 72 -41q58 -41 68 -57z" />
<glyph unicode="&#xc3;" horiz-adv-x="417" d="M565 365l-108 -31q-33 0 -67 -19q-5 -3 -34 -19l-8 4q-15 0 -23.5 -16.5t-8.5 -36.5q0 -15 9 -50q9 -33 9 -50q0 -3 -1 -15t-1 -15q0 -14 10 -41q11 -33 12 -46q1 -6 8 -41q-2 0 -8.5 -9t-10.5 -9q-10 0 -34 18q-1 11 -9 33q-8 24 -8 35q0 3 3 11.5t3 9.5q0 3 -5 13 q0 35 -12 64h1q4 0 4 8q0 9 -4 9h-3q0 -2 1 -3q4 4 4 11q0 6 -6 25t-6 24q0 6 -1 20t-1 18q-57 -13 -85 -26q-27 -14 -71 -58q-10 -49 -52 -191q-36 4 -40 4q-10 9 -10 21q0 3 38 146q-18 13 -38 43q5 4 35 18q20 9 32 25q5 5 9 27q4 21 7 31q10 19 28 59q68 193 155 404 l-13 17q0 6 3.5 27.5t3.5 26.5q0 8 7 14t14 6q28 0 41 -37q0 -4 1.5 -15t1.5 -13q0 -24 -6 -68q-5 -35 -8 -67q-5 -78 -5 -168q0 -68 -1 -73q0 -1 -2.5 -7t-2.5 -10q0 -35 14 -61l3 8q34 6 140 33q59 14 62 14q20 0 34 -32zM274 365q0 4 -4 21.5t-4 23.5q0 5 1 9v8 q0 9 -3 11q2 18 2 29l-11 95q-12 -36 -57 -142q-37 -92 -50 -145q4 4 18 4q9 0 51 18q43 19 46 25q9 16 5 39q0 1 3 0q3 0 3 4zM463 1082q2 -10 2 -17q0 -24 -11 -55l-26 -26q-17 -17 -31 -17q-20 0 -25 -5l-8 9l1 1q0 3 -6 3t-3 -8q-2 5 -22 13q-11 12 -27 22q-5 3 -21 24 q-14 18 -26 18q-13 0 -36 -16q-20 -14 -30 -27q0 -1 -6 -16q-5 -14 -9 -14q-3 0 -9 6.5t-8 6.5q-3 0 -5.5 -2.5t-4.5 -2.5q-9 0 -9 22q0 27 36 60q37 34 64 34q22 0 60 -34q40 -34 52 -34q3 0 11 -4.5t11 -4.5q23 0 47 24z" />
<glyph unicode="&#xc4;" horiz-adv-x="417" d="M565 365l-108 -31q-33 0 -67 -19q-5 -3 -34 -19l-8 4q-15 0 -23.5 -16.5t-8.5 -36.5q0 -15 9 -50q9 -33 9 -50q0 -3 -1 -15t-1 -15q0 -14 10 -41q11 -33 12 -46q1 -6 8 -41q-2 0 -8.5 -9t-10.5 -9q-10 0 -34 18q-1 11 -9 33q-8 24 -8 35q0 3 3 11.5t3 9.5q0 3 -5 13 q0 35 -12 64h1q4 0 4 8q0 9 -4 9h-3q0 -2 1 -3q4 4 4 11q0 6 -6 25t-6 24q0 6 -1 20t-1 18q-57 -13 -85 -26q-27 -14 -71 -58q-10 -49 -52 -191q-36 4 -40 4q-10 9 -10 21q0 3 38 146q-18 13 -38 43q5 4 35 18q20 9 32 25q5 5 9 27q4 21 7 31q10 19 28 59q68 193 155 404 l-13 17q0 6 3.5 27.5t3.5 26.5q0 8 7 14t14 6q28 0 41 -37q0 -4 1.5 -15t1.5 -13q0 -24 -6 -68q-5 -35 -8 -67q-5 -78 -5 -168q0 -68 -1 -73q0 -1 -2.5 -7t-2.5 -10q0 -35 14 -61l3 8q34 6 140 33q59 14 62 14q20 0 34 -32zM274 365q0 4 -4 21.5t-4 23.5q0 5 1 9v8 q0 9 -3 11q2 18 2 29l-11 95q-12 -36 -57 -142q-37 -92 -50 -145q4 4 18 4q9 0 51 18q43 19 46 25q9 16 5 39q0 1 3 0q3 0 3 4zM250 1020q0 -2 -9 -27q-6 -14 -24 -19q-8 5 -26 26q-23 28 -25 31v21q3 0 18.5 3.5t20.5 3.5q9 0 25 -15zM424 1017q0 -17 -11.5 -28.5 t-28.5 -11.5q-11 0 -22 20t-11 32q0 11 15 22t27 11q31 0 31 -45z" />
<glyph unicode="&#xc5;" horiz-adv-x="417" d="M386 1080q0 -9 -14 -43q-15 -35 -20 -42q-4 -3 -12 -7t-12 -7q-18 -10 -17 -26q-18 2 -52 10q-50 45 -50 93q0 22 27 64q29 43 49 56q1 0 50 17l34 -51q17 -29 17 -64zM336 1090q0 7 -6 16q-10 14 -10 16q-51 -50 -51 -95v-3q2 2 6 2q7 0 15 -8q10 10 46 72zM565 365 l-108 -31q-33 0 -67 -19q-5 -3 -34 -19l-8 4q-15 0 -23.5 -16.5t-8.5 -36.5q0 -15 9 -50q9 -33 9 -50q0 -3 -1 -15t-1 -15q0 -14 10 -41q11 -33 12 -46q1 -6 8 -41q-2 0 -8.5 -9t-10.5 -9q-10 0 -34 18q-1 11 -9 33q-8 24 -8 35q0 3 3 11.5t3 9.5q0 3 -5 13q0 35 -12 64h1 q4 0 4 8q0 9 -4 9h-3q0 -2 1 -3q4 4 4 11q0 6 -6 25t-6 24q0 6 -1 20t-1 18q-57 -13 -85 -26q-27 -14 -71 -58q-10 -49 -52 -191q-36 4 -40 4q-10 9 -10 21q0 3 38 146q-18 13 -38 43q5 4 35 18q20 9 32 25q5 5 9 27q4 21 7 31q10 19 28 59q68 193 155 404l-13 17 q0 6 3.5 27.5t3.5 26.5q0 8 7 14t14 6q28 0 41 -37q0 -4 1.5 -15t1.5 -13q0 -24 -6 -68q-5 -35 -8 -67q-5 -78 -5 -168q0 -68 -1 -73q0 -1 -2.5 -7t-2.5 -10q0 -35 14 -61l3 8q34 6 140 33q59 14 62 14q20 0 34 -32zM274 365q0 4 -4 21.5t-4 23.5q0 5 1 9v8q0 9 -3 11 q2 18 2 29l-11 95q-12 -36 -57 -142q-37 -92 -50 -145q4 4 18 4q9 0 51 18q43 19 46 25q9 16 5 39q0 1 3 0q3 0 3 4z" />
<glyph unicode="&#xc6;" horiz-adv-x="988" d="M565 365l-108 -31q-33 0 -67 -19q-5 -3 -34 -19l-8 4q-15 0 -23.5 -16.5t-8.5 -36.5q0 -15 9 -50q9 -33 9 -50q0 -3 -1 -15t-1 -15q0 -14 10 -41q11 -33 12 -46q1 -6 8 -41q-2 0 -8.5 -9t-10.5 -9q-10 0 -34 18q-1 11 -9 33q-8 24 -8 35q0 3 3 11.5t3 9.5q0 3 -5 13 q0 35 -12 64h1q4 0 4 8q0 9 -4 9h-3q0 -2 1 -3q4 4 4 11q0 6 -6 25t-6 24q0 6 -1 20t-1 18q-57 -13 -85 -26q-27 -14 -71 -58q-10 -49 -52 -191q-36 4 -40 4q-10 9 -10 21q0 3 38 146q-18 13 -38 43q5 4 35 18q20 9 32 25q5 5 9 27q4 21 7 31q10 19 28 59q68 193 155 404 l-13 17q0 6 3.5 27.5t3.5 26.5q0 8 7 14t14 6q28 0 41 -37q0 -4 1.5 -15t1.5 -13q0 -24 -6 -68q-5 -35 -8 -67q-5 -78 -5 -168q0 -68 -1 -73q0 -1 -2.5 -7t-2.5 -10q0 -35 14 -61l3 8q34 6 140 33q59 14 62 14q20 0 34 -32zM274 365q0 4 -4 21.5t-4 23.5q0 5 1 9v8 q0 9 -3 11q2 18 2 29l-11 95q-12 -36 -57 -142q-37 -92 -50 -145q4 4 18 4q9 0 51 18q43 19 46 25q9 16 5 39q0 1 3 0q3 0 3 4zM1137 726q-1 0 -8.5 -5.5t-12.5 -5.5q-2 0 -12.5 3.5t-14.5 3.5q-6 0 -27 3.5t-28 3.5q-4 0 -9 -4.5t-9 -4.5q-2 0 -11.5 2t-13.5 2q-9 0 -11 -2 l3 -3q-5 5 -22 5q-11 0 -48 -9t-47 -9q-2 0 -8 2l-6 2q-22 0 -32 -18l-9 9q-9 -9 -17 -9l-10 -9q-2 0 -7 2.5t-9 2.5q-7 0 -7 -2l4 -5l-8 7q-9 -19 -19 -19q-5 0 -5 2q1 0 1 1q0 2 -5 2q-8 0 -9 -1l3 -4q-2 2 -5 2q-8 0 -26 -7.5t-26 -7.5l-9 -9h-6q-9 0 -16 -1.5t-10 -3 t-13 -8.5t-15 -10q-25 -11 -27 -17q-1 -4 -26 -94q-22 -81 -22 -87v-22q1 -4 20 -4q14 0 18 -4l9 9q4 0 18.5 4.5t18.5 4.5q28 0 96 27l9 -9q5 5 17 5l9 9l28 5q5 0 5 -7q0 -1 5 -3q4 0 22.5 2t24.5 2q0 -17 -16 -17q-4 0 -25.5 -7t-27.5 -7l-14 -13q-6 -1 -38 -15 q-22 -8 -45 -8q-5 0 -5 1q1 1 1 2q1 2 1 3q0 2 -1 3q-21 -31 -95 -46l-10 -9q-3 1 -8 1q-35 0 -42 -63q-3 -24 -2 -88q-5 -13 -5 -19q0 -59 12 -97q7 -23 35 -64q32 -44 51 -44h20q45 0 180 57q59 27 120 91q57 64 62 64l6 -2q6 -3 7 -3q4 0 11 4t9 4q-67 -103 -70 -103 q-5 0 -5 2l1 2l1 2q0 3 -1 4q-20 -46 -121 -110q-126 -57 -147 -57q-4 0 -4 -2l3 -5q-2 -2 -4 -2q-5 -2 -5 1q1 0 1 1q0 2 -5 2q-3 0 -9 -4.5t-9 -4.5t-14 -2t-14 -2q-6 0 -44 20q-46 26 -49 27q0 6 4 10q-26 32 -42 72l3 9q-24 71 -24 96q0 3 6 20t6 23q0 4 -2.5 21 t-2.5 21q0 7 5.5 27.5t5.5 26.5q0 4 -2 15t-2 14v1q-2 2 -7 2q-6 0 -12 -3l-1 -1l-9 -9v-1q0 -1 -9 -3.5t-18 -8t-9 -14.5h-6q-17 0 -28 -1q-2 0 -4 -1l-9 -3q-9 0 -21 25q14 28 65 57l80 44l-1 3q0 16 12 49q13 31 11 52q6 13 15 51q9 35 19 49q-5 12 -20 12q-2 -1 -7 -8.5 t-10.5 -13.5t-9.5 -6t-12.5 -4.5t-11.5 -4.5q-4 0 -12 7t-12 7q-2 10 -2 14q0 28 52 55q58 28 69 49q2 0 10 -2t11 -2t59 14q215 54 217 54q6 0 26.5 -2.5t25.5 -2.5t7 2l-6 6q4 0 20.5 5.5t22.5 5.5q4 0 8 -3q1 -1 42 -4q19 -1 31 0q1 0 5.5 -3.5t9.5 -3.5q4 0 4 1v1 q11 7 18 7q6 0 18 -12q5 -4 9 -6.5t6.5 -3.5t4.5 -1h3q1 0 1 -1q-1 0 -1 -1l28 -12z" />
<glyph unicode="&#xc7;" horiz-adv-x="395" d="M287 54q8 -16 14 -132q6 -118 -1 -135q-1 -5 -14 -16q1 -12 -4 -44q-5 -30 -2 -45q-16 -4 -27 12q-1 4 -0.5 8t2.5 7t3 5l2 2q-13 21 -11 76q5 62 0 77q-3 8 -10 41q-4 12 -16 106q0 3 -2 15t-3 21q0 14 17 25q11 5 29 -3t23 -20zM521 349q0 -2 -11 -19q-13 -20 -13 -21 q-5 -22 -24 -62l-56 -68q-9 -14 -28 -37q-18 -16 -55 -61q-2 0 -13 -14q-6 -7 -11.5 -10.5t-8 -3.5t-2.5 -1l4 -6q-12 0 -22 -10q-7 -5 -11.5 -7.5t-5.5 -2.5h-2l3 -6l-4 -2q-7 0 -32 -14q-23 -14 -29 -21q-10 0 -27 -4.5t-18 -4.5q-4 0 -10.5 2.5t-8.5 2.5l-9 9 q-28 1 -57 35q-28 32 -33 37q2 2 2 6t-1 8v8q-19 16 -19 41l6 14q3 11 3 31q1 25 3 34q5 23 21 59q19 43 22 54q20 74 93 212l-3 5q15 36 67 128l72 105q55 76 87 76q33 0 33 -58q0 -5 -15 -25q-16 -20 -17 -27q-6 -17 -9 -51t-6 -46q-5 -13 -17 -61q-8 -82 -13 -123 q-9 -79 -30 -116q-2 21 -7 48q-6 32 -6 47q0 2 8 37q3 3 10 8q-9 26 -9 44q0 31 10 62q2 10 -2 24q1 14 10 48v38q-20 2 -33 -29q-20 -42 -23 -44q-10 -11 -21 -36l-15 -41q-6 -12 -43 -76q-16 -28 -82 -186q-11 -20 -20 -40q-21 -87 -21 -97q0 -5 4 -24t4 -24q0 -16 16 -41 t32 -25q1 0 13.5 -4.5t21.5 -4.5q22 11 23 11h-1q0 3 5 3q20 0 81 56l79 75q28 25 84 96q81 105 81 106q0 -1 2 -3.5t3 -5.5t1 -7z" />
<glyph unicode="&#xc8;" horiz-adv-x="429" d="M779 796q-1 0 -8.5 -5.5t-12.5 -5.5q-2 0 -12.5 3.5t-14.5 3.5q-6 0 -27 3.5t-28 3.5q-4 0 -9 -4.5t-9 -4.5q-2 0 -11.5 2t-13.5 2q-9 0 -11 -2l3 -3q-5 5 -22 5q-11 0 -48 -9t-47 -9q-2 0 -8 2l-6 2q-22 0 -32 -18l-9 9q-9 -9 -17 -9l-10 -9q-2 0 -7 2.5t-9 2.5 q-7 0 -7 -2l4 -5l-8 7q-9 -19 -19 -19q-5 0 -5 2q1 0 1 1q0 2 -5 2q-8 0 -9 -1l3 -4q-2 2 -5 2q-8 0 -26 -7.5t-26 -7.5l-9 -9h-6q-9 0 -16 -1.5t-10 -3t-13 -8.5t-15 -10q-25 -11 -27 -17q-1 -4 -26 -94q-22 -81 -22 -87v-22q1 -4 20 -4q14 0 18 -4l9 9q4 0 18.5 4.5 t18.5 4.5q28 0 96 27l9 -9q5 5 17 5l9 9l28 5q5 0 5 -7q0 -1 5 -3q4 0 22.5 2t24.5 2q0 -17 -16 -17q-4 0 -25.5 -7t-27.5 -7l-14 -13q-6 -1 -38 -15q-22 -8 -45 -8q-5 0 -5 1q1 1 1 2q1 2 1 3q0 2 -1 3q-21 -31 -95 -46l-10 -9q-3 1 -8 1q-35 0 -42 -63q-3 -24 -2 -88 q-5 -13 -5 -19q0 -59 12 -97q7 -23 35 -64q32 -44 51 -44h20q45 0 180 57q59 27 120 91q57 64 62 64l6 -2q6 -3 7 -3q4 0 11 4t9 4q-67 -103 -70 -103q-5 0 -5 2l1 2l1 2q0 3 -1 4q-20 -46 -121 -110q-126 -57 -147 -57q-4 0 -4 -2l3 -5q-2 -2 -4 -2q-5 -2 -5 1q1 0 1 1 q0 2 -5 2q-3 0 -9 -4.5t-9 -4.5t-14 -2t-14 -2q-6 0 -44 20q-46 26 -49 27q0 6 4 10q-26 32 -42 72l3 9q-24 71 -24 96q0 3 6 20t6 23q0 4 -2.5 21t-2.5 21q0 7 5.5 27.5t5.5 26.5q0 4 -2 15t-2 14v1q-2 2 -7 2q-6 0 -12 -3l-1 -1l-9 -9v-1q0 -1 -9 -3.5t-18 -8t-9 -14.5h-6 q-17 0 -28 -1q-2 0 -4 -1l-9 -3q-9 0 -21 25q14 28 65 57l80 44l-1 3q0 16 12 49q13 31 11 52q6 13 15 51q9 35 19 49q-5 12 -20 12q-2 -1 -7 -8.5t-10.5 -13.5t-9.5 -6t-12.5 -4.5t-11.5 -4.5q-4 0 -12 7t-12 7q-2 10 -2 14q0 28 52 55q58 28 69 49q2 0 10 -2t11 -2t59 14 q215 54 217 54q6 0 26.5 -2.5t25.5 -2.5t7 2l-6 6q4 0 20.5 5.5t22.5 5.5q4 0 8 -3q1 -1 42 -4q19 -1 31 0q1 0 5.5 -3.5t9.5 -3.5q4 0 4 1v1q11 7 18 7q6 0 18 -12q5 -4 9 -6.5t6.5 -3.5t4.5 -1h3q1 0 1 -1q-1 0 -1 -1l28 -12zM337 930l-12 -12h-16q-2 0 -13.5 5t-17.5 5 l-11 11l-32 20q-65 49 -80 109q34 17 43 17q6 0 23 -30q14 -24 21 -37q8 -11 53 -46q41 -33 42 -42z" />
<glyph unicode="&#xc9;" horiz-adv-x="429" d="M779 796q-1 0 -8.5 -5.5t-12.5 -5.5q-2 0 -12.5 3.5t-14.5 3.5q-6 0 -27 3.5t-28 3.5q-4 0 -9 -4.5t-9 -4.5q-2 0 -11.5 2t-13.5 2q-9 0 -11 -2l3 -3q-5 5 -22 5q-11 0 -48 -9t-47 -9q-2 0 -8 2l-6 2q-22 0 -32 -18l-9 9q-9 -9 -17 -9l-10 -9q-2 0 -7 2.5t-9 2.5 q-7 0 -7 -2l4 -5l-8 7q-9 -19 -19 -19q-5 0 -5 2q1 0 1 1q0 2 -5 2q-8 0 -9 -1l3 -4q-2 2 -5 2q-8 0 -26 -7.5t-26 -7.5l-9 -9h-6q-9 0 -16 -1.5t-10 -3t-13 -8.5t-15 -10q-25 -11 -27 -17q-1 -4 -26 -94q-22 -81 -22 -87v-22q1 -4 20 -4q14 0 18 -4l9 9q4 0 18.5 4.5 t18.5 4.5q28 0 96 27l9 -9q5 5 17 5l9 9l28 5q5 0 5 -7q0 -1 5 -3q4 0 22.5 2t24.5 2q0 -17 -16 -17q-4 0 -25.5 -7t-27.5 -7l-14 -13q-6 -1 -38 -15q-22 -8 -45 -8q-5 0 -5 1q1 1 1 2q1 2 1 3q0 2 -1 3q-21 -31 -95 -46l-10 -9q-3 1 -8 1q-35 0 -42 -63q-3 -24 -2 -88 q-5 -13 -5 -19q0 -59 12 -97q7 -23 35 -64q32 -44 51 -44h20q45 0 180 57q59 27 120 91q57 64 62 64l6 -2q6 -3 7 -3q4 0 11 4t9 4q-67 -103 -70 -103q-5 0 -5 2l1 2l1 2q0 3 -1 4q-20 -46 -121 -110q-126 -57 -147 -57q-4 0 -4 -2l3 -5q-2 -2 -4 -2q-5 -2 -5 1q1 0 1 1 q0 2 -5 2q-3 0 -9 -4.5t-9 -4.5t-14 -2t-14 -2q-6 0 -44 20q-46 26 -49 27q0 6 4 10q-26 32 -42 72l3 9q-24 71 -24 96q0 3 6 20t6 23q0 4 -2.5 21t-2.5 21q0 7 5.5 27.5t5.5 26.5q0 4 -2 15t-2 14v1q-2 2 -7 2q-6 0 -12 -3l-1 -1l-9 -9v-1q0 -1 -9 -3.5t-18 -8t-9 -14.5h-6 q-17 0 -28 -1q-2 0 -4 -1l-9 -3q-9 0 -21 25q14 28 65 57l80 44l-1 3q0 16 12 49q13 31 11 52q6 13 15 51q9 35 19 49q-5 12 -20 12q-2 -1 -7 -8.5t-10.5 -13.5t-9.5 -6t-12.5 -4.5t-11.5 -4.5q-4 0 -12 7t-12 7q-2 10 -2 14q0 28 52 55q58 28 69 49q2 0 10 -2t11 -2t59 14 q215 54 217 54q6 0 26.5 -2.5t25.5 -2.5t7 2l-6 6q4 0 20.5 5.5t22.5 5.5q4 0 8 -3q1 -1 42 -4q19 -1 31 0q1 0 5.5 -3.5t9.5 -3.5q4 0 4 1v1q11 7 18 7q6 0 18 -12q5 -4 9 -6.5t6.5 -3.5t4.5 -1h3q1 0 1 -1q-1 0 -1 -1l28 -12zM505 1076q-16 -12 -23 -18q-16 -12 -16 -21 q0 -5 4 -9l-21 -15l-9 6q-1 -1 -1 -3t5 -7q-1 1 -3 1q-1 0 -4 -1t-4 -1q-48 -31 -119 -88l-41 37v13q80 46 183 100l8 -8q1 3 4 10q3 6 8 6q4 0 4 -2q-1 -1 -1 -3t1 -3q1 4 7 11q1 0 7 -2t11 -3z" />
<glyph unicode="&#xca;" horiz-adv-x="429" d="M779 796q-1 0 -8.5 -5.5t-12.5 -5.5q-2 0 -12.5 3.5t-14.5 3.5q-6 0 -27 3.5t-28 3.5q-4 0 -9 -4.5t-9 -4.5q-2 0 -11.5 2t-13.5 2q-9 0 -11 -2l3 -3q-5 5 -22 5q-11 0 -48 -9t-47 -9q-2 0 -8 2l-6 2q-22 0 -32 -18l-9 9q-9 -9 -17 -9l-10 -9q-2 0 -7 2.5t-9 2.5 q-7 0 -7 -2l4 -5l-8 7q-9 -19 -19 -19q-5 0 -5 2q1 0 1 1q0 2 -5 2q-8 0 -9 -1l3 -4q-2 2 -5 2q-8 0 -26 -7.5t-26 -7.5l-9 -9h-6q-9 0 -16 -1.5t-10 -3t-13 -8.5t-15 -10q-25 -11 -27 -17q-1 -4 -26 -94q-22 -81 -22 -87v-22q1 -4 20 -4q14 0 18 -4l9 9q4 0 18.5 4.5 t18.5 4.5q28 0 96 27l9 -9q5 5 17 5l9 9l28 5q5 0 5 -7q0 -1 5 -3q4 0 22.5 2t24.5 2q0 -17 -16 -17q-4 0 -25.5 -7t-27.5 -7l-14 -13q-6 -1 -38 -15q-22 -8 -45 -8q-5 0 -5 1q1 1 1 2q1 2 1 3q0 2 -1 3q-21 -31 -95 -46l-10 -9q-3 1 -8 1q-35 0 -42 -63q-3 -24 -2 -88 q-5 -13 -5 -19q0 -59 12 -97q7 -23 35 -64q32 -44 51 -44h20q45 0 180 57q59 27 120 91q57 64 62 64l6 -2q6 -3 7 -3q4 0 11 4t9 4q-67 -103 -70 -103q-5 0 -5 2l1 2l1 2q0 3 -1 4q-20 -46 -121 -110q-126 -57 -147 -57q-4 0 -4 -2l3 -5q-2 -2 -4 -2q-5 -2 -5 1q1 0 1 1 q0 2 -5 2q-3 0 -9 -4.5t-9 -4.5t-14 -2t-14 -2q-6 0 -44 20q-46 26 -49 27q0 6 4 10q-26 32 -42 72l3 9q-24 71 -24 96q0 3 6 20t6 23q0 4 -2.5 21t-2.5 21q0 7 5.5 27.5t5.5 26.5q0 4 -2 15t-2 14v1q-2 2 -7 2q-6 0 -12 -3l-1 -1l-9 -9v-1q0 -1 -9 -3.5t-18 -8t-9 -14.5h-6 q-17 0 -28 -1q-2 0 -4 -1l-9 -3q-9 0 -21 25q14 28 65 57l80 44l-1 3q0 16 12 49q13 31 11 52q6 13 15 51q9 35 19 49q-5 12 -20 12q-2 -1 -7 -8.5t-10.5 -13.5t-9.5 -6t-12.5 -4.5t-11.5 -4.5q-4 0 -12 7t-12 7q-2 10 -2 14q0 28 52 55q58 28 69 49q2 0 10 -2t11 -2t59 14 q215 54 217 54q6 0 26.5 -2.5t25.5 -2.5t7 2l-6 6q4 0 20.5 5.5t22.5 5.5q4 0 8 -3q1 -1 42 -4q19 -1 31 0q1 0 5.5 -3.5t9.5 -3.5q4 0 4 1v1q11 7 18 7q6 0 18 -12q5 -4 9 -6.5t6.5 -3.5t4.5 -1h3q1 0 1 -1q-1 0 -1 -1l28 -12zM500 950q-3 0 -9 7q-5 -8 -11 -8q-4 0 -18 14 l-9 9l-6 6l-2 3h-4q-2 0 -14 6q-8 10 -37 27q-29 19 -40 19q-16 0 -58 -49l-52 -65h-18q-16 0 -16 30q0 13 60 78q61 64 76 64q16 0 72 -41q58 -41 68 -57z" />
<glyph unicode="&#xcb;" horiz-adv-x="429" d="M779 796q-1 0 -8.5 -5.5t-12.5 -5.5q-2 0 -12.5 3.5t-14.5 3.5q-6 0 -27 3.5t-28 3.5q-4 0 -9 -4.5t-9 -4.5q-2 0 -11.5 2t-13.5 2q-9 0 -11 -2l3 -3q-5 5 -22 5q-11 0 -48 -9t-47 -9q-2 0 -8 2l-6 2q-22 0 -32 -18l-9 9q-9 -9 -17 -9l-10 -9q-2 0 -7 2.5t-9 2.5 q-7 0 -7 -2l4 -5l-8 7q-9 -19 -19 -19q-5 0 -5 2q1 0 1 1q0 2 -5 2q-8 0 -9 -1l3 -4q-2 2 -5 2q-8 0 -26 -7.5t-26 -7.5l-9 -9h-6q-9 0 -16 -1.5t-10 -3t-13 -8.5t-15 -10q-25 -11 -27 -17q-1 -4 -26 -94q-22 -81 -22 -87v-22q1 -4 20 -4q14 0 18 -4l9 9q4 0 18.5 4.5 t18.5 4.5q28 0 96 27l9 -9q5 5 17 5l9 9l28 5q5 0 5 -7q0 -1 5 -3q4 0 22.5 2t24.5 2q0 -17 -16 -17q-4 0 -25.5 -7t-27.5 -7l-14 -13q-6 -1 -38 -15q-22 -8 -45 -8q-5 0 -5 1q1 1 1 2q1 2 1 3q0 2 -1 3q-21 -31 -95 -46l-10 -9q-3 1 -8 1q-35 0 -42 -63q-3 -24 -2 -88 q-5 -13 -5 -19q0 -59 12 -97q7 -23 35 -64q32 -44 51 -44h20q45 0 180 57q59 27 120 91q57 64 62 64l6 -2q6 -3 7 -3q4 0 11 4t9 4q-67 -103 -70 -103q-5 0 -5 2l1 2l1 2q0 3 -1 4q-20 -46 -121 -110q-126 -57 -147 -57q-4 0 -4 -2l3 -5q-2 -2 -4 -2q-5 -2 -5 1q1 0 1 1 q0 2 -5 2q-3 0 -9 -4.5t-9 -4.5t-14 -2t-14 -2q-6 0 -44 20q-46 26 -49 27q0 6 4 10q-26 32 -42 72l3 9q-24 71 -24 96q0 3 6 20t6 23q0 4 -2.5 21t-2.5 21q0 7 5.5 27.5t5.5 26.5q0 4 -2 15t-2 14v1q-2 2 -7 2q-6 0 -12 -3l-1 -1l-9 -9v-1q0 -1 -9 -3.5t-18 -8t-9 -14.5h-6 q-17 0 -28 -1q-2 0 -4 -1l-9 -3q-9 0 -21 25q14 28 65 57l80 44l-1 3q0 16 12 49q13 31 11 52q6 13 15 51q9 35 19 49q-5 12 -20 12q-2 -1 -7 -8.5t-10.5 -13.5t-9.5 -6t-12.5 -4.5t-11.5 -4.5q-4 0 -12 7t-12 7q-2 10 -2 14q0 28 52 55q58 28 69 49q2 0 10 -2t11 -2t59 14 q215 54 217 54q6 0 26.5 -2.5t25.5 -2.5t7 2l-6 6q4 0 20.5 5.5t22.5 5.5q4 0 8 -3q1 -1 42 -4q19 -1 31 0q1 0 5.5 -3.5t9.5 -3.5q4 0 4 1v1q11 7 18 7q6 0 18 -12q5 -4 9 -6.5t6.5 -3.5t4.5 -1h3q1 0 1 -1q-1 0 -1 -1l28 -12zM297 994q0 -2 -9 -27q-6 -14 -24 -19 q-8 5 -26 26q-22 28 -25 31v21q3 0 18.5 3.5t20.5 3.5q8 0 25 -15zM471 991q0 -17 -11.5 -28.5t-28.5 -11.5q-11 0 -22 20t-11 32q0 11 15 22t27 11q31 0 31 -45z" />
<glyph unicode="&#xcc;" horiz-adv-x="587" d="M850 423v-17q-4 2 -5 2l-3 -2q-2 -2 -6 -4t-8 -2q-1 0 -11 2l-17 -18q-9 -1 -47 -19q-34 -17 -50 -17q-54 0 -54 -66q-5 -6 -9 -15.5t-8 -24.5t-6 -20q-15 -43 -64 -111l-47 -58q-39 -46 -48 -46q-3 0 -20 -20t-24 -20q-5 0 -5 2v2q0 5 -4 5q-19 0 -19 -8q0 -2 7 -8 l-10 -11l-1 -1q-1 0 -3 -1t-4.5 -2t-6.5 -3l-8 -4l7 4q-6 7 -12 7q-3 0 -16 -6t-17 -6l13 -14l-15 13q-7 -9 -13 -9l-9 -9q-8 -3 -23 -18l-10 9q-7 1 -19 -12q5 -8 11 -6h6l-2 4v-1q0 -4 -4 -8q-4 8 -18 18l-7 -7l8 -10q-9 12 -14 17q-9 -16 -18 -27l-10 9q-3 -3 -3 -5t4 -6 l-9 7l-9 -14l-11 10q1 0 1 1q0 3 -8 3q-7 0 -7 -2l3 -7q-8 17 -30 24q4 4 6 10q14 54 25 78q43 91 140 183q91 87 189 131q55 25 115 70v74q-14 8 -17 25q0 4 -1.5 14t-2.5 15q-28 88 -76 143q-17 20 -64 57q-52 40 -70 40h-22q-2 0 -7 7t-9 7q-2 0 -9.5 -2t-9.5 -2l-10 -10 v2q0 3 -9 3q-2 0 -11 -2.5t-11 -2.5q-7 2 -22 5l-9 -9h-13q-17 0 -54 -34q-36 -33 -45 -52l-49 -105l2 -9q-9 -22 -14 -57l-3 -45q-5 -31 -17 -38l-14 -1q-7 0 -16 35q-8 34 -8 44q0 23 23 90q26 71 41 81l-3 4q107 150 277 150q11 0 56 -22q42 -20 57 -30q64 -40 122 -145 q59 -106 59 -180q0 -15 -5 -20q2 -2 12 -16q19 5 83 27q54 18 82 18q8 -2 24 -5zM533 660l13 5l-2 7l-11 -6v-6zM608 301q-6 0 -6 6l2 3q-7 -1 -25 -3l-9 -9q-4 0 -11 -4.5t-11 -4.5q-9 -2 -9 -4l-4 9q-16 -16 -46 -23l-13 -13l-5 9q1 -18 -5 -23q-17 -6 -52 -24 q-23 -20 -83 -63q5 -2 5 -4q-36 -26 -80 -95q-46 -71 -46 -111q0 -20 24 -20q26 0 32 13q5 -5 4 -9q14 10 46 22q29 11 41 23l25 9q12 0 85 67q74 68 81 82q46 98 53 133q0 1 -1 8t-1 8q0 11 9 18zM243 934l-12 -12h-16q-2 0 -13.5 5t-17.5 5l-11 11l-32 20q-65 49 -80 109 q34 17 43 17q6 0 23 -30q14 -24 21 -37q8 -11 53 -46q41 -33 42 -42z" />
<glyph unicode="&#xcd;" horiz-adv-x="587" d="M850 423v-17q-4 2 -5 2l-3 -2q-2 -2 -6 -4t-8 -2q-1 0 -11 2l-17 -18q-9 -1 -47 -19q-34 -17 -50 -17q-54 0 -54 -66q-5 -6 -9 -15.5t-8 -24.5t-6 -20q-15 -43 -64 -111l-47 -58q-39 -46 -48 -46q-3 0 -20 -20t-24 -20q-5 0 -5 2v2q0 5 -4 5q-19 0 -19 -8q0 -2 7 -8 l-10 -11l-1 -1q-1 0 -3 -1t-4.5 -2t-6.5 -3l-8 -4l7 4q-6 7 -12 7q-3 0 -16 -6t-17 -6l13 -14l-15 13q-7 -9 -13 -9l-9 -9q-8 -3 -23 -18l-10 9q-7 1 -19 -12q5 -8 11 -6h6l-2 4v-1q0 -4 -4 -8q-4 8 -18 18l-7 -7l8 -10q-9 12 -14 17q-9 -16 -18 -27l-10 9q-3 -3 -3 -5t4 -6 l-9 7l-9 -14l-11 10q1 0 1 1q0 3 -8 3q-7 0 -7 -2l3 -7q-8 17 -30 24q4 4 6 10q14 54 25 78q43 91 140 183q91 87 189 131q55 25 115 70v74q-14 8 -17 25q0 4 -1.5 14t-2.5 15q-28 88 -76 143q-17 20 -64 57q-52 40 -70 40h-22q-2 0 -7 7t-9 7q-2 0 -9.5 -2t-9.5 -2l-10 -10 v2q0 3 -9 3q-2 0 -11 -2.5t-11 -2.5q-7 2 -22 5l-9 -9h-13q-17 0 -54 -34q-36 -33 -45 -52l-49 -105l2 -9q-9 -22 -14 -57l-3 -45q-5 -31 -17 -38l-14 -1q-7 0 -16 35q-8 34 -8 44q0 23 23 90q26 71 41 81l-3 4q107 150 277 150q11 0 56 -22q42 -20 57 -30q64 -40 122 -145 q59 -106 59 -180q0 -15 -5 -20q2 -2 12 -16q19 5 83 27q54 18 82 18q8 -2 24 -5zM533 660l13 5l-2 7l-11 -6v-6zM608 301q-6 0 -6 6l2 3q-7 -1 -25 -3l-9 -9q-4 0 -11 -4.5t-11 -4.5q-9 -2 -9 -4l-4 9q-16 -16 -46 -23l-13 -13l-5 9q1 -18 -5 -23q-17 -6 -52 -24 q-23 -20 -83 -63q5 -2 5 -4q-36 -26 -80 -95q-46 -71 -46 -111q0 -20 24 -20q26 0 32 13q5 -5 4 -9q14 10 46 22q29 11 41 23l25 9q12 0 85 67q74 68 81 82q46 98 53 133q0 1 -1 8t-1 8q0 11 9 18zM483 1059q-16 -12 -23 -18q-16 -12 -16 -21q0 -5 4 -9l-21 -15l-9 6 q-1 -1 -1 -3t5 -7q-1 1 -3 1q-1 0 -4 -1t-4 -1q-48 -31 -119 -88l-41 37v13q80 46 183 100l8 -8q1 3 4 10q3 6 8 6q4 0 4 -2q-1 -1 -1 -3t1 -3q1 4 7 11q1 0 7 -2t11 -3z" />
<glyph unicode="&#xce;" horiz-adv-x="587" d="M850 406v17l-24 5q-28 0 -82 -18q-64 -22 -83 -27q-10 14 -12 16q5 5 5 20q0 74 -59 180q-58 105 -122 145q-15 10 -57 30q-45 22 -56 22q-170 0 -277 -150l3 -4q-15 -10 -41 -81q-23 -67 -23 -90q0 -10 8 -44q9 -35 16 -35l14 1q12 7 17 38l3 45q5 35 14 57l-2 9l49 105 q9 19 45 52q37 34 54 34h13l9 9l22 -5q2 0 11 2.5t11 2.5q9 0 9 -3v-2l10 10q2 0 9.5 2t9.5 2q4 0 9 -7t7 -7h22q18 0 70 -40q47 -37 64 -57q48 -55 76 -143q1 -5 2.5 -15t1.5 -14q3 -17 17 -25v-74q-60 -45 -115 -70q-98 -44 -189 -131q-97 -92 -140 -183q-11 -24 -25 -78 q-2 -6 -6 -10q22 -7 30 -24l-3 7q0 2 7 2q8 0 8 -3q0 -1 -1 -1l11 -10l9 14l9 -7q-4 4 -4 6t3 5l10 -9q9 11 18 27q5 -5 14 -17l-8 10l7 7q14 -10 18 -18q4 4 4 8v1l2 -4h-6q-6 -2 -11 6q12 13 19 12l10 -9q15 15 23 18l9 9q6 0 13 9l15 -13l-13 14q4 0 17 6t16 6q6 0 12 -7 l-7 -4q7 4 17 8l6 3l10 11q-7 6 -7 8q0 8 19 8q4 0 4 -5v-2q0 -2 5 -2q7 0 24 20t20 20q9 0 48 46l47 58q49 68 64 111q2 5 6 20t8 24.5t9 15.5q0 66 54 66q16 0 50 17q38 18 47 19l17 18q10 -2 11 -2q4 0 8 2t6 4l3 2q1 0 5 -2zM546 665l-13 -5v6l11 6zM608 301 q-9 -7 -9 -18q0 -1 1 -8t1 -8q-7 -35 -53 -133q-7 -14 -81 -82q-73 -67 -85 -67l-25 -9q-12 -12 -41 -23q-32 -12 -46 -22q1 4 -4 9q-6 -13 -32 -13q-24 0 -24 20q0 40 46 111q44 69 80 95q0 2 -5 4q60 43 83 63q35 18 52 24q6 5 5 23l5 -9l13 13q30 7 46 23l4 -9q4 3 9 4 q4 0 11 4.5t11 4.5l9 9q18 2 25 3l-2 -3q0 -6 6 -6zM208 945l18 43q10 15 67 57q58 41 73 41t75 -64q61 -64 61 -78q0 -30 -16 -30h-18l-52 65q-42 49 -58 49q-11 0 -40 -19q-29 -17 -37 -27q-12 -6 -14 -6h-4l-2 -2q-2 -3 -6 -7l-9 -9q-14 -14 -18 -14q-6 0 -11 8 q-6 -7 -9 -7z" />
<glyph unicode="&#xcf;" horiz-adv-x="587" d="M850 423v-17q-4 2 -5 2l-3 -2q-2 -2 -6 -4t-8 -2q-1 0 -11 2l-17 -18q-9 -1 -47 -19q-34 -17 -50 -17q-54 0 -54 -66q-5 -6 -9 -15.5t-8 -24.5t-6 -20q-15 -43 -64 -111l-47 -58q-39 -46 -48 -46q-3 0 -20 -20t-24 -20q-5 0 -5 2v2q0 5 -4 5q-19 0 -19 -8q0 -2 7 -8 l-10 -11l-1 -1q-1 0 -3 -1t-4.5 -2t-6.5 -3l-8 -4l7 4q-6 7 -12 7q-3 0 -16 -6t-17 -6l13 -14l-15 13q-7 -9 -13 -9l-9 -9q-8 -3 -23 -18l-10 9q-7 1 -19 -12q5 -8 11 -6h6l-2 4v-1q0 -4 -4 -8q-4 8 -18 18l-7 -7l8 -10q-9 12 -14 17q-9 -16 -18 -27l-10 9q-3 -3 -3 -5t4 -6 l-9 7l-9 -14l-11 10q1 0 1 1q0 3 -8 3q-7 0 -7 -2l3 -7q-8 17 -30 24q4 4 6 10q14 54 25 78q43 91 140 183q91 87 189 131q55 25 115 70v74q-14 8 -17 25q0 4 -1.5 14t-2.5 15q-28 88 -76 143q-17 20 -64 57q-52 40 -70 40h-22q-2 0 -7 7t-9 7q-2 0 -9.5 -2t-9.5 -2l-10 -10 v2q0 3 -9 3q-2 0 -11 -2.5t-11 -2.5q-7 2 -22 5l-9 -9h-13q-17 0 -54 -34q-36 -33 -45 -52l-49 -105l2 -9q-9 -22 -14 -57l-3 -45q-5 -31 -17 -38l-14 -1q-7 0 -16 35q-8 34 -8 44q0 23 23 90q26 71 41 81l-3 4q107 150 277 150q11 0 56 -22q42 -20 57 -30q64 -40 122 -145 q59 -106 59 -180q0 -15 -5 -20q2 -2 12 -16q19 5 83 27q54 18 82 18q8 -2 24 -5zM533 660l13 5l-2 7l-11 -6v-6zM608 301q-6 0 -6 6l2 3q-7 -1 -25 -3l-9 -9q-4 0 -11 -4.5t-11 -4.5q-9 -2 -9 -4l-4 9q-16 -16 -46 -23l-13 -13l-5 9q1 -18 -5 -23q-17 -6 -52 -24 q-23 -20 -83 -63q5 -2 5 -4q-36 -26 -80 -95q-46 -71 -46 -111q0 -20 24 -20q26 0 32 13q5 -5 4 -9q14 10 46 22q29 11 41 23l25 9q12 0 85 67q74 68 81 82q46 98 53 133q0 1 -1 8t-1 8q0 11 9 18zM294 969q0 -1 -9 -27q-6 -14 -24 -19q-8 5 -26 26q-23 29 -25 31v21 q3 0 18.5 3.5t20.5 3.5q9 0 25 -15zM468 966q0 -17 -11.5 -28.5t-28.5 -11.5q-11 0 -22 20t-11 32q0 11 15 22t27 11q31 0 31 -45z" />
<glyph unicode="&#xd0;" horiz-adv-x="563" d="M683 390v-21h-34q-52 1 -78 -2q-3 0 -16 -6t-17 -6t-6.5 2t-4.5 2q-11 0 -31 -15q-19 -13 -19 -24q0 -2 1 -8.5t1 -7.5q0 -28 -54 -104q-21 -28 -94 -97q-79 -75 -99 -75q-5 0 -69 -34q-65 -35 -72 -35q-21 0 -37 25t-29 21q1 107 -9 144q-5 17 -6 17q0 3 5.5 23t5.5 29 q0 6 2.5 23.5t2.5 21.5q0 3 -1.5 13t-1.5 12q0 20 6 54q-4 -1 -8.5 -2t-8 -2t-4.5 -1l4 -7q-2 -8 -89 -8v3l-9 64l2 1q3 2 6.5 4t7.5 2q5 0 37 8q29 9 35 9l14 -6l21 9q1 0 4 1t4 2q2 22 2 28q0 23 -10 89q-11 73 -16 87q-8 8 -19 39q-10 29 -10 45q0 38 40 75q41 38 78 38 q4 0 16 -3t16 -3q118 -9 231 -104q120 -102 120 -218q0 -4 -1 -15t-1 -14t3 -6v-39l8 -8q16 9 119 9q9 0 30.5 -10t31.5 -19zM256 429q-4 -12 -9 -38q-6 2 -11 2q-21 0 -38 -20l-9 11q-48 -20 -99 -22q-1 -2 -3 -4q-1 -42 -10 -229q49 77 126 126l56 43q35 26 60 31 q18 21 89 49q54 21 54 62q0 7 -3 7l-3 -2q1 4 1 12q0 17 -18 70l5 3l-21 30q1 18 -35 59l-50 56q-2 2 -13 9t-16 11q-23 15 -29 15t-23 11q-17 12 -23 12q-8 0 -55 18q-4 0 -12.5 1t-18 2.5t-12.5 1.5l-9 -10h-40q-14 0 -29 -19t-15 -34q0 -5 16 -53q0 15 7 22l-9 4 q14 10 34 20q25 -6 25 -80q0 -16 -13 -175l-1 -4q-2 -4 -3 -7q5 2 8 5q2 2 6.5 5.5t6.5 5.5l9 -12h8l9 12q14 -6 25 -6q6 0 26.5 6t26.5 6q4 0 16.5 -6.5t15.5 -6.5zM434 310l-6 26q-4 -2 -13 -8t-14 -9l-13 -7q-8 -5 -14 -7.5t-14 -4t-16 -1.5q-16 -17 -60 -39 q-42 -21 -58 -37q-12 -12 -17 -19q-12 -14 -21 -12q-3 0 -6 1q-1 -11 -16 -32q-10 -11 -23 -28q-14 -20 -35 -77l1 -4q1 -4 3.5 -7.5t6.5 -3.5q16 0 89 44q72 45 88 59l41 44q19 19 50 64t47 58z" />
<glyph unicode="&#xd1;" horiz-adv-x="492" d="M509 -7q-5 5 -8 5q-2 0 -5 -3l9 -10l-12 8q-1 3 -7 5q-3 -4 -3 -20v-24l-11 -5q-58 52 -110 142l-82 161q-14 25 -55 105q-26 59 -92 194l-5 2l-4 -3q2 -8 2 -25q0 -185 -21 -192q10 -7 13 -26q1 -9 5 -29q-3 1 -9.5 -7.5t-8.5 -8.5q4 -4 13 -3q0 -8 -7 -74 q-5 -54 -12 -66q3 -15 3 -37q0 -6 -2 -26t-2 -26q0 -8 2 -14h-1q-5 0 -9 4q-2 -2 -10 -14q-8 -9 -12 -9l-9 4q-1 0 -3 -2l9 -10q-9 9 -17 9v37q0 19 10 49q-5 15 -5 37q0 17 3 49q3 33 3 48q1 1 1 3l-5 19q5 15 5 36q0 8 -2 36t-2 36q0 24 9 35v221q-3 8 -5 60q-2 41 -17 55 v19q21 24 39 24h8q8 0 40 -65l55 -111q33 -69 47 -114q7 -4 16 -24q27 -57 64 -144q41 -97 67 -144q29 -51 34 -51q6 0 6 -2q-1 -1 -1 -4q0 -2 1 -3l11 12v34q-5 2 -13 8q1 11 1 34q0 28 -4 69t-4 69t6 38q-13 13 -13 35q0 8 5 43t5 48q0 20 -6 57q-5 42 -5 57q0 60 11 98 q-1 8 -3 18q13 49 21 112q2 0 14.5 7t17.5 7q3 0 10 -2.5t9 -2.5q0 -2 3 -13t3 -15q0 -16 -14 -22l9 -3q-20 -51 -20 -78q0 -6 1.5 -24t1.5 -24q0 -2 -10 -9l9 -3q0 -22 -13 -29q12 -13 12 -36q0 -7 -3 -30t-3 -30q0 -14 4 -23q-5 -17 -5 -35q0 -23 7 -58t7 -57 q0 -23 -10 -33v-75q0 -4 7 -10t7 -7v-3q0 -16 6 -49q6 -35 5 -50q11 -21 13 -112zM375 1029q2 -10 2 -17q0 -24 -11 -55l-26 -26q-17 -17 -31 -17q-20 0 -25 -5l-8 9l1 1q0 3 -6 3t-3 -8q-2 5 -22 13q-11 13 -27 22q-5 3 -21 24q-14 18 -26 18q-13 0 -36 -16 q-20 -13 -30 -27q0 -1 -6 -16q-5 -14 -9 -14q-3 0 -9 6.5t-8 6.5q-3 0 -5.5 -2.5t-4.5 -2.5q-9 0 -9 22q0 27 36 60q37 34 64 34q22 0 60 -34q40 -34 52 -34q3 0 11 -4.5t11 -4.5q23 0 47 24z" />
<glyph unicode="&#xd2;" d="M502 650l5 -12h-6l-5 10zM527 487q-2 -1 -13 -8q1 -3 7 -13l-4 2l-7 -6l7 -6q1 1 3 1q3 0 3 -4q0 -6 -9 -12l9 -9q-5 -3 -5 -17q0 -51 -32 -173l-34 -75q-3 -7 -24 -33q-15 -20 -14 -36q-10 -7 -26 -31q-15 -21 -35 -30q-4 -1 -2 -5q-1 -7 -12 -7q-4 0 -7 -4t-5 -4 l-12 -13q-8 1 -16.5 -6t-9.5 -15q-6 1 -21 9l-3 -5l5 -7q-4 0 -14 3.5t-14 3.5t-12 -8l-12 5h-19q-10 8 -20 8q-7 0 -38 22q-30 23 -37 30q-34 32 -57 99q-22 60 -22 114q0 38 25 125q27 90 44 122l-3 5q74 151 80 161q48 83 116 138q-1 1 -1.5 5.5t-5.5 4.5q-22 0 -44 -7 q17 29 32 41v-1q0 -4 3 -7l3 8h14q37 0 70 -24q46 -34 59 -40q7 -11 21 -19q-6 1 -6 -3l6 -4l-8 -9l7 -6q3 3 10 7l-4 -9q5 -5 8 -6q0 -7 7 -20q7 -11 11 -19q8 -24 32 -80q3 0 4 3l-3 5q4 -3 4 -6q0 -4 -9 -9q4 -2 17 -2q-4 -12 -2 -20q0 5 -5 17q-5 -5 -14 -11 q3 -2 6 -11.5t5 -11.5q3 3 3 5t-3 5q4 -2 9 -6l-3 -2q5 -5 11 -4q-6 0 -11 -5v-37q5 -5 10 -8h-1q-4 0 -5 -4q6 -4 6 -9q0 -4 -6 -13zM485 526q-11 16 -18 54q-8 39 -18 55q1 7 6 21q-17 11 -38 48q-24 40 -36 51q0 -17 -8 -17t-23.5 7.5t-22.5 13.5q-29 -19 -61 -48 q-1 -1 -8.5 -13.5t-9.5 -16.5l-9 -12q-7 -8 -13.5 -13t-14.5 -8q2 -8 2 -11q0 -16 -27 -22q-5 -25 -22 -35l7 -6q0 -1 -2 -1l-53 -113q1 -1 1 -3q0 -13 -18 -47q1 -3 1 -8q0 -18 -12 -68t-12 -68q0 -122 94 -204q18 -14 38 -27q2 -1 21 -1l8 -9q59 13 69 13q35 0 86 74 q45 65 56 106q24 92 37 198q-3 3 -3 18q0 16 3 92zM289 949l-12 -12h-16q-2 0 -13.5 5t-17.5 5l-11 11l-32 20q-65 49 -80 109q34 17 43 17q6 0 23 -30q14 -24 21 -37q8 -11 53 -46q41 -33 42 -42z" />
<glyph unicode="&#xd3;" d="M502 650l5 -12h-6l-5 10zM527 487q-2 -1 -13 -8q1 -3 7 -13l-4 2l-7 -6l7 -6q1 1 3 1q3 0 3 -4q0 -6 -9 -12l9 -9q-5 -3 -5 -17q0 -51 -32 -173l-34 -75q-3 -7 -24 -33q-15 -20 -14 -36q-10 -7 -26 -31q-15 -21 -35 -30q-4 -1 -2 -5q-1 -7 -12 -7q-4 0 -7 -4t-5 -4 l-12 -13q-8 1 -16.5 -6t-9.5 -15q-6 1 -21 9l-3 -5l5 -7q-4 0 -14 3.5t-14 3.5t-12 -8l-12 5h-19q-10 8 -20 8q-7 0 -38 22q-30 23 -37 30q-34 32 -57 99q-22 60 -22 114q0 38 25 125q27 90 44 122l-3 5q74 151 80 161q48 83 116 138q-1 1 -1.5 5.5t-5.5 4.5q-22 0 -44 -7 q17 29 32 41v-1q0 -4 3 -7l3 8h14q37 0 70 -24q46 -34 59 -40q7 -11 21 -19q-6 1 -6 -3l6 -4l-8 -9l7 -6q3 3 10 7l-4 -9q5 -5 8 -6q0 -7 7 -20q7 -11 11 -19q8 -24 32 -80q3 0 4 3l-3 5q4 -3 4 -6q0 -4 -9 -9q4 -2 17 -2q-4 -12 -2 -20q0 5 -5 17q-5 -5 -14 -11 q3 -2 6 -11.5t5 -11.5q3 3 3 5t-3 5q4 -2 9 -6l-3 -2q5 -5 11 -4q-6 0 -11 -5v-37q5 -5 10 -8h-1q-4 0 -5 -4q6 -4 6 -9q0 -4 -6 -13zM485 526q-11 16 -18 54q-8 39 -18 55q1 7 6 21q-17 11 -38 48q-24 40 -36 51q0 -17 -8 -17t-23.5 7.5t-22.5 13.5q-29 -19 -61 -48 q-1 -1 -8.5 -13.5t-9.5 -16.5l-9 -12q-7 -8 -13.5 -13t-14.5 -8q2 -8 2 -11q0 -16 -27 -22q-5 -25 -22 -35l7 -6q0 -1 -2 -1l-53 -113q1 -1 1 -3q0 -13 -18 -47q1 -3 1 -8q0 -18 -12 -68t-12 -68q0 -122 94 -204q18 -14 38 -27q2 -1 21 -1l8 -9q59 13 69 13q35 0 86 74 q45 65 56 106q24 92 37 198q-3 3 -3 18q0 16 3 92zM430 1106q-16 -12 -23 -18q-16 -12 -16 -21q0 -5 4 -9l-21 -15l-9 6q-1 -1 -1 -3t5 -7q-1 1 -3 1l-4 -1l-4 -1q-48 -31 -119 -88l-41 37v13q80 46 183 100l8 -8q1 3 4 10q3 6 8 6q4 0 4 -2q-1 -1 -1 -3t1 -3q1 4 7 11 q2 0 8 -2t10 -3z" />
<glyph unicode="&#xd4;" d="M507 638l-5 12l-6 -2l5 -10h6zM527 487l-13 9q6 9 6 13q0 5 -6 9q1 4 5 4h1q-5 3 -10 8v37q5 5 11 5q-6 -1 -11 4l3 2q-5 4 -9 6q3 -3 3 -5t-3 -5q-2 2 -5 11.5t-6 11.5q9 6 14 11q5 -12 5 -17q-2 8 2 20q-13 0 -17 2q9 5 9 9q0 3 -4 6l3 -5q-1 -3 -4 -3q-24 56 -32 80 q-4 8 -11 19q-7 13 -7 20q-3 1 -8 6l4 9q-7 -4 -10 -7l-7 6l8 9l-6 4q0 4 6 3q-14 8 -21 19q-13 6 -59 40q-33 24 -70 24h-14l-3 -8q-3 3 -3 7v1q-15 -12 -32 -41q22 7 44 7q5 0 5.5 -4.5t1.5 -5.5q-68 -55 -116 -138q-6 -10 -80 -161l3 -5q-17 -32 -44 -122 q-25 -87 -25 -125q0 -54 22 -114q23 -67 57 -99q7 -7 37 -30q31 -22 38 -22q10 0 20 -8h19l12 -5q8 8 12 8t14 -3.5t14 -3.5l-5 7l3 5q15 -8 21 -9q1 8 9.5 15t16.5 6l12 13q2 0 5 4t7 4q11 0 12 7q-2 4 2 5q20 9 35 30q16 24 26 31q-1 16 14 36q21 26 24 33l34 75 q32 122 32 173q0 14 5 17l-9 9q9 6 9 12q0 4 -3 4q-2 0 -3 -1l-7 6l7 6l4 -2q-6 10 -7 13q11 7 13 8zM485 526q-3 -76 -3 -92q0 -15 3 -18q-13 -106 -37 -198q-11 -41 -56 -106q-51 -74 -86 -74q-10 0 -69 -13l-8 9q-19 0 -21 1q-20 13 -38 27q-94 82 -94 204q0 18 12 68 t12 68q0 5 -1 8q18 34 18 47q0 2 -1 3l53 113q2 0 2 1l-7 6q17 10 22 35q27 6 27 22q0 3 -2 11q8 3 14.5 8t12.5 14l9 12q3 3 10.5 15.5t8.5 13.5q32 29 61 48q7 -6 22.5 -13.5t23.5 -7.5t8 17q12 -11 36 -51q21 -37 38 -48q-5 -14 -6 -21q10 -16 18 -55q7 -38 18 -54z M168 971l18 43q10 15 67 57q58 41 73 41t75 -64q61 -64 61 -78q0 -30 -16 -30h-18l-52 65q-42 49 -58 49q-11 0 -40 -19q-29 -17 -37 -27q-12 -6 -14 -6h-4l-2 -2q-2 -3 -6 -7l-9 -9q-14 -14 -18 -14q-6 0 -11 8q-6 -7 -9 -7z" />
<glyph unicode="&#xd5;" d="M502 650l5 -12h-6l-5 10zM527 487q-2 -1 -13 -8q1 -3 7 -13l-4 2l-7 -6l7 -6q1 1 3 1q3 0 3 -4q0 -6 -9 -12l9 -9q-5 -3 -5 -17q0 -51 -32 -173l-34 -75q-3 -7 -24 -33q-15 -20 -14 -36q-10 -7 -26 -31q-15 -21 -35 -30q-4 -1 -2 -5q-1 -7 -12 -7q-4 0 -7 -4t-5 -4 l-12 -13q-8 1 -16.5 -6t-9.5 -15q-6 1 -21 9l-3 -5l5 -7q-4 0 -14 3.5t-14 3.5t-12 -8l-12 5h-19q-10 8 -20 8q-7 0 -38 22q-30 23 -37 30q-34 32 -57 99q-22 60 -22 114q0 38 25 125q27 90 44 122l-3 5q74 151 80 161q48 83 116 138q-1 1 -1.5 5.5t-5.5 4.5q-22 0 -44 -7 q17 29 32 41v-1q0 -4 3 -7l3 8h14q37 0 70 -24q46 -34 59 -40q7 -11 21 -19q-6 1 -6 -3l6 -4l-8 -9l7 -6q3 3 10 7l-4 -9q5 -5 8 -6q0 -7 7 -20q7 -11 11 -19q8 -24 32 -80q3 0 4 3l-3 5q4 -3 4 -6q0 -4 -9 -9q4 -2 17 -2q-4 -12 -2 -20q0 5 -5 17q-5 -5 -14 -11 q3 -2 6 -11.5t5 -11.5q3 3 3 5t-3 5q4 -2 9 -6l-3 -2q5 -5 11 -4q-6 0 -11 -5v-37q5 -5 10 -8h-1q-4 0 -5 -4q6 -4 6 -9q0 -4 -6 -13zM485 526q-11 16 -18 54q-8 39 -18 55q1 7 6 21q-17 11 -38 48q-24 40 -36 51q0 -17 -8 -17t-23.5 7.5t-22.5 13.5q-29 -19 -61 -48 q-1 -1 -8.5 -13.5t-9.5 -16.5l-9 -12q-7 -8 -13.5 -13t-14.5 -8q2 -8 2 -11q0 -16 -27 -22q-5 -25 -22 -35l7 -6q0 -1 -2 -1l-53 -113q1 -1 1 -3q0 -13 -18 -47q1 -3 1 -8q0 -18 -12 -68t-12 -68q0 -122 94 -204q18 -14 38 -27q2 -1 21 -1l8 -9q59 13 69 13q35 0 86 74 q45 65 56 106q24 92 37 198q-3 3 -3 18q0 16 3 92zM482 1095q2 -10 2 -17q0 -24 -11 -55l-26 -26q-17 -17 -31 -17q-20 0 -25 -5l-8 9l1 1q0 3 -6 3t-3 -8q-2 5 -22 13q-11 13 -27 22q-4 3 -21 24q-13 18 -26 18t-36 -16q-19 -13 -30 -27q0 -1 -6 -16q-5 -14 -9 -14 q-2 0 -8 6.5t-9 6.5t-5.5 -2.5t-4.5 -2.5q-9 0 -9 22q0 27 36 60q37 34 64 34q22 0 60 -34q40 -34 52 -34q2 0 11 -4.5t11 -4.5q23 0 47 24z" />
<glyph unicode="&#xd6;" d="M502 650l5 -12h-6l-5 10zM527 487q-2 -1 -13 -8q1 -3 7 -13l-4 2l-7 -6l7 -6q1 1 3 1q3 0 3 -4q0 -6 -9 -12l9 -9q-5 -3 -5 -17q0 -51 -32 -173l-34 -75q-3 -7 -24 -33q-15 -20 -14 -36q-10 -7 -26 -31q-15 -21 -35 -30q-4 -1 -2 -5q-1 -7 -12 -7q-4 0 -7 -4t-5 -4 l-12 -13q-8 1 -16.5 -6t-9.5 -15q-6 1 -21 9l-3 -5l5 -7q-4 0 -14 3.5t-14 3.5t-12 -8l-12 5h-19q-10 8 -20 8q-7 0 -38 22q-30 23 -37 30q-34 32 -57 99q-22 60 -22 114q0 38 25 125q27 90 44 122l-3 5q74 151 80 161q48 83 116 138q-1 1 -1.5 5.5t-5.5 4.5q-22 0 -44 -7 q17 29 32 41v-1q0 -4 3 -7l3 8h14q37 0 70 -24q46 -34 59 -40q7 -11 21 -19q-6 1 -6 -3l6 -4l-8 -9l7 -6q3 3 10 7l-4 -9q5 -5 8 -6q0 -7 7 -20q7 -11 11 -19q8 -24 32 -80q3 0 4 3l-3 5q4 -3 4 -6q0 -4 -9 -9q4 -2 17 -2q-4 -12 -2 -20q0 5 -5 17q-5 -5 -14 -11 q3 -2 6 -11.5t5 -11.5q3 3 3 5t-3 5q4 -2 9 -6l-3 -2q5 -5 11 -4q-6 0 -11 -5v-37q5 -5 10 -8h-1q-4 0 -5 -4q6 -4 6 -9q0 -4 -6 -13zM485 526q-11 16 -18 54q-8 39 -18 55q1 7 6 21q-17 11 -38 48q-24 40 -36 51q0 -17 -8 -17t-23.5 7.5t-22.5 13.5q-29 -19 -61 -48 q-1 -1 -8.5 -13.5t-9.5 -16.5l-9 -12q-7 -8 -13.5 -13t-14.5 -8q2 -8 2 -11q0 -16 -27 -22q-5 -25 -22 -35l7 -6q0 -1 -2 -1l-53 -113q1 -1 1 -3q0 -13 -18 -47q1 -3 1 -8q0 -18 -12 -68t-12 -68q0 -122 94 -204q18 -14 38 -27q2 -1 21 -1l8 -9q59 13 69 13q35 0 86 74 q45 65 56 106q24 92 37 198q-3 3 -3 18q0 16 3 92zM272 1022q0 -2 -9 -27q-6 -14 -24 -19q-8 5 -26 26q-23 28 -25 31v21q3 0 18.5 3.5t20.5 3.5q9 0 25 -15zM446 1019q0 -17 -11.5 -28.5t-28.5 -11.5q-11 0 -22 20t-11 32q0 11 15 22t27 11q31 0 31 -45z" />
<glyph unicode="&#xd7;" horiz-adv-x="776" d="M362 324h-6l-4 6l6 2zM627 604q-23 -2 -41 -27l-29 -41q-3 -3 -8 -7.5t-6 -5.5q-12 -9 -17 -9l-44 -48l5 6q-5 8 -5 2v1q0 3 6 3q1 0 3 0.5t3 1.5h2l1 3q0 3 -7 4q6 2 10 7.5t16 9.5q-8 11 -18 17l-13 -28q-7 -15 -18 -26l-8 7q-2 -2 -2 -6q0 -5 4 -9q-22 -9 -71 -81 q2 -8 17 -27q19 -27 21 -31l9 -30q4 -15 20 -26l-8 -6l69 -72q36 -40 56 -76l-15 5q0 -4 -7.5 -12t-7.5 -10l1 3l-4 2q-15 0 -38 33q-21 27 -23 43q-28 25 -43 52q-13 27 -20 35q-3 3 -8 10l-8 11q-9 13 -11 24l-6 -5q-1 14 -18 28q-8 -9 -11 -8l-7 3q-9 0 -10 -19 q-8 0 -15 -7t-8 -13q0 4 -5 9q-8 -7 -10 -18l-5 6q-2 -2 -2 -5q0 -2 2 -4l-3 1l-6 -4q-92 -111 -105 -111q-2 0 -9 -6.5t-9 -6.5v-2q1 -1 -7 -13q-6 0 -6 7q0 5 17 24q15 18 25 24v3v4q14 9 34 37q21 28 32 35q5 18 29 45q38 39 39 43q3 1 10 7t7 11q0 1 -30 41l-36 47 l-42 37q-33 28 -33 32q0 6 8.5 13.5t14.5 4.5l12 9q32 -25 71 -70l63 -73v1q1 5 6 4q100 118 154 174l-2 4q2 3 11.5 15t14.5 16.5t15.5 10t23.5 5.5q4 0 17 -16zM137 126v-6q0 -7 -7 -14.5t-7 -8.5l-3 2q-3 2 -3 5q0 2 20 22zM116 98l-23 -33q0 1 -2 3q0 4 8 6l2 1l-7 5 q14 4 22 18zM87 61v-5h-14v5h14zM73 54l3 -8h-4l-5 7z" />
<glyph unicode="&#xd8;" d="M502 650l5 -12h-6l-5 10zM527 487q-2 -1 -13 -8q1 -3 7 -13l-4 2l-7 -6l7 -6q1 1 3 1q3 0 3 -4q0 -6 -9 -12l9 -9q-5 -3 -5 -17q0 -51 -32 -173l-34 -75q-3 -7 -24 -33q-15 -20 -14 -36q-10 -7 -26 -31q-15 -21 -35 -30q-4 -1 -2 -5q-1 -7 -12 -7q-4 0 -7 -4t-5 -4 l-12 -13q-8 1 -16.5 -6t-9.5 -15q-6 1 -21 9l-3 -5l5 -7q-4 0 -14 3.5t-14 3.5t-12 -8l-12 5h-19q-10 8 -20 8q-7 0 -38 22q-30 23 -37 30q-34 32 -57 99q-22 60 -22 114q0 38 25 125q27 90 44 122l-3 5q74 151 80 161q48 83 116 138q-1 1 -1.5 5.5t-5.5 4.5q-22 0 -44 -7 q17 29 32 41v-1q0 -4 3 -7l3 8h14q37 0 70 -24q46 -34 59 -40q7 -11 21 -19q-6 1 -6 -3l6 -4l-8 -9l7 -6q3 3 10 7l-4 -9q5 -5 8 -6q0 -7 7 -20q7 -11 11 -19q8 -24 32 -80q3 0 4 3l-3 5q4 -3 4 -6q0 -4 -9 -9q4 -2 17 -2q-4 -12 -2 -20q0 5 -5 17q-5 -5 -14 -11 q3 -2 6 -11.5t5 -11.5q3 3 3 5t-3 5q4 -2 9 -6l-3 -2q5 -5 11 -4q-6 0 -11 -5v-37q5 -5 10 -8h-1q-4 0 -5 -4q6 -4 6 -9q0 -4 -6 -13zM485 526q-11 16 -18 54q-8 39 -18 55q1 7 6 21q-17 11 -38 48q-24 40 -36 51q0 -17 -8 -17t-23.5 7.5t-22.5 13.5q-29 -19 -61 -48 q-1 -1 -8.5 -13.5t-9.5 -16.5l-9 -12q-7 -8 -13.5 -13t-14.5 -8q2 -8 2 -11q0 -16 -27 -22q-5 -25 -22 -35l7 -6q0 -1 -2 -1l-53 -113q1 -1 1 -3q0 -13 -18 -47q1 -3 1 -8q0 -18 -12 -68t-12 -68q0 -122 94 -204q18 -14 38 -27q2 -1 21 -1l8 -9q59 13 69 13q35 0 86 74 q45 65 56 106q24 92 37 198q-3 3 -3 18q0 16 3 92zM462 822q0 -13 -22 -57q-26 -52 -28 -58q-2 -5 -6 -19l-5 -21q-16 -13 -16 -40q0 -11 -12 -36q-14 -30 -17 -40q-11 -52 -21 -76q-9 -13 -25 -45q-9 -28 -23 -65q-15 -39 -18 -66q-5 -11 -17 -53l-46 -125 q-27 -74 -25 -129v-10q-5 -10 -6 -33q-5 1 -24 -9q-4 7 -13 11l-9 4q-1 1 -6 20q-4 15 -4 22q0 27 13 62q16 40 23 59v6q-1 24 18 69q19 47 21 69q13 23 22 53q13 43 18 55q22 50 85 251q13 43 50 133q43 105 53 105t25 -13.5t15 -23.5z" />
<glyph unicode="&#xd9;" horiz-adv-x="665" d="M635 185q0 -19 -12 -48q-21 -30 -26 -48q0 5 -4 9q-2 -25 -29 -60t-43 -35q-3 0 -12 -2l-28 -4q1 0 1 -1t-27 -7l-22 14h-9q-48 40 -74 115q-27 101 -35 134q-35 -69 -37 -75q-20 -42 -30 -79l-42 -60q-34 -49 -39 -49q-4 0 -25 -18q-18 -18 -37 -20l-9 -9q-8 9 -34 20 q-30 46 -30 71v287q0 2 3 12t3 12q0 33 3 99q4 59 4 99v117q0 17 18 24q20 8 29 12q0 -3 9 -16.5t9 -22.5l-5 -57q1 1 2 1q4 0 4 -9q0 -46 -16 -222q-1 -14 -3 -36l-4 -36q0 -2 1.5 -8.5t1.5 -8.5q0 -12 -11 -25q13 -12 13 -69q0 -42 -5 -77q4 -9 7 -54q2 -33 23 -52 q11 5 16 23q23 4 40 48q1 -1 5 -1q6 0 7 7q-2 5 -9 5q1 1 2 1q3 0 4 -3q29 43 59 110l50 115q21 45 35 93q6 17 31 134q18 84 40 130l21 68q17 42 50 42q11 0 20 -21q8 -18 8 -31t-21 -66q-4 -11 -14 -34t-14 -34q-14 -35 -42 -151q-2 -4 -7 -10q-5 -21 -13 -63 q-7 -38 -7 -63q0 -23 7 -30q-2 -8 -2 -17q0 -55 21 -128q34 -82 81 -82q23 0 48 37q79 110 89 120q12 -6 12 -17zM272 870l-12 -12h-16q-2 0 -13.5 5t-17.5 5l-11 11l-32 20q-65 49 -80 109q34 17 43 17q7 0 23 -30q14 -24 21 -37q8 -11 53 -46q40 -33 42 -42z" />
<glyph unicode="&#xda;" horiz-adv-x="665" d="M635 185q0 -19 -12 -48q-21 -30 -26 -48q0 5 -4 9q-2 -25 -29 -60t-43 -35q-3 0 -12 -2l-28 -4q1 0 1 -1t-27 -7l-22 14h-9q-48 40 -74 115q-27 101 -35 134q-35 -69 -37 -75q-20 -42 -30 -79l-42 -60q-34 -49 -39 -49q-4 0 -25 -18q-18 -18 -37 -20l-9 -9q-8 9 -34 20 q-30 46 -30 71v287q0 2 3 12t3 12q0 33 3 99q4 59 4 99v117q0 17 18 24q20 8 29 12q0 -3 9 -16.5t9 -22.5l-5 -57q1 1 2 1q4 0 4 -9q0 -46 -16 -222q-1 -14 -3 -36l-4 -36q0 -2 1.5 -8.5t1.5 -8.5q0 -12 -11 -25q13 -12 13 -69q0 -42 -5 -77q4 -9 7 -54q2 -33 23 -52 q11 5 16 23q23 4 40 48q1 -1 5 -1q6 0 7 7q-2 5 -9 5q1 1 2 1q3 0 4 -3q29 43 59 110l50 115q21 45 35 93q6 17 31 134q18 84 40 130l21 68q17 42 50 42q11 0 20 -21q8 -18 8 -31t-21 -66q-4 -11 -14 -34t-14 -34q-14 -35 -42 -151q-2 -4 -7 -10q-5 -21 -13 -63 q-7 -38 -7 -63q0 -23 7 -30q-2 -8 -2 -17q0 -55 21 -128q34 -82 81 -82q23 0 48 37q79 110 89 120q12 -6 12 -17zM420 1004q-16 -12 -23 -18q-16 -12 -16 -21q0 -5 4 -9l-21 -15l-9 6q-1 -1 -1 -3t5 -7q-1 1 -3 1l-4 -1l-4 -1q-48 -31 -119 -88l-41 37v13q80 46 183 100 l8 -8q1 3 4 10q3 6 8 6q4 0 4 -2q-1 -1 -1 -3t1 -3q1 4 7 11q2 0 8 -2t10 -3z" />
<glyph unicode="&#xdb;" horiz-adv-x="665" d="M635 185q0 -19 -12 -48q-21 -30 -26 -48q0 5 -4 9q-2 -25 -29 -60t-43 -35q-3 0 -12 -2l-28 -4q1 0 1 -1t-27 -7l-22 14h-9q-48 40 -74 115q-27 101 -35 134q-35 -69 -37 -75q-20 -42 -30 -79l-42 -60q-34 -49 -39 -49q-4 0 -25 -18q-18 -18 -37 -20l-9 -9q-8 9 -34 20 q-30 46 -30 71v287q0 2 3 12t3 12q0 33 3 99q4 59 4 99v117q0 17 18 24q20 8 29 12q0 -3 9 -16.5t9 -22.5l-5 -57q1 1 2 1q4 0 4 -9q0 -46 -16 -222q-1 -14 -3 -36l-4 -36q0 -2 1.5 -8.5t1.5 -8.5q0 -12 -11 -25q13 -12 13 -69q0 -42 -5 -77q4 -9 7 -54q2 -33 23 -52 q11 5 16 23q23 4 40 48q1 -1 5 -1q6 0 7 7q-2 5 -9 5q1 1 2 1q3 0 4 -3q29 43 59 110l50 115q21 45 35 93q6 17 31 134q18 84 40 130l21 68q17 42 50 42q11 0 20 -21q8 -18 8 -31t-21 -66q-4 -11 -14 -34t-14 -34q-14 -35 -42 -151q-2 -4 -7 -10q-5 -21 -13 -63 q-7 -38 -7 -63q0 -23 7 -30q-2 -8 -2 -17q0 -55 21 -128q34 -82 81 -82q23 0 48 37q79 110 89 120q12 -6 12 -17zM407 923q-3 0 -9 7q-5 -8 -11 -8q-4 0 -18 14l-9 9q-4 4 -6 7l-2 2h-4q-2 0 -14 6q-8 10 -37 27q-29 19 -40 19q-16 0 -58 -49l-52 -65h-18q-16 0 -16 30 q0 14 60 78q61 64 76 64q16 0 72 -41q58 -41 68 -57z" />
<glyph unicode="&#xdc;" horiz-adv-x="665" d="M635 185q0 -19 -12 -48q-21 -30 -26 -48q0 5 -4 9q-2 -25 -29 -60t-43 -35q-3 0 -12 -2l-28 -4q1 0 1 -1t-27 -7l-22 14h-9q-48 40 -74 115q-27 101 -35 134q-35 -69 -37 -75q-20 -42 -30 -79l-42 -60q-34 -49 -39 -49q-4 0 -25 -18q-18 -18 -37 -20l-9 -9q-8 9 -34 20 q-30 46 -30 71v287q0 2 3 12t3 12q0 33 3 99q4 59 4 99v117q0 17 18 24q20 8 29 12q0 -3 9 -16.5t9 -22.5l-5 -57q1 1 2 1q4 0 4 -9q0 -46 -16 -222q-1 -14 -3 -36l-4 -36q0 -2 1.5 -8.5t1.5 -8.5q0 -12 -11 -25q13 -12 13 -69q0 -42 -5 -77q4 -9 7 -54q2 -33 23 -52 q11 5 16 23q23 4 40 48q1 -1 5 -1q6 0 7 7q-2 5 -9 5q1 1 2 1q3 0 4 -3q29 43 59 110l50 115q21 45 35 93q6 17 31 134q18 84 40 130l21 68q17 42 50 42q11 0 20 -21q8 -18 8 -31t-21 -66q-4 -11 -14 -34t-14 -34q-14 -35 -42 -151q-2 -4 -7 -10q-5 -21 -13 -63 q-7 -38 -7 -63q0 -23 7 -30q-2 -8 -2 -17q0 -55 21 -128q34 -82 81 -82q23 0 48 37q79 110 89 120q12 -6 12 -17zM212 952l-1 -3q-1 -3 -4 -11l-6 -14q-6 -15 -27 -20q-10 5 -29 27q-28 31 -29 32v22q4 0 21.5 3.5t23.5 3.5q10 0 28 -15q7 -9 23 -25zM409 949q0 -18 -13 -30 t-32 -12q-12 0 -26 21q-12 21 -12 33q0 11 18 22q18 12 30 12q35 0 35 -46z" />
<glyph unicode="&#xdd;" horiz-adv-x="476" d="M555 923v-36q-6 -4 -11 -9v-7q1 -27 -14 -61q-1 -2 -5 -9l-11 -20l-15 -27v-2q1 -14 -10 -35q-4 -35 -24 -61q1 -1 1 -5q0 -16 -7 -40q-7 -30 -9 -42l-5 10q-7 -10 -7 -16q0 -2 2 -8q2 -1 3 0.5t1 4.5q-15 -42 -29 -86q2 -5 7 -5q-16 -7 -16 -46q0 -12 3 -18 q-6 -17 -8 -60q0 -12 -0.5 -22.5t-0.5 -18t-0.5 -12.5t-0.5 -8v-3l-1 -5q-1 -4 -3 -14l-4 -21q-3 -18 -2 -44q3 -42 3 -45q0 -46 -14 -63q15 -13 15 -35q0 -11 -5 -41t-5 -41q0 -5 1 -9v-9q0 -16 -5 -24q5 -12 5 -24q0 -8 -16 -39l9 -4q2 -14 2 -28q0 -64 -20 -78 q6 -29 6 -50q0 -22 -17 -76l-24 -78q-8 0 -12 4q-1 0 -3 -2q7 -9 10 -9q1 0 3 2q-2 -8 -33 -72q-30 -65 -34 -69q-6 -7 -19 -20q-14 -16 -13 -22l1 -4q-2 2 -5 2q-2 0 -10 -4q-4 -5 -43 -46l-27 -21q-18 -15 -19 -25l-11 10q-7 -15 -35 -15q-4 0 -7 -3v-9l22 -3q4 0 7.5 7.5 t7.5 7.5l10 -5q12 0 12 7v1q0 -5 5 -10h1q0 2 -8 2q-4 0 -6 -2h1l-1 -1l-6 -3q-4 -2 -7.5 -3t-8.5 -3t-7 -3l-25 1h4q-7 -1 -10.5 -3.5t-2.5 -7.5q0 2 -3 2q-1 0 -9.5 -3.5t-12.5 -3.5q-5 0 -25 20q-1 0 -12.5 -12.5t-16.5 -12.5q-4 0 -12.5 5t-12.5 5q-5 -1 -15 -5l-11 10 q-11 1 -19 6l-4 5q-4 4 -5 4q-5 0 -5 -2q0 4 1 -1q1 -2 1 -5q-2 -2 -5 -2t-8 5t-8 5q-4 0 -12 2.5t-10 2.5l-14 15q-3 0 -6.5 5t-7.5 5q-7 0 -7 -3l3 -7q-5 3 -13 10l-36 22q-20 11 -37 29q-19 27 -85 104q2 4 2 8q0 9 -9.5 25t-17.5 21q2 2 5.5 8t4.5 7q-20 10 -34 63 q-13 47 -9 75q-12 16 -12 40q0 13 7 38q8 26 6 41q3 3 8 15q4 23 5 28q14 45 53 81q37 36 84 50q-5 -11 -29 -34q-30 -32 -32 -35q-13 -15 -27 -49l-22 -52v-6q0 -6 -1.5 -23.5t-1.5 -21.5q0 -6 5.5 -26t5.5 -26l-16 -15q5 -5 19 -3v-8v-3q0 -2 0.5 -4t0.5 -6v-8 q0 -4 0.5 -9.5t0.5 -11.5q18 -22 37 -68q24 -62 29 -70q11 -13 24 -40q32 -32 103 -91q38 -26 55 -26q5 0 5 -3v-2q-1 -1 -1 -2q0 -2 6 -3l6 3q7 2 9 2q3 0 9.5 -5t10.5 -5q18 0 18 -2l-1 -4l2 -3l4 9q4 -4 26 -4q14 11 30 14h38q2 0 10 2.5t10 2.5q35 0 104 69 q60 60 83 103q44 82 62 158q13 54 22 171q3 80 5 103q0 5 3 25q1 11 1 25q0 10 -2 80q-1 35 -1 79q0 17 4 46q2 36 1 47h1q6 0 6 10v97l-12 14q-43 -62 -41 -97l-31 -77q-21 -49 -44 -66l9 -3q-14 -28 -50 -67q-40 -46 -63 -46q-8 0 -35 15q-27 16 -28 22q-1 2 -10 63 q-8 62 -8 64q0 24 4 119q-12 9 -12 36q0 5 2 5q1 -1 3 -1q3 0 3 150q0 34 4 63q0 1 2 11.5t2 13.5l-2 3q-1 2 -2.5 6t-1.5 8q0 7 3.5 29.5t3.5 26.5q1 0 8 11q4 7 10 7q10 0 22 -16q16 -20 20 -24q7 7 10 13q0 -3 2 -15t2 -15q0 -19 -8 -73t-14 -70q6 -2 15 -9v-71 q0 -2 -18 -54q0 -2 2.5 -8t2.5 -8q0 -14 -11 -27l9 -4q0 -53 11 -174q1 -2 3.5 -6t3.5 -7l3 2q4 -2 12 -2q31 0 84 104q1 1 59 135q13 31 48 100q0 1 0.5 3.5t1 5.5t0.5 6q23 25 37 152q0 4 10 168q5 67 32 144q10 29 37 69q31 46 56 46q4 0 4 -7q0 -2 6 -3q1 0 5 1.5t6 2.5 q-1 1 -2 -2t-2 -9q23 -44 29 -49zM226 -653l5 -5l-12 -12l-5 5zM467 789q-3 3 -7 3q-5 0 -11 -3q-12 -25 -12 -49q0 -13 8 -13q6 23 22 62zM435 708h9v19h-9v-19zM-335 -474q-6 0 -10 7q-4 -4 -6 -14q7 7 16 7zM390 1134q-16 -12 -23 -18q-16 -12 -16 -21q0 -5 4 -9l-21 -15 l-9 6q-1 -1 -1 -3t5 -7q-1 1 -3 1l-4 -1l-4 -1q-48 -31 -119 -88l-41 37v13q80 46 183 100l8 -8q1 3 4 10q3 6 8 6q4 0 4 -2q-1 -1 -1 -3t1 -3q1 4 7 11q2 0 8 -2t10 -3z" />
<glyph unicode="&#xe0;" horiz-adv-x="432" d="M90 102v13h-8v-13h8zM521 197h18q-9 -16 -22 -62q-12 -39 -33 -69l-2 1q-7 -4 -20 -14q-16 -12 -22 -12q-4 0 -7.5 -5t-5.5 -5q-29 -32 -28 -38q-2 0 -10 2t-11 2q-2 -1 -7 -3l3 -7l-12 10l1 1q-1 4 -7 4q-3 0 -9 -3l3 -7l-47 40q-60 63 -74 178q-9 -7 -10 -14l1 -4 q-3 4 -7 4l-6 -1l-8 -12q7 -8 19 -10q-19 -12 -34 -43l-24 -50q-11 -14 -31 -42q-21 -29 -22 -45q-20 -11 -50 -11q-40 43 -40 64q0 42 125 221l-3 6l69 90q43 55 85 70q6 -16 20 -27q-13 -30 -8 -60q-20 -69 -20 -119q0 -45 21 -101q25 -70 62 -70h29q16 0 124 141z M203 285h7l-6 15l-7 -3zM150 214l12 12l-5 5l-12 -12zM130 176h8v18h-8v-18zM208 246q0 6 -7 13q-1 -4 -10 -19l-3 1q-6 -3 -11 -4l4 -3v-2q-2 -1 -12.5 -16t-22.5 -18q2 -6 2 -7q0 -21 -30 -32l4 -10l-2 -4l-7 8q5 6 13 26q-1 0 -8 -2t-9 -1q0 -6 -8 -24t-8 -24l5 -13h-4 q0 -27 -10 -36q10 -11 18 -13q15 25 47 73q27 41 38 78q6 17 21 29zM229 565l-12 -12h-16q-2 0 -13.5 5t-17.5 5l-11 11l-32 20q-65 49 -80 109q34 17 43 17q6 0 23 -30q14 -24 21 -37q8 -11 53 -46q41 -33 42 -42z" />
<glyph unicode="&#xe1;" horiz-adv-x="432" d="M90 102v13h-8v-13h8zM521 197h18q-9 -16 -22 -62q-12 -39 -33 -69l-2 1q-7 -4 -20 -14q-16 -12 -22 -12q-4 0 -7.5 -5t-5.5 -5q-29 -32 -28 -38q-2 0 -10 2t-11 2q-2 -1 -7 -3l3 -7l-12 10l1 1q-1 4 -7 4q-3 0 -9 -3l3 -7l-47 40q-60 63 -74 178q-9 -7 -10 -14l1 -4 q-3 4 -7 4l-6 -1l-8 -12q7 -8 19 -10q-19 -12 -34 -43l-24 -50q-11 -14 -31 -42q-21 -29 -22 -45q-20 -11 -50 -11q-40 43 -40 64q0 42 125 221l-3 6l69 90q43 55 85 70q6 -16 20 -27q-13 -30 -8 -60q-20 -69 -20 -119q0 -45 21 -101q25 -70 62 -70h29q16 0 124 141z M203 285h7l-6 15l-7 -3zM150 214l12 12l-5 5l-12 -12zM130 176h8v18h-8v-18zM208 246q0 6 -7 13q-1 -4 -10 -19l-3 1q-6 -3 -11 -4l4 -3v-2q-2 -1 -12.5 -16t-22.5 -18q2 -6 2 -7q0 -21 -30 -32l4 -10l-2 -4l-7 8q5 6 13 26q-1 0 -8 -2t-9 -1q0 -6 -8 -24t-8 -24l5 -13h-4 q0 -27 -10 -36q10 -11 18 -13q15 25 47 73q27 41 38 78q6 17 21 29zM373 717q-16 -12 -23 -18q-16 -12 -16 -21q0 -5 4 -9l-21 -15l-9 6q-1 -1 -1 -3t5 -7q-1 1 -3 1q-1 0 -4 -1t-4 -1q-48 -31 -119 -88l-41 37v13q80 46 183 100l8 -8q1 3 4 10q3 6 8 6q4 0 4 -2 q-1 -1 -1 -3t1 -3q1 4 7 11q1 0 7 -2t11 -3z" />
<glyph unicode="&#xe2;" horiz-adv-x="432" d="M90 102v13h-8v-13h8zM521 197h18q-9 -16 -22 -62q-12 -39 -33 -69l-2 1q-7 -4 -20 -14q-16 -12 -22 -12q-4 0 -7.5 -5t-5.5 -5q-29 -32 -28 -38q-2 0 -10 2t-11 2q-2 -1 -7 -3l3 -7l-12 10l1 1q-1 4 -7 4q-3 0 -9 -3l3 -7l-47 40q-60 63 -74 178q-9 -7 -10 -14l1 -4 q-3 4 -7 4l-6 -1l-8 -12q7 -8 19 -10q-19 -12 -34 -43l-24 -50q-11 -14 -31 -42q-21 -29 -22 -45q-20 -11 -50 -11q-40 43 -40 64q0 42 125 221l-3 6l69 90q43 55 85 70q6 -16 20 -27q-13 -30 -8 -60q-20 -69 -20 -119q0 -45 21 -101q25 -70 62 -70h29q16 0 124 141z M203 285h7l-6 15l-7 -3zM150 214l12 12l-5 5l-12 -12zM130 176h8v18h-8v-18zM208 246q0 6 -7 13q-1 -4 -10 -19l-3 1q-6 -3 -11 -4l4 -3v-2q-2 -1 -12.5 -16t-22.5 -18q2 -6 2 -7q0 -21 -30 -32l4 -10l-2 -4l-7 8q5 6 13 26q-1 0 -8 -2t-9 -1q0 -6 -8 -24t-8 -24l5 -13h-4 q0 -27 -10 -36q10 -11 18 -13q15 25 47 73q27 41 38 78q6 17 21 29zM368 562q-3 0 -9 7q-5 -8 -11 -8q-4 0 -18 14l-9 9l-6 6l-2 3h-4q-2 0 -14 6q-8 10 -37 27q-29 19 -40 19q-16 0 -58 -49l-52 -65h-18q-16 0 -16 30q0 13 60 78q61 64 76 64q16 0 72 -41q58 -41 68 -57z " />
<glyph unicode="&#xe3;" horiz-adv-x="432" d="M90 102v13h-8v-13h8zM521 197h18q-9 -16 -22 -62q-12 -39 -33 -69l-2 1q-7 -4 -20 -14q-16 -12 -22 -12q-4 0 -7.5 -5t-5.5 -5q-29 -32 -28 -38q-2 0 -10 2t-11 2q-2 -1 -7 -3l3 -7l-12 10l1 1q-1 4 -7 4q-3 0 -9 -3l3 -7l-47 40q-60 63 -74 178q-9 -7 -10 -14l1 -4 q-3 4 -7 4l-6 -1l-8 -12q7 -8 19 -10q-19 -12 -34 -43l-24 -50q-11 -14 -31 -42q-21 -29 -22 -45q-20 -11 -50 -11q-40 43 -40 64q0 42 125 221l-3 6l69 90q43 55 85 70q6 -16 20 -27q-13 -30 -8 -60q-20 -69 -20 -119q0 -45 21 -101q25 -70 62 -70h29q16 0 124 141z M203 285h7l-6 15l-7 -3zM150 214l12 12l-5 5l-12 -12zM130 176h8v18h-8v-18zM208 246q0 6 -7 13q-1 -4 -10 -19l-3 1q-6 -3 -11 -4l4 -3v-2q-2 -1 -12.5 -16t-22.5 -18q2 -6 2 -7q0 -21 -30 -32l4 -10l-2 -4l-7 8q5 6 13 26q-1 0 -8 -2t-9 -1q0 -6 -8 -24t-8 -24l5 -13h-4 q0 -27 -10 -36q10 -11 18 -13q15 25 47 73q27 41 38 78q6 17 21 29zM383 691q2 -10 2 -17q0 -24 -11 -55l-26 -26q-17 -17 -31 -17q-20 0 -25 -5l-8 9l1 1q0 3 -6 3t-3 -8q-2 5 -22 13q-11 13 -27 22q-5 3 -21 24q-14 18 -26 18q-13 0 -36 -16q-20 -13 -30 -27q0 -1 -6 -16 q-5 -14 -9 -14q-3 0 -9 6.5t-8 6.5q-3 0 -5.5 -2.5t-4.5 -2.5q-9 0 -9 22q0 27 36 60q37 34 64 34q22 0 60 -34q40 -34 52 -34q3 0 11 -4.5t11 -4.5q23 0 47 24z" />
<glyph unicode="&#xe4;" horiz-adv-x="432" d="M90 102v13h-8v-13h8zM521 197h18q-9 -16 -22 -62q-12 -39 -33 -69l-2 1q-7 -4 -20 -14q-16 -12 -22 -12q-4 0 -7.5 -5t-5.5 -5q-29 -32 -28 -38q-2 0 -10 2t-11 2q-2 -1 -7 -3l3 -7l-12 10l1 1q-1 4 -7 4q-3 0 -9 -3l3 -7l-47 40q-60 63 -74 178q-9 -7 -10 -14l1 -4 q-3 4 -7 4l-6 -1l-8 -12q7 -8 19 -10q-19 -12 -34 -43l-24 -50q-11 -14 -31 -42q-21 -29 -22 -45q-20 -11 -50 -11q-40 43 -40 64q0 42 125 221l-3 6l69 90q43 55 85 70q6 -16 20 -27q-13 -30 -8 -60q-20 -69 -20 -119q0 -45 21 -101q25 -70 62 -70h29q16 0 124 141z M203 285h7l-6 15l-7 -3zM150 214l12 12l-5 5l-12 -12zM130 176h8v18h-8v-18zM208 246q0 6 -7 13q-1 -4 -10 -19l-3 1q-6 -3 -11 -4l4 -3v-2q-2 -1 -12.5 -16t-22.5 -18q2 -6 2 -7q0 -21 -30 -32l4 -10l-2 -4l-7 8q5 6 13 26q-1 0 -8 -2t-9 -1q0 -6 -8 -24t-8 -24l5 -13h-4 q0 -27 -10 -36q10 -11 18 -13q15 25 47 73q27 41 38 78q6 17 21 29zM186 621q0 -1 -9 -27q-6 -14 -24 -19q-8 5 -26 26q-23 29 -25 31v21q3 0 18.5 3.5t20.5 3.5q9 0 25 -15zM360 618q0 -17 -11.5 -28.5t-28.5 -11.5q-11 0 -22 20t-11 32q0 11 15 22t27 11q31 0 31 -45z" />
<glyph unicode="&#xe5;" horiz-adv-x="432" d="M342 641q0 -9 -14 -43q-15 -35 -20 -42q-4 -2 -12 -7t-12 -7q-18 -10 -17 -26q-18 2 -52 10q-50 45 -50 93q0 22 27 64q29 43 49 56q1 1 50 17l34 -51q17 -29 17 -64zM292 651q0 7 -6 16q-10 14 -10 16q-51 -49 -51 -95v-3q2 2 6 2q7 0 15 -8q10 10 46 72zM90 102v13h-8 v-13h8zM521 197h18q-9 -16 -22 -62q-12 -39 -33 -69l-2 1q-7 -4 -20 -14q-16 -12 -22 -12q-4 0 -7.5 -5t-5.5 -5q-29 -32 -28 -38q-2 0 -10 2t-11 2q-2 -1 -7 -3l3 -7l-12 10l1 1q-1 4 -7 4q-3 0 -9 -3l3 -7l-47 40q-60 63 -74 178q-9 -7 -10 -14l1 -4q-3 4 -7 4l-6 -1 l-8 -12q7 -8 19 -10q-19 -12 -34 -43l-24 -50q-11 -14 -31 -42q-21 -29 -22 -45q-20 -11 -50 -11q-40 43 -40 64q0 42 125 221l-3 6l69 90q43 55 85 70q6 -16 20 -27q-13 -30 -8 -60q-20 -69 -20 -119q0 -45 21 -101q25 -70 62 -70h29q16 0 124 141zM203 285h7l-6 15l-7 -3z M150 214l12 12l-5 5l-12 -12zM130 176h8v18h-8v-18zM208 246q0 6 -7 13q-1 -4 -10 -19l-3 1q-6 -3 -11 -4l4 -3v-2q-2 -1 -12.5 -16t-22.5 -18q2 -6 2 -7q0 -21 -30 -32l4 -10l-2 -4l-7 8q5 6 13 26q-1 0 -8 -2t-9 -1q0 -6 -8 -24t-8 -24l5 -13h-4q0 -27 -10 -36 q10 -11 18 -13q15 25 47 73q27 41 38 78q6 17 21 29z" />
<glyph unicode="&#xe6;" horiz-adv-x="750" d="M90 102v13h-8v-13h8zM521 197h18q-9 -16 -22 -62q-12 -39 -33 -69l-2 1q-7 -4 -20 -14q-16 -12 -22 -12q-4 0 -7.5 -5t-5.5 -5q-29 -32 -28 -38q-2 0 -10 2t-11 2q-2 -1 -7 -3l3 -7l-12 10l1 1q-1 4 -7 4q-3 0 -9 -3l3 -7l-47 40q-60 63 -74 178q-9 -7 -10 -14l1 -4 q-3 4 -7 4l-6 -1l-8 -12q7 -8 19 -10q-19 -12 -34 -43l-24 -50q-11 -14 -31 -42q-21 -29 -22 -45q-20 -11 -50 -11q-40 43 -40 64q0 42 125 221l-3 6l69 90q43 55 85 70q6 -16 20 -27q-13 -30 -8 -60q-20 -69 -20 -119q0 -45 21 -101q25 -70 62 -70h29q16 0 124 141z M203 285h7l-6 15l-7 -3zM150 214l12 12l-5 5l-12 -12zM130 176h8v18h-8v-18zM208 246q0 6 -7 13q-1 -4 -10 -19l-3 1q-6 -3 -11 -4l4 -3v-2q-2 -1 -12.5 -16t-22.5 -18q2 -6 2 -7q0 -21 -30 -32l4 -10l-2 -4l-7 8q5 6 13 26q-1 0 -8 -2t-9 -1q0 -6 -8 -24t-8 -24l5 -13h-4 q0 -27 -10 -36q10 -11 18 -13q15 25 47 73q27 41 38 78q6 17 21 29zM423 1l-10 -9l2 5q-1 4 -6 4q-3 0 -9 -4.5t-9 -4.5q-4 0 -4 1l3 5q0 2 -4 3q-3 -1 -3 -2l2 -5l-4 -2v4h-25q-78 50 -104 86q-41 38 -42 90q-1 49 -3 58q-6 9 -6 27q0 41 12 99q7 39 44 89q42 56 76 56 q22 0 43 -28q20 -26 22 -50l-5 -6q-1 -27 -11 -75q-6 -14 -62 -101q-2 -3 -28 -31q-21 -22 -21 -32q0 -18 27 -64q28 -46 44 -46q3 0 5 -2q-1 0 -1 -1q0 -2 4 -3h5v-1q0 -2 6 -2q4 0 20 -4.5t21 -4.5q41 0 59 8q7 3 47 35l17 -20q-5 -11 -45 -39q-40 -29 -49 -29q-6 0 -8 -4 zM362 381v48q-11 0 -20 9q-88 -79 -88 -144q0 -25 11 -50q35 32 49 49q27 31 33 60q8 -1 11.5 6t3.5 22z" />
<glyph unicode="&#xe7;" horiz-adv-x="328" d="M298 483q0 -5 -15 -43q-16 -40 -18 -49q-2 -23 -9 -68q-5 -9 -19 -44q-9 -39 -20 -49q-18 16 -18 30q0 11 7 54q8 49 9 50v15l-8 2q-4 -2 -5 -3q-9 -19 -35 -62q-55 -88 -68 -112q-36 -70 -36 -123q0 -8 19 -27t27 -19h28q4 0 4 1l-3 5l3 2q22 0 72 38q44 33 64 57 q5 -4 9 -18q-11 -13 -20 -28q-13 -22 -12 -28q-1 0 -5 -4.5t-8 -4.5q-11 0 -20.5 -10.5t-9.5 -21.5q0 -13 12 -42t12 -42q0 -17 -5 -23.5t-23 -15.5l-8 -20q-4 -12 -16 -16l-11 8q-6 -1 -25 9l24 34q16 23 16 36q0 17 -23 48q-24 -12 -47 -12q-2 0 -5 4t-7 4q-35 0 -66 46 q-27 42 -27 80q0 3 2 8t4.5 10t2.5 6q44 146 161 290q8 11 31 28q23 16 33 29q3 14 9 33h18q25 -25 25 -42z" />
<glyph unicode="&#xe8;" horiz-adv-x="319" d="M258 -29l-10 -9l2 5q-1 4 -6 4q-4 0 -9 -4.5t-9 -4.5t-4 1l3 5q0 2 -4 3q-3 -1 -3 -2l2 -5l-4 -2v4h-25q-78 50 -104 86q-41 38 -42 90q-1 49 -3 58q-6 9 -6 27q0 41 12 99q7 39 44 89q42 56 76 56q22 0 43 -28q20 -26 22 -50l-5 -6q-1 -27 -11 -75q-6 -14 -62 -101 q-3 -3 -28 -31q-21 -22 -21 -32q0 -18 27 -64q28 -46 44 -46q3 0 5 -2q-1 0 -1 -1q0 -2 5 -3h4v-1q0 -2 6 -2q4 0 20 -4.5t21 -4.5q41 0 59 8q7 3 47 35l17 -20q-4 -11 -45 -39q-40 -29 -49 -29q-6 0 -8 -4zM197 351v48q-11 0 -20 9q-88 -79 -88 -144q0 -25 11 -50 q35 32 49 49q27 31 33 60q8 -1 11.5 6t3.5 22zM208 586l-12 -12h-16q-2 0 -13.5 5t-17.5 5l-11 11l-32 20q-65 49 -80 109q34 17 43 17q7 0 23 -30q14 -24 21 -37q8 -11 53 -46q40 -33 42 -42z" />
<glyph unicode="&#xe9;" horiz-adv-x="319" d="M258 -29l-10 -9l2 5q-1 4 -6 4q-4 0 -9 -4.5t-9 -4.5t-4 1l3 5q0 2 -4 3q-3 -1 -3 -2l2 -5l-4 -2v4h-25q-78 50 -104 86q-41 38 -42 90q-1 49 -3 58q-6 9 -6 27q0 41 12 99q7 39 44 89q42 56 76 56q22 0 43 -28q20 -26 22 -50l-5 -6q-1 -27 -11 -75q-6 -14 -62 -101 q-3 -3 -28 -31q-21 -22 -21 -32q0 -18 27 -64q28 -46 44 -46q3 0 5 -2q-1 0 -1 -1q0 -2 5 -3h4v-1q0 -2 6 -2q4 0 20 -4.5t21 -4.5q41 0 59 8q7 3 47 35l17 -20q-4 -11 -45 -39q-40 -29 -49 -29q-6 0 -8 -4zM197 351v48q-11 0 -20 9q-88 -79 -88 -144q0 -25 11 -50 q35 32 49 49q27 31 33 60q8 -1 11.5 6t3.5 22zM334 755q-16 -12 -23 -18q-16 -12 -16 -21q0 -5 4 -9l-21 -15l-9 6q-1 -1 -1 -3t5 -7q-1 1 -3 1l-4 -1l-4 -1q-48 -31 -119 -88l-41 37v13q80 46 183 100l8 -8q1 3 4 10q3 6 8 6q4 0 4 -2q-1 -1 -1 -3t1 -3q1 4 7 11q2 0 8 -2 t10 -3z" />
<glyph unicode="&#xea;" horiz-adv-x="319" d="M308 600q-3 0 -9 7q-5 -8 -11 -8q-4 0 -18 14l-9 9l-6 6l-2 3h-4q-2 0 -14 6q-8 10 -37 27q-29 19 -40 19q-16 0 -58 -49l-52 -65h-18q-16 0 -16 30q0 13 60 78q61 64 76 64q16 0 72 -41q58 -41 68 -57zM258 -29l-10 -9l2 5q-1 4 -6 4q-4 0 -9 -4.5t-9 -4.5t-4 1l3 5 q0 2 -4 3q-3 -1 -3 -2l2 -5l-4 -2v4h-25q-78 50 -104 86q-41 38 -42 90q-1 49 -3 58q-6 9 -6 27q0 41 12 99q7 39 44 89q42 56 76 56q22 0 43 -28q20 -26 22 -50l-5 -6q-1 -27 -11 -75q-6 -14 -62 -101q-3 -3 -28 -31q-21 -22 -21 -32q0 -18 27 -64q28 -46 44 -46q3 0 5 -2 q-1 0 -1 -1q0 -2 5 -3h4v-1q0 -2 6 -2q4 0 20 -4.5t21 -4.5q41 0 59 8q7 3 47 35l17 -20q-4 -11 -45 -39q-40 -29 -49 -29q-6 0 -8 -4zM197 351v48q-11 0 -20 9q-88 -79 -88 -144q0 -25 11 -50q35 32 49 49q27 31 33 60q8 -1 11.5 6t3.5 22z" />
<glyph unicode="&#xeb;" horiz-adv-x="319" d="M133 628q0 -2 -9 -27q-6 -14 -24 -19q-8 5 -26 26q-22 28 -25 31v21q3 0 18.5 3.5t20.5 3.5q8 0 25 -15zM307 625q0 -17 -11.5 -28.5t-28.5 -11.5q-11 0 -22 20t-11 32q0 11 15 22t27 11q31 0 31 -45zM258 -29l-10 -9l2 5q-1 4 -6 4q-4 0 -9 -4.5t-9 -4.5t-4 1l3 5 q0 2 -4 3q-3 -1 -3 -2l2 -5l-4 -2v4h-25q-78 50 -104 86q-41 38 -42 90q-1 49 -3 58q-6 9 -6 27q0 41 12 99q7 39 44 89q42 56 76 56q22 0 43 -28q20 -26 22 -50l-5 -6q-1 -27 -11 -75q-6 -14 -62 -101q-3 -3 -28 -31q-21 -22 -21 -32q0 -18 27 -64q28 -46 44 -46q3 0 5 -2 q-1 0 -1 -1q0 -2 5 -3h4v-1q0 -2 6 -2q4 0 20 -4.5t21 -4.5q41 0 59 8q7 3 47 35l17 -20q-4 -11 -45 -39q-40 -29 -49 -29q-6 0 -8 -4zM197 351v48q-11 0 -20 9q-88 -79 -88 -144q0 -25 11 -50q35 32 49 49q27 31 33 60q8 -1 11.5 6t3.5 22z" />
<glyph unicode="&#xec;" horiz-adv-x="247" d="M183 167q0 -7 -23 -48q-19 -34 -31 -51l-65 -79q-11 6 -40 31v336q0 36 48 36q10 0 10 -29q0 -17 -6 -52q-5 -37 -5 -50q0 -147 22 -160q17 9 41 39t44 41zM103 534l-12 -12h-16q-2 0 -13.5 5t-17.5 5l-11 11l-32 20q-65 49 -80 109q34 17 43 17q6 0 23 -30 q14 -24 21 -37q8 -11 53 -46q41 -33 42 -42z" />
<glyph unicode="&#xed;" horiz-adv-x="247" d="M356 673q0 -3 -10 -20q-9 3 -25 2q-5 0 -9.5 -0.5t-7.5 -0.5t-6 -1h-2h-1l-3 1l3 5q-2 2 -4 2q-4 0 -4 -1l3 -5q0 -2 -3 -2t-6 4t-7 4t-4 -1v-1q0 -2 -25 -2q-2 0 -11.5 -4t-13.5 -4q-8 0 -54 -18q-46 -17 -50 -21q-20 -16 -30 -39l5 -12v-40l-11 8l-12 -4q-17 0 -69 31 q8 8 9 17q12 43 94 83q74 37 126 37q2 0 10.5 -2.5t10.5 -2.5q3 0 14 4.5t15 4.5q24 0 78 -22zM203 167q0 -7 -23 -48q-19 -34 -31 -51l-65 -79q-11 6 -40 31v336q0 36 48 36q10 0 10 -29q0 -17 -6 -52q-5 -37 -5 -50q0 -147 22 -160q17 9 41 39t44 41z" />
<glyph unicode="&#xee;" horiz-adv-x="247" d="M183 167q0 -7 -23 -48q-19 -34 -31 -51l-65 -79q-11 6 -40 31v336q0 36 48 36q10 0 10 -29q0 -17 -6 -52q-5 -37 -5 -50q0 -147 22 -160q17 9 41 39t44 41zM198 531q-3 0 -9 7q-5 -8 -11 -8q-4 0 -18 14l-9 9q-4 4 -6 7l-2 2h-4q-2 0 -14 6q-8 10 -37 27q-29 19 -40 19 q-16 0 -58 -49l-52 -65h-18q-16 0 -16 30q0 14 61 78q60 64 75 64q16 0 72 -41q58 -41 68 -57z" />
<glyph unicode="&#xef;" horiz-adv-x="247" d="M183 167q0 -7 -23 -48q-19 -34 -31 -51l-65 -79q-11 6 -40 31v336q0 36 48 36q10 0 10 -29q0 -17 -6 -52q-5 -37 -5 -50q0 -147 22 -160q17 9 41 39t44 41zM3 589q0 -1 -9 -27q-6 -14 -24 -19q-8 5 -26 26q-22 29 -25 31v21q3 0 18.5 3.5t20.5 3.5q8 0 25 -15zM177 586 q0 -17 -11.5 -28.5t-28.5 -11.5q-11 0 -22 20t-11 32q0 11 15 22t27 11q31 0 31 -45z" />
<glyph unicode="&#xf0;" horiz-adv-x="388" />
<glyph unicode="&#xf1;" horiz-adv-x="435" d="M477 209q0 -32 -76 -120q-71 -84 -107 -104h-27q-45 17 -59 50l-18 73q8 58 7 108v11q-16 -25 -64 -128q-44 -92 -71 -105q2 2 2 5q0 7 -11 7q-7 1 -7 -1l4 -4q-6 6 -22 6q0 2 -2.5 12.5t-2.5 14.5q0 35 13 106t13 106q0 18 -8 82q0 4 -4.5 18.5t-4.5 18.5q0 7 10 26 l41 -9q19 -130 19 -188q0 -7 -6 -13q7 -7 14 -7q0 4 4 15t4 13q0 6 21 37q6 9 11.5 18.5t8.5 14t4 5.5q53 114 91 114q5 0 14 -24q10 -21 10 -30q0 -20 -10 -71q-11 -57 -16 -68v-117q0 -6 7 -20q9 -18 9 -21l12 1q16 0 98 82q66 67 93 99l3 -4q3 -4 3 -9zM325 632 q2 -10 2 -17q0 -24 -11 -55l-26 -26q-17 -17 -31 -17q-20 0 -25 -5l-8 9l1 1q0 3 -6 3t-3 -8q-2 5 -22 13q-11 12 -27 22q-5 3 -21 24q-14 18 -26 18q-13 0 -36 -16q-20 -14 -30 -27q0 -1 -6 -16q-5 -14 -9 -14q-3 0 -9 6.5t-8 6.5q-3 0 -5.5 -2.5t-4.5 -2.5q-9 0 -9 22 q0 27 36 60q37 34 64 34q22 0 60 -34q40 -34 52 -34q3 0 11 -4.5t11 -4.5q23 0 47 24z" />
<glyph unicode="&#xf2;" horiz-adv-x="292" d="M188 250l6 7q4 35 -4 70q-8 10 -18 28q-21 -70 -48 -91l-9 -75q-2 -23 -1 -62q2 -47 6 -60l12 4l-8 8q1 1 3 1q26 26 41 79q11 46 20 91zM247 236q-3 -21 -11 -27q0 -3 -1 -9t-1 -9q-14 -119 -99 -203q-7 4 -45 12q-24 6 -35 35q-4 11 -5 74q-1 66 0 82q8 68 47 156 q25 56 49 82.5t47 23.5q27 -26 44 -102q15 -69 10 -115zM195 585l-12 -12h-16q-2 0 -13.5 5t-17.5 5l-11 11l-32 20q-65 49 -80 109q34 17 43 17q6 0 23 -30q14 -24 21 -37q8 -11 53 -46q41 -33 42 -42z" />
<glyph unicode="&#xf3;" horiz-adv-x="292" d="M188 250l6 7q4 35 -4 70q-8 10 -18 28q-21 -70 -48 -91l-9 -75q-2 -23 -1 -62q2 -47 6 -60l12 4l-8 8q1 1 3 1q26 26 41 79q11 46 20 91zM247 236q-3 -21 -11 -27q0 -3 -1 -9t-1 -9q-14 -119 -99 -203q-7 4 -45 12q-24 6 -35 35q-4 11 -5 74q-1 66 0 82q8 68 47 156 q25 56 49 82.5t47 23.5q27 -26 44 -102q15 -69 10 -115zM293 723q-16 -12 -23 -18q-16 -12 -16 -21q0 -5 4 -9l-21 -15l-9 6q-1 -1 -1 -3t5 -7q-1 1 -3 1q-1 0 -4 -1t-4 -1q-48 -31 -119 -88l-41 37v13q80 46 183 100l8 -8q1 3 4 10q3 6 8 6q4 0 4 -2q-1 -1 -1 -3t1 -3 q1 4 7 11q1 0 7 -2t11 -3z" />
<glyph unicode="&#xf4;" horiz-adv-x="292" d="M188 250l6 7q4 35 -4 70q-8 10 -18 28q-21 -70 -48 -91l-9 -75q-2 -23 -1 -62q2 -47 6 -60l12 4l-8 8q1 1 3 1q26 26 41 79q11 46 20 91zM247 236q-3 -21 -11 -27q0 -3 -1 -9t-1 -9q-14 -119 -99 -203q-7 4 -45 12q-24 6 -35 35q-4 11 -5 74q-1 66 0 82q8 68 47 156 q25 56 49 82.5t47 23.5q27 -26 44 -102q15 -69 10 -115zM281 570q-3 0 -9 7q-5 -8 -11 -8q-4 0 -18 14l-9 9l-6 6l-2 3h-4q-2 0 -14 6q-8 10 -37 27q-29 19 -40 19q-16 0 -58 -49l-52 -65h-18q-16 0 -16 30q0 13 60 78q61 64 76 64q16 0 72 -41q58 -41 68 -57z" />
<glyph unicode="&#xf5;" horiz-adv-x="292" d="M188 250l6 7q4 35 -4 70q-8 10 -18 28q-21 -70 -48 -91l-9 -75q-2 -23 -1 -62q2 -47 6 -60l12 4l-8 8q1 1 3 1q26 26 41 79q11 46 20 91zM247 236q-3 -21 -11 -27q0 -3 -1 -9t-1 -9q-14 -119 -99 -203q-7 4 -45 12q-24 6 -35 35q-4 11 -5 74q-1 66 0 82q8 68 47 156 q25 56 49 82.5t47 23.5q27 -26 44 -102q15 -69 10 -115zM305 712q2 -10 2 -17q0 -24 -11 -55l-26 -26q-17 -17 -31 -17q-20 0 -25 -5l-8 9l1 1q0 3 -6 3t-3 -8q-2 5 -22 13q-11 12 -27 22q-5 3 -21 24q-14 18 -26 18q-13 0 -36 -16q-20 -14 -30 -27q0 -1 -6 -16 q-5 -14 -9 -14q-3 0 -9 6.5t-8 6.5q-3 0 -5.5 -2.5t-4.5 -2.5q-9 0 -9 22q0 27 36 60q37 34 64 34q22 0 60 -34q40 -34 52 -34q3 0 11 -4.5t11 -4.5q23 0 47 24z" />
<glyph unicode="&#xf6;" horiz-adv-x="292" d="M188 250l6 7q4 35 -4 70q-8 10 -18 28q-21 -70 -48 -91l-9 -75q-2 -23 -1 -62q2 -47 6 -60l12 4l-8 8q1 1 3 1q26 26 41 79q11 46 20 91zM247 236q-3 -21 -11 -27q0 -3 -1 -9t-1 -9q-14 -119 -99 -203q-7 4 -45 12q-24 6 -35 35q-4 11 -5 74q-1 66 0 82q8 68 47 156 q25 56 49 82.5t47 23.5q27 -26 44 -102q15 -69 10 -115zM95 600q0 -2 -9 -27q-6 -14 -24 -19q-8 5 -26 26q-22 28 -25 31v21q3 0 18.5 3.5t20.5 3.5q8 0 25 -15zM269 597q0 -17 -11.5 -28.5t-28.5 -11.5q-11 0 -22 20t-11 32q0 11 15 22t27 11q31 0 31 -45z" />
<glyph unicode="&#xf7;" horiz-adv-x="464" d="M386 272q-4 -12 -9 -38q-6 2 -11 2q-21 0 -38 -20l-9 11q-51 -22 -103 -22l-9 -12q-25 0 -37 -4q-22 -7 -32 -9l4 -7q-2 -8 -89 -8v3l-9 64l2 2q3 2 6.5 3.5t7.5 1.5q6 0 36 8q30 9 36 9l14 -6l21 9q23 9 35 9q2 0 11 -3t11 -3q7 0 26 17l9 -12h8l9 12q14 -6 25 -6 q6 0 26.5 6t26.5 6q4 0 16.5 -6.5t15.5 -6.5zM286 410q0 -2 -9 -27q-6 -14 -24 -19q-8 5 -26 26q-23 28 -25 31v21q3 0 18.5 3.5t20.5 3.5q9 0 25 -15zM220 21q0 -17 -11.5 -28.5t-28.5 -11.5q-11 0 -22 20t-11 32q0 11 15 22t27 11q31 0 31 -45z" />
<glyph unicode="&#xf8;" horiz-adv-x="292" d="M188 250l6 7q4 35 -4 70q-8 10 -18 28q-21 -70 -48 -91l-9 -75q-2 -23 -1 -62q2 -47 6 -60l12 4l-8 8q1 1 3 1q26 26 41 79q11 46 20 91zM247 236q-3 -21 -11 -27q0 -3 -1 -9t-1 -9q-14 -119 -99 -203q-7 4 -45 12q-24 6 -35 35q-4 11 -5 74q-1 66 0 82q8 68 47 156 q25 56 49 82.5t47 23.5q27 -26 44 -102q15 -69 10 -115zM309 457q0 -6 -20 -32q-24 -29 -26 -34q-2 -4 -10 -23q-15 -8 -15 -23q0 -5 -11 -21q-13 -16 -16 -23q-11 -30 -20 -43l-23 -26l-21 -38q-14 -24 -17 -38q-6 -6 -16 -30l-43 -72q-25 -42 -23 -74v-6q-5 -6 -6 -19 q-2 0 -22 -5q-3 2 -8 3.5t-8.5 3t-3.5 2.5q-2 1 -6 11t-4 13q0 15 12 35l22 34v4q-1 13 17 39q17 26 19 40q11 13 21 31l16 31q24 34 79 145q16 30 47 76q40 61 49 61t23 -8t14 -14z" />
<glyph unicode="&#xf9;" horiz-adv-x="423" d="M416 134q0 -24 -32 -71q-39 -56 -41 -64h-4l-27 -6q-11 -3 -18 -4l-11 -10l-10 10q-3 0 -11 2.5t-10 2.5q-22 0 -33 32q-6 21 -13 50q-15 -16 -62 -77q-4 0 -21 -2.5t-23 -2.5q-4 0 -13 2.5t-11 2.5q-11 0 -20 -10q-31 75 -31 82q0 17 7 45q8 32 8 45q0 34 20 100 q21 65 21 99q0 9 -2 23q6 31 30 31q16 0 33.5 -12.5t17.5 -26.5q0 -20 -26 -80q-1 -29 -22 -100q-19 -63 -19 -100q0 -12 8 -39q15 4 70 88q47 71 63 104q1 2 4 9t4 9l4 8q3 6 5.5 8t6 5.5t7.5 4.5t9 1q11 0 23.5 -16.5t12.5 -29.5q0 -5 -2 -5l-4 2l-1 -1q-1 -1 -2 -1 q2 -4 2 -9q0 -2 -1 -11.5t-1 -13.5q-11 -8 -14 -19q-1 -4 -9 -44q-7 -36 -7 -42t2.5 -26.5t2.5 -26.5q7 -10 11 -10l6 2q31 16 57 48q4 5 43 58h17q6 -4 6 -14zM249 527l-12 -12h-16q-2 0 -13.5 5t-17.5 5l-11 11l-32 20q-65 49 -80 109q34 17 43 17q6 0 23 -30 q14 -24 21 -37q8 -11 53 -46q41 -33 42 -42z" />
<glyph unicode="&#xfa;" horiz-adv-x="423" d="M416 134q0 -24 -32 -71q-39 -56 -41 -64h-4l-27 -6q-11 -3 -18 -4l-11 -10l-10 10q-3 0 -11 2.5t-10 2.5q-22 0 -33 32q-6 21 -13 50q-15 -16 -62 -77q-4 0 -21 -2.5t-23 -2.5q-4 0 -13 2.5t-11 2.5q-11 0 -20 -10q-31 75 -31 82q0 17 7 45q8 32 8 45q0 34 20 100 q21 65 21 99q0 9 -2 23q6 31 30 31q16 0 33.5 -12.5t17.5 -26.5q0 -20 -26 -80q-1 -29 -22 -100q-19 -63 -19 -100q0 -12 8 -39q15 4 70 88q47 71 63 104q1 2 4 9t4 9l4 8q3 6 5.5 8t6 5.5t7.5 4.5t9 1q11 0 23.5 -16.5t12.5 -29.5q0 -5 -2 -5l-4 2l-1 -1q-1 -1 -2 -1 q2 -4 2 -9q0 -2 -1 -11.5t-1 -13.5q-11 -8 -14 -19q-1 -4 -9 -44q-7 -36 -7 -42t2.5 -26.5t2.5 -26.5q7 -10 11 -10l6 2q31 16 57 48q4 5 43 58h17q6 -4 6 -14zM380 660q-16 -12 -23 -18q-16 -12 -16 -21q0 -5 4 -9l-21 -15l-9 6q-1 -1 -1 -3t5 -7q-1 1 -3 1l-4 -1l-4 -1 q-48 -31 -119 -88l-41 37v13q80 46 183 100l8 -8q1 3 4 10q3 6 8 6q4 0 4 -2q-1 -1 -1 -3t1 -3q1 4 7 11q2 0 8 -2t10 -3z" />
<glyph unicode="&#xfb;" horiz-adv-x="423" d="M416 134q0 10 -6 14h-17q-39 -53 -43 -58q-26 -32 -57 -48l-6 -2q-4 0 -11 10q0 6 -2.5 26.5t-2.5 26.5t7 42q8 40 9 44q3 11 14 19q0 4 1 13.5t1 11.5q0 5 -2 9q1 0 1 1l2 1l4 -2q2 0 2 5q0 13 -12.5 29.5t-23.5 16.5q-5 0 -9 -1t-7.5 -4.5t-6 -5.5t-5.5 -8l-4 -8 q-1 -2 -4 -9t-4 -9q-16 -33 -63 -104q-55 -84 -70 -88q-8 27 -8 39q0 37 19 100q21 71 22 100q26 60 26 80q0 14 -17.5 26.5t-33.5 12.5q-24 0 -30 -31q2 -14 2 -23q0 -34 -21 -99q-20 -66 -20 -100q0 -13 -8 -45q-7 -28 -7 -45q0 -7 31 -82q9 10 20 10q2 0 11 -2.5t13 -2.5 q6 0 23 2.5t21 2.5q47 61 62 77q7 -29 13 -50q11 -32 33 -32q2 0 10 -2.5t11 -2.5l10 -10l11 10q7 1 18 4l27 6h4q2 8 41 64q32 47 32 71zM57 509l18 43q10 15 67 57q58 41 73 41t75 -64q61 -64 61 -78q0 -30 -16 -30h-18l-52 65q-42 49 -58 49q-11 0 -40 -19 q-29 -17 -37 -27q-12 -6 -14 -6h-4l-2 -2q-2 -3 -6 -7l-9 -9q-14 -14 -18 -14q-6 0 -11 8q-6 -7 -9 -7z" />
<glyph unicode="&#xfc;" horiz-adv-x="423" d="M416 134q0 -24 -32 -71q-39 -56 -41 -64h-4l-27 -6q-11 -3 -18 -4l-11 -10l-10 10q-3 0 -11 2.5t-10 2.5q-22 0 -33 32q-6 21 -13 50q-15 -16 -62 -77q-4 0 -21 -2.5t-23 -2.5q-4 0 -13 2.5t-11 2.5q-11 0 -20 -10q-31 75 -31 82q0 17 7 45q8 32 8 45q0 34 20 100 q21 65 21 99q0 9 -2 23q6 31 30 31q16 0 33.5 -12.5t17.5 -26.5q0 -20 -26 -80q-1 -29 -22 -100q-19 -63 -19 -100q0 -12 8 -39q15 4 70 88q47 71 63 104q1 2 4 9t4 9l4 8q3 6 5.5 8t6 5.5t7.5 4.5t9 1q11 0 23.5 -16.5t12.5 -29.5q0 -5 -2 -5l-4 2l-1 -1q-1 -1 -2 -1 q2 -4 2 -9q0 -2 -1 -11.5t-1 -13.5q-11 -8 -14 -19q-1 -4 -9 -44q-7 -36 -7 -42t2.5 -26.5t2.5 -26.5q7 -10 11 -10l6 2q31 16 57 48q4 5 43 58h17q6 -4 6 -14zM176 554q0 -2 -9 -27q-6 -14 -24 -19q-8 5 -26 26q-23 28 -25 31v21q3 0 18.5 3.5t20.5 3.5q9 0 25 -15z M350 551q0 -17 -11.5 -28.5t-28.5 -11.5q-11 0 -22 20t-11 32q0 11 15 22t27 11q31 0 31 -45z" />
<glyph unicode="&#xfd;" horiz-adv-x="343" d="M363 583q0 -12 -10 -32q-11 -24 -12 -31l2 -6q-51 -128 -64 -208q-2 -33 -8 -69v-7q2 -37 -8 -55q3 -29 3 -40l-1 -16q-9 -276 -66 -461q-5 -5 -6 -10l3 -5q-11 -15 -24 -44q-14 -32 -23 -44q-3 -5 -3 -6t3 -6l-8 4q-13 -24 -42 -48q-35 -31 -46 -42q-4 0 -22.5 -8.5 t-22.5 -8.5h-67q-4 0 -4 1q1 2 1 4q0 1 -3 3q-4 0 -4 -1l3 -5l-4 -2q-26 12 -36 12q-6 0 -13 1.5t-11 2.5l-5 1v1q0 2 -4 2q-33 0 -91 55q-55 53 -68 87q-15 25 -33 65q-11 39 -11 76q0 85 79 197q16 -5 23 -1q-2 -6 -5.5 -22.5t-5.5 -24.5q-3 -15 -16 -35q-15 -25 -19 -35 q-15 -39 -15 -83l4 -11q1 -2 1 -3q1 -3 1.5 -12.5t0.5 -13.5q8 -52 28 -84q82 -126 176 -126q8 0 36.5 -2t37.5 -2q15 0 57 27t54 42q85 103 109 367q0 8 1.5 21t3 31.5t2.5 33.5q0 3 5 31q3 20 3 31q-1 28 -2 84q-14 -20 -46 -77q0 -10 -27 -49q-26 -38 -33 -38l-5 2 q-6 2 -8 2h-24q-4 0 -11 9t-8 9q-16 33 -16 54v199q-2 39 3 69q6 18 48 37q23 -11 23 -27q0 -4 -8 -26q-10 -24 -10 -28q-6 -17 -7 -43q-2 -32 -5 -42q1 -10 1 -32q0 -8 -2 -42l-3 2q-3 -2 -3 -6q0 -6 2 -6q3 0 3 -2q1 -5 1 -30q0 -2 3 -13.5t2 -13.5l8 -15q14 5 27 28 q105 175 119 306q8 72 26 129q28 87 70 103q26 -26 26 -29zM314 805q-16 -12 -23 -18q-16 -12 -16 -21q0 -5 4 -9l-21 -15l-9 6q-1 -1 -1 -3t5 -7q-1 1 -3 1l-4 -1l-4 -1q-48 -31 -119 -88l-41 37v13q80 46 183 100l8 -8q1 3 4 10q3 6 8 6q4 0 4 -2q-1 -1 -1 -3t1 -3 q1 4 7 11q2 0 8 -2t10 -3z" />
<glyph unicode="&#xff;" horiz-adv-x="343" d="M347 803q-8 -9 -21 -11q9 1 -2 1h-25q-43 -21 -52 -21q-3 0 -8 -4.5t-9 -4.5l-9 4q-12 0 -77 -47h-16l-3 -4l4 -2l-1 -1q-1 -1 -6 -3.5t-10 -5.5l2 -18q4 0 28 -24q-4 -2 -10 -12t-9 -11h-21q-8 0 -31 10q-24 11 -30 11t-9 -4q0 2 -9.5 15t-9.5 17q0 26 71 67 q70 40 94 34l12 13q7 0 34.5 4t35.5 4q3 0 14.5 4.5t15.5 4.5l6 -2q5 -2 7 -2q3 0 14.5 4t15.5 4q14 0 14 -20zM363 583q0 -12 -10 -32q-11 -24 -12 -31l2 -6q-51 -128 -64 -208q-2 -33 -8 -69v-7q2 -37 -8 -55q3 -29 3 -40l-1 -16q-9 -276 -66 -461q-5 -5 -6 -10l3 -5 q-11 -15 -24 -44q-14 -32 -23 -44q-3 -5 -3 -6t3 -6l-8 4q-13 -24 -42 -48q-35 -31 -46 -42q-4 0 -22.5 -8.5t-22.5 -8.5h-67q-4 0 -4 1q1 2 1 4q0 1 -3 3q-4 0 -4 -1l3 -5l-4 -2q-26 12 -36 12q-6 0 -13 1.5t-11 2.5l-5 1v1q0 2 -4 2q-33 0 -91 55q-55 53 -68 87 q-15 25 -33 65q-11 39 -11 76q0 85 79 197q16 -5 23 -1q-2 -6 -5.5 -22.5t-5.5 -24.5q-3 -15 -16 -35q-15 -25 -19 -35q-15 -39 -15 -83l4 -11q1 -2 1 -3q1 -3 1.5 -12.5t0.5 -13.5q8 -52 28 -84q82 -126 176 -126q8 0 36.5 -2t37.5 -2q15 0 57 27t54 42q85 103 109 367 q0 8 1.5 21t3 31.5t2.5 33.5q0 3 5 31q3 20 3 31q-1 28 -2 84q-14 -20 -46 -77q0 -10 -27 -49q-26 -38 -33 -38l-5 2q-6 2 -8 2h-24q-4 0 -11 9t-8 9q-16 33 -16 54v199q-2 39 3 69q6 18 48 37q23 -11 23 -27q0 -4 -8 -26q-10 -24 -10 -28q-6 -17 -7 -43q-2 -32 -5 -42 q1 -10 1 -32q0 -8 -2 -42l-3 2q-3 -2 -3 -6q0 -6 2 -6q3 0 3 -2q1 -5 1 -30q0 -2 3 -13.5t2 -13.5l8 -15q14 5 27 28q105 175 119 306q8 72 26 129q28 87 70 103q26 -26 26 -29z" />
<glyph unicode="&#x152;" horiz-adv-x="1209" d="M1355 796q-1 0 -8.5 -5.5t-12.5 -5.5q-2 0 -12.5 3.5t-14.5 3.5q-6 0 -27 3.5t-28 3.5q-4 0 -9 -4.5t-9 -4.5q-2 0 -11.5 2t-13.5 2q-9 0 -11 -2l3 -3q-5 5 -22 5q-11 0 -48 -9t-47 -9q-2 0 -8 2l-6 2q-22 0 -32 -18l-9 9q-9 -9 -17 -9l-10 -9q-2 0 -7 2.5t-9 2.5 q-7 0 -7 -2l4 -5l-8 7q-9 -19 -19 -19q-5 0 -5 2q1 0 1 1q0 2 -5 2q-8 0 -9 -1l3 -4q-2 2 -5 2q-8 0 -26 -7.5t-26 -7.5l-9 -9h-6q-9 0 -16 -1.5t-10 -3t-13 -8.5t-15 -10q-25 -11 -27 -17q-1 -4 -26 -94q-22 -81 -22 -87v-22q1 -4 20 -4q14 0 18 -4l9 9q4 0 18.5 4.5 t18.5 4.5q28 0 96 27l9 -9q5 5 17 5l9 9l28 5q5 0 5 -7q0 -1 5 -3q4 0 22.5 2t24.5 2q0 -17 -16 -17q-4 0 -25.5 -7t-27.5 -7l-14 -13q-6 -1 -38 -15q-22 -8 -45 -8q-5 0 -5 1q1 1 1 2q1 2 1 3q0 2 -1 3q-21 -31 -95 -46l-10 -9q-3 1 -8 1q-35 0 -42 -63q-3 -24 -2 -88 q-5 -13 -5 -19q0 -59 12 -97q7 -23 35 -64q32 -44 51 -44h20q45 0 180 57q59 27 120 91q57 64 62 64l6 -2q6 -3 7 -3q4 0 11 4t9 4q-67 -103 -70 -103q-5 0 -5 2l1 2l1 2q0 3 -1 4q-20 -46 -121 -110q-126 -57 -147 -57q-4 0 -4 -2l3 -5q-2 -2 -4 -2q-5 -2 -5 1q1 0 1 1 q0 2 -5 2q-3 0 -9 -4.5t-9 -4.5t-14 -2t-14 -2q-6 0 -44 20q-46 26 -49 27q0 6 4 10q-26 32 -42 72l3 9q-24 71 -24 96q0 3 6 20t6 23q0 4 -2.5 21t-2.5 21q0 7 5.5 27.5t5.5 26.5q0 4 -2 15t-2 14v1q-2 2 -7 2q-6 0 -12 -3l-1 -1l-9 -9v-1q0 -1 -9 -3.5t-18 -8t-9 -14.5h-6 q-17 0 -28 -1q-2 0 -4 -1l-9 -3q-9 0 -21 25q14 28 65 57l80 44l-1 3q0 16 12 49q13 31 11 52q6 13 15 51q9 35 19 49q-5 12 -20 12q-2 -1 -7 -8.5t-10.5 -13.5t-9.5 -6t-12.5 -4.5t-11.5 -4.5q-4 0 -12 7t-12 7q-2 10 -2 14q0 28 52 55q58 28 69 49q2 0 10 -2t11 -2t59 14 q215 54 217 54q6 0 26.5 -2.5t25.5 -2.5t7 2l-6 6q4 0 20.5 5.5t22.5 5.5q4 0 8 -3q1 -1 42 -4q19 -1 31 0q1 0 5.5 -3.5t9.5 -3.5q4 0 4 1v1q11 7 18 7q6 0 18 -12q5 -4 9 -6.5t6.5 -3.5t4.5 -1h3q1 0 1 -1q-1 0 -1 -1l28 -12zM502 650l5 -12h-6l-5 10zM527 487 q-2 -1 -13 -8q1 -3 7 -13l-4 2l-7 -6l7 -6q1 1 3 1q3 0 3 -4q0 -6 -9 -12l9 -9q-5 -3 -5 -17q0 -51 -32 -173l-34 -75q-3 -7 -24 -33q-15 -20 -14 -36q-10 -7 -26 -31q-15 -21 -35 -30q-4 -1 -2 -5q-1 -7 -12 -7q-4 0 -7 -4t-5 -4l-12 -13q-8 1 -16.5 -6t-9.5 -15 q-6 1 -21 9l-3 -5l5 -7q-4 0 -14 3.5t-14 3.5t-12 -8l-12 5h-19q-10 8 -20 8q-7 0 -38 22q-30 23 -37 30q-34 32 -57 99q-22 60 -22 114q0 38 25 125q27 90 44 122l-3 5q74 151 80 161q48 83 116 138q-1 1 -1.5 5.5t-5.5 4.5q-22 0 -44 -7q17 29 32 41v-1q0 -4 3 -7l3 8h14 q37 0 70 -24q46 -34 59 -40q7 -11 21 -19q-6 1 -6 -3l6 -4l-8 -9l7 -6q3 3 10 7l-4 -9q5 -5 8 -6q0 -7 7 -20q7 -11 11 -19q8 -24 32 -80q3 0 4 3l-3 5q4 -3 4 -6q0 -4 -9 -9q4 -2 17 -2q-4 -12 -2 -20q0 5 -5 17q-5 -5 -14 -11q3 -2 6 -11.5t5 -11.5q3 3 3 5t-3 5 q4 -2 9 -6l-3 -2q5 -5 11 -4q-6 0 -11 -5v-37q5 -5 10 -8h-1q-4 0 -5 -4q6 -4 6 -9q0 -4 -6 -13zM485 526q-11 16 -18 54q-8 39 -18 55q1 7 6 21q-17 11 -38 48q-24 40 -36 51q0 -17 -8 -17t-23.5 7.5t-22.5 13.5q-29 -19 -61 -48q-1 -1 -8.5 -13.5t-9.5 -15.5l-10 -12 q-6 -9 -12.5 -14t-14.5 -8q2 -8 2 -11q0 -16 -27 -22q-5 -25 -22 -35l7 -6q0 -1 -2 -1l-53 -113q1 -1 1 -3q0 -13 -18 -47q1 -3 1 -8q0 -18 -12 -68t-12 -68q0 -122 94 -204q18 -14 38 -27q2 -1 21 -1l8 -9q59 13 69 13q35 0 86 74q45 65 56 106q24 92 37 198q-3 3 -3 18 q0 16 3 92z" />
<glyph unicode="&#x153;" horiz-adv-x="608" d="M188 250l6 7q4 35 -4 70q-8 10 -18 28q-21 -70 -48 -91l-9 -75q-2 -23 -1 -62q2 -47 6 -60l12 4l-8 8q1 1 3 1q26 26 41 79q11 46 20 91zM247 236q-3 -21 -11 -27q0 -3 -1 -9t-1 -9q-14 -119 -99 -203q-7 4 -45 12q-24 6 -35 35q-4 11 -5 74q-1 66 0 82q8 68 47 156 q25 56 49 82.5t47 23.5q27 -26 44 -102q15 -69 10 -115zM404 -18l-10 -9l2 5q-1 4 -6 4q-4 0 -9 -4.5t-9 -4.5t-4 1l3 5q0 2 -4 3q-3 -1 -3 -2l2 -5l-4 -2v4h-25q-78 50 -104 86q-41 38 -42 90q-1 49 -3 58q-6 9 -6 27q0 40 12 99q7 39 44 89q42 56 76 56q22 0 43 -28 q20 -26 22 -50l-5 -6q-1 -27 -11 -75q-6 -14 -62 -101q-3 -2 -28 -31q-21 -23 -21 -32q0 -17 27 -64q28 -46 44 -46q3 0 5 -2q-1 0 -1 -1q0 -2 5 -2l4 -1v-1q0 -2 6 -2q4 0 20 -4.5t21 -4.5q41 0 59 8q7 3 47 35l17 -20q-4 -10 -45 -39q-40 -29 -49 -29q-6 0 -8 -4zM343 362 v48q-11 0 -20 9q-88 -79 -88 -144q0 -25 11 -50q35 32 49 49q27 32 33 60q15 -2 15 28z" />
<glyph unicode="&#x178;" horiz-adv-x="476" d="M165 909l-1 -3q-1 -4 -4 -12l-6 -16q-8 -18 -29 -22q-8 5 -32 30q-25 33 -30 36v25q5 0 23 4t24 4q12 0 31 -18zM508 1180q0 -20 -14 -33t-34 -13q-13 0 -27 23q-13 22 -13 37q0 12 18 25t32 13q38 0 38 -52zM555 923v-36q-6 -4 -11 -9v-7q1 -27 -14 -61q-1 -2 -5 -9 l-11 -20l-15 -27v-2q1 -14 -10 -35q-4 -35 -24 -61q1 -1 1 -5q0 -16 -7 -40q-7 -30 -9 -42l-5 10q-7 -10 -7 -16q0 -2 2 -8q2 -1 3 0.5t1 4.5q-15 -42 -29 -86q2 -5 7 -5q-16 -7 -16 -46q0 -12 3 -18q-6 -17 -8 -60q0 -12 -0.5 -22.5t-0.5 -18t-0.5 -12.5t-0.5 -8v-3l-1 -5 q-1 -4 -3 -14l-4 -21q-3 -18 -2 -44q3 -42 3 -45q0 -46 -14 -63q15 -13 15 -35q0 -11 -5 -41t-5 -41q0 -5 1 -9v-9q0 -16 -5 -24q5 -12 5 -24q0 -8 -16 -39l9 -4q2 -14 2 -28q0 -64 -20 -78q6 -29 6 -50q0 -22 -17 -76l-24 -78q-8 0 -12 4q-1 0 -3 -2q7 -9 10 -9q1 0 3 2 q-2 -8 -33 -72q-30 -65 -34 -69q-6 -7 -19 -20q-14 -16 -13 -22l1 -4q-2 2 -5 2q-2 0 -10 -4q-4 -5 -43 -46l-27 -21q-18 -15 -19 -25l-11 10q-7 -15 -35 -15q-4 0 -7 -3v-9l22 -3q4 0 7.5 7.5t7.5 7.5l10 -5q12 0 12 7v1q0 -5 5 -10h1q0 2 -8 2q-4 0 -6 -2h1l-1 -1l-6 -3 q-4 -2 -7.5 -3t-8.5 -3t-7 -3l-25 1h4q-7 -1 -10.5 -3.5t-2.5 -7.5q0 2 -3 2q-1 0 -9.5 -3.5t-12.5 -3.5q-5 0 -25 20q-1 0 -12.5 -12.5t-16.5 -12.5q-4 0 -12.5 5t-12.5 5q-5 -1 -15 -5l-11 10q-11 1 -19 6l-4 5q-4 4 -5 4q-5 0 -5 -2q0 4 1 -1q1 -2 1 -5q-2 -2 -5 -2t-8 5 t-8 5q-4 0 -12 2.5t-10 2.5l-14 15q-3 0 -6.5 5t-7.5 5q-7 0 -7 -3l3 -7q-5 3 -13 10l-36 22q-20 11 -37 29q-19 27 -85 104q2 4 2 8q0 9 -9.5 25t-17.5 21q2 2 5.5 8t4.5 7q-20 10 -34 63q-13 47 -9 75q-12 16 -12 40q0 13 7 38q8 26 6 41q3 3 8 15q4 23 5 28q14 45 53 81 q37 36 84 50q-5 -11 -29 -34q-30 -32 -32 -35q-13 -15 -27 -49l-22 -52v-6q0 -6 -1.5 -23.5t-1.5 -21.5q0 -6 5.5 -26t5.5 -26l-16 -15q5 -5 19 -3v-8v-3q0 -2 0.5 -4t0.5 -6v-8q0 -4 0.5 -9.5t0.5 -11.5q18 -22 37 -68q24 -62 29 -70q11 -13 24 -40q32 -32 103 -91 q38 -26 55 -26q5 0 5 -3v-2q-1 -1 -1 -2q0 -2 6 -3l6 3q7 2 9 2q3 0 9.5 -5t10.5 -5q18 0 18 -2l-1 -4l2 -3l4 9q4 -4 26 -4q14 11 30 14h38q2 0 10 2.5t10 2.5q35 0 104 69q60 60 83 103q44 82 62 158q13 54 22 171q3 80 5 103q0 5 3 25q1 11 1 25q0 10 -2 80q-1 35 -1 79 q0 17 4 46q2 36 1 47h1q6 0 6 10v97l-12 14q-43 -62 -41 -97l-31 -77q-21 -49 -44 -66l9 -3q-14 -28 -50 -67q-40 -46 -63 -46q-8 0 -35 15q-27 16 -28 22q-1 2 -10 63q-8 62 -8 64q0 24 4 119q-12 9 -12 36q0 5 2 5q1 -1 3 -1q3 0 3 150q0 34 4 63q0 1 2 11.5t2 13.5l-2 3 q-1 2 -2.5 6t-1.5 8q0 7 3.5 29.5t3.5 26.5q1 0 8 11q4 7 10 7q10 0 22 -16q16 -20 20 -24q7 7 10 13q0 -3 2 -15t2 -15q0 -19 -8 -73t-14 -70q6 -2 15 -9v-71q0 -2 -18 -54q0 -2 2.5 -8t2.5 -8q0 -14 -11 -27l9 -4q0 -53 11 -174q1 -2 3.5 -6t3.5 -7l3 2q4 -2 12 -2 q31 0 84 104q1 1 59 135q13 31 48 100q0 1 0.5 3.5t1 5.5t0.5 6q23 25 37 152q0 4 10 168q5 67 32 144q10 29 37 69q31 46 56 46q4 0 4 -7q0 -2 6 -3q1 0 5 1.5t6 2.5q-1 1 -2 -2t-2 -9q23 -44 29 -49zM226 -653l5 -5l-12 -12l-5 5zM467 789q-3 3 -7 3q-5 0 -11 -3 q-12 -25 -12 -49q0 -13 8 -13q6 23 22 62zM435 708h9v19h-9v-19zM-335 -474q-6 0 -10 7q-4 -4 -6 -14q7 7 16 7z" />
<glyph unicode="&#x2c6;" horiz-adv-x="426" d="M353 566q-3 0 -9 7q-5 -8 -11 -8q-4 0 -18 14l-9 9l-6 6l-2 3h-4q-2 0 -14 6q-8 10 -37 27q-29 19 -40 19q-16 0 -58 -49l-52 -65h-18q-16 0 -16 30q0 13 60 78q61 64 76 64q16 0 72 -41q58 -41 68 -57z" />
<glyph unicode="&#x2dc;" horiz-adv-x="462" d="M386 712q2 -10 2 -17q0 -24 -11 -55l-26 -26q-17 -17 -31 -17q-20 0 -25 -5l-8 9l1 1q0 3 -6 3t-3 -8q-2 5 -22 13q-11 12 -27 22q-4 3 -21 24q-13 18 -26 18t-36 -16q-19 -14 -30 -27q0 -1 -6 -16q-5 -14 -9 -14q-2 0 -8 6.5t-9 6.5t-5.5 -2.5t-4.5 -2.5q-9 0 -9 22 q0 27 36 60q37 34 64 34q22 0 60 -34q40 -34 52 -34q2 0 11 -4.5t11 -4.5q23 0 47 24z" />
<glyph unicode="&#x2013;" horiz-adv-x="724" d="M492 322q-4 -12 -9 -38q-6 2 -11 2q-21 0 -38 -20l-9 11q-51 -22 -103 -22l-9 -12q-25 0 -37 -4q-22 -7 -32 -9l4 -7q-2 -8 -89 -8v3l-9 64l2 2q3 2 6.5 3.5t7.5 1.5q6 0 36 8q30 9 36 9l14 -6l21 9q23 9 35 9q2 0 11 -3t11 -3q7 0 26 17l9 -12h8l9 12q14 -6 25 -6 q6 0 26.5 6t26.5 6q4 0 16.5 -6.5t15.5 -6.5z" />
<glyph unicode="&#x2014;" horiz-adv-x="699" d="M485 333l31 -42q-2 -10 -12.5 -22.5t-16.5 -12.5q-8 0 -37 2.5t-37 2.5q-2 0 -8 -4.5t-8 -4.5q2 0 -6 -1t-28.5 -3t-47.5 -4q-2 0 -19.5 -5t-24.5 -5q-11 0 -36 -7t-35 -7q-2 0 -6.5 2.5t-6.5 2.5q-3 0 -8 -7t-7 -7h-54q-3 0 -25 16q1 1 1 3q-4 10 -4 15q0 3 11 34v-1 q0 -4 7 -4q4 0 11.5 6.5t7.5 10.5q0 1 -2 5q3 -3 23 -4q17 -2 20 -13q3 4 16 4q20 0 63 10q44 9 59 8q1 -3 6 -13q8 11 52 20q35 7 61 7q43 0 60 18z" />
<glyph unicode="&#x2018;" horiz-adv-x="232" d="M151 784q0 -4 -3 -11t-3 -9q-5 -36 -4 -84q1 -49 -1 -84q-9 -11 -28 -41q-7 5 -16 5l-9 133h-1q-5 0 -5 11q0 4 2.5 7t2.5 5l1 49q2 59 29 59l12 -3q23 -21 23 -37z" />
<glyph unicode="&#x2019;" horiz-adv-x="297" d="M177 763q0 -5 -3 -12t-3 -8q-5 -36 -4 -84q1 -49 -1 -84q-9 -11 -28 -41q-7 5 -16 5l-9 133h-1q-5 0 -5 11q0 4 2.5 7t2.5 5l1 49q2 59 29 59l12 -3q23 -21 23 -37z" />
<glyph unicode="&#x201a;" horiz-adv-x="333" d="M208 75q0 -16 -50 -124q-48 -104 -64 -118q-5 -5 -21 -8q-7 -16 -24 -37q-19 -23 -23 -38q-17 3 -17 23q0 7 8 11l8 5q-1 26 26 72q32 53 35 68q2 5 5.5 19.5t5.5 21.5q4 12 36 100q5 15 13 35q8 14 27 14q11 0 23 -15.5t12 -28.5z" />
<glyph unicode="&#x201c;" horiz-adv-x="387" d="M291 773q0 -4 -9.5 -19t-9.5 -18q-9 -27 -27 -142q0 -6 -1.5 -20t-2.5 -21q-5 -32 -14 -32q-5 0 -14 7l-9 8q-5 10 -8 18q1 1 1 6q0 29 4 38l-5 -3q-3 1 -3 6q0 4 1 7t3 5.5t2 3.5l6 53q5 36 8 54q13 87 38 87q13 0 26.5 -13t13.5 -25zM171 721q0 -28 -11 -55q3 -4 3 -10 q0 -33 -10 -44q0 -3 5.5 -13t4.5 -14q-1 -8 -1 -17q0 -10 1 -14q-1 -3 -1 -10q0 -6 4 -23t4 -23v-39q-6 3 -17 3q-12 0 -21 -4q-8 28 -18 85q-10 56 -10 85q0 17 4 45q5 37 5 48q0 10 -2 20q1 6 7.5 16t9.5 9q0 4 9 4q15 0 24.5 -15t9.5 -34z" />
<glyph unicode="&#x201d;" horiz-adv-x="381" d="M297 747q0 -4 -9.5 -19t-9.5 -18q-9 -27 -27 -142q0 -6 -1.5 -20t-2.5 -21q-5 -32 -14 -32q-5 0 -14 7l-9 8q-5 10 -8 18q1 1 1 6q0 29 4 38l-5 -3q-3 1 -3 6q0 4 1 7t3 5.5t2 3.5l6 53q5 36 8 54q13 87 38 87q13 0 26.5 -13t13.5 -25zM177 695q0 -28 -11 -55q3 -4 3 -10 q0 -33 -10 -44q0 -3 5.5 -13t4.5 -14q-1 -8 -1 -17q0 -10 1 -14q-1 -3 -1 -10q0 -6 4 -23t4 -23v-39q-6 3 -17 3q-12 0 -21 -4q-8 28 -18 85q-10 56 -10 85q0 17 4 45q5 37 5 48q0 10 -2 20q1 6 7.5 16t9.5 9q0 4 9 4q15 0 24.5 -15t9.5 -34z" />
<glyph unicode="&#x201e;" horiz-adv-x="364" d="M274 141q0 -4 -9.5 -19t-9.5 -18q-9 -27 -27 -142q0 -6 -1.5 -20t-2.5 -21q-5 -32 -14 -32q-5 0 -14 7l-9 8q-5 10 -8 18q1 1 1 6q0 29 4 38l-5 -3q-3 1 -3 6q0 4 1 7t3 5.5t2 3.5l6 53q5 36 8 54q14 87 38 87q13 0 26.5 -13t13.5 -25zM154 89q0 -28 -11 -55q3 -4 3 -10 q0 -33 -10 -44q0 -3 5.5 -13t4.5 -14q-1 -8 -1 -17q0 -10 1 -14q-1 -3 -1 -10q0 -6 4 -23t4 -23v-39q-6 3 -17 3q-12 0 -21 -4q-7 26 -18 86q-10 56 -10 84q0 17 4 45q5 37 5 48q0 10 -2 20q1 6 7.5 16t9.5 9q0 4 9 4q15 0 24.5 -15t9.5 -34z" />
<glyph unicode="&#x2026;" horiz-adv-x="809" d="M140 21q0 -17 -11.5 -28.5t-28.5 -11.5q-11 0 -22 20t-11 32q0 11 15 22t27 11q31 0 31 -45zM315 25q0 -17 -11.5 -28.5t-28.5 -11.5q-11 0 -22 20t-11 32q0 11 15 22t27 11q31 0 31 -45zM515 19q0 -17 -11.5 -28.5t-28.5 -11.5q-11 0 -22 20t-11 32q0 11 15 22t27 11 q31 0 31 -45z" />
<glyph unicode="&#x2039;" horiz-adv-x="497" d="M233 526q0 -5 -8 -13q9 -6 9 -15q0 -8 -16 -24l-11 -13q-5 -6 -7 -9l-3 -3v-5q0 -4 -7 -19q-12 -10 -34 -52q-21 -41 -21 -56q0 -21 57 -79l78 -73v-25q0 -8 -12.5 -14.5t-23.5 -6.5q-17 0 -92 84t-75 104q0 21 48 101q45 75 67 93z" />
<glyph unicode="&#x203a;" horiz-adv-x="470" d="M99 109q1 4 10 11q-7 7 -7 12q0 10 17 25q18 16 27 23q0 7 10 23q14 9 42 48q28 40 28 54q0 22 -48 85l-65 82q6 30 7 30q6 11 30 11q18 0 81 -92q63 -91 63 -114q0 -21 -60 -96q-58 -71 -81 -84q-19 -6 -54 -18z" />
<glyph unicode="&#x20ac;" horiz-adv-x="719" d="M442 407l-45 -57l-10 6q-4 0 -8 -5.5t-9 -5.5q-3 0 -25.5 -1t-29.5 -1q0 -4 -8 -6l-24 -59q-8 -13 -10 -19q1 1 4 1t4 1q35 5 40 5q3 0 14 -2.5t15 -2.5t14.5 5.5t14.5 5.5q5 0 23 -3.5t24 -3.5q-1 -1 -2 -4.5t-2 -6t-3 -2.5q-4 -6 -8 -23q-5 -15 -9 -15l-7 2q-7 3 -8 3 q-7 0 -7 -3q0 -2 3 -7q-7 5 -12 5q-4 0 -6.5 -5.5t-6.5 -5.5t-14.5 -1t-12.5 -1q-6 0 -12 2l-11 -10q-5 5 -32 5q-4 0 -4 -11q0 -5 -6 -5h-17q-7 -32 -7 -41q0 -5 4 -24t4 -24q0 -16 16 -41t32 -25q1 0 13.5 -4.5t21.5 -4.5q22 11 23 11h-1q0 3 5 3q20 0 81 56l79 75 q28 25 84 96q81 105 81 106q0 -1 2 -3.5t3 -5.5t1 -7q0 -2 -11 -19q-13 -20 -13 -21q-5 -22 -24 -62l-56 -68q-9 -14 -28 -37q-18 -16 -55 -61q-2 0 -13 -14q-6 -7 -11.5 -10.5t-8 -3.5t-2.5 -1l4 -6q-12 0 -22 -10q-7 -5 -11.5 -7.5t-5.5 -2.5h-2l3 -6l-4 -2q-7 0 -32 -14 q-23 -14 -29 -21q-10 0 -27 -4.5t-18 -4.5q-4 0 -10.5 2.5t-8.5 2.5l-9 9q-28 1 -57 35q-28 32 -33 37q2 2 2 6t-1 8v8q-19 16 -19 40q0 -2 6 15q3 11 3 31v7h-2l-33 -7q-15 -4 -21 -6l-7 -1q-4 0 -13.5 -5t-13.5 -5q-15 0 -31 2l2 5q-36 15 -36 40q0 23 53 34q38 8 74 8 l11 11h23q1 0 7 -3q2 -2 4 -2q3 5 7 15q19 43 22 54l3 12l-3 -3l3 6q-2 5 -7 5q-4 0 -10.5 -5.5t-10.5 -5.5q-7 0 -28 -2.5t-27 -2.5q-4 0 -13 -2.5t-11 -2.5q-3 0 -15.5 2.5t-16.5 2.5q-7 0 -10 -7l-3 -5q-1 -3 -1 -4q1 1 1 3q0 8 -13 8q-4 0 -16 -3t-15 -3q-11 0 -34 42 q0 16 4 20.5t19 6.5q85 10 153 17q59 3 81 5q22 50 63 128l-3 5q15 36 67 128l72 105q55 76 87 76q33 0 33 -58q0 -5 -15 -25q-16 -20 -17 -27q-6 -17 -9 -51t-6 -46q-5 -13 -17 -61q-8 -82 -13 -123q-9 -79 -30 -116q-2 21 -7 48q-6 32 -6 47q0 2 8 37l10 8q-9 26 -9 44 q0 31 10 62q2 10 -2 24q1 14 10 48v38q-20 2 -33 -29q-20 -42 -23 -44q-10 -11 -21 -36l-15 -41q-6 -12 -43 -76q-7 -11 -32 -66h1q3 0 13 5t14 5t22.5 2.5t24.5 2.5q4 0 17 -3t17 -3zM387 206q-1 0 -2 1l-2 2l2 -2q1 -1 2 -1z" />
<glyph unicode="&#x2122;" horiz-adv-x="778" d="M454 727q-4 0 -12 -8q1 7 -12.5 10t-40.5 3l-6 -4l-13 -1q-1 0 -2 1q0 2 1 3q-1 1 -3 1t-2 -1l2 -3q-1 -1 -2 -1q-3 0 -9.5 1t-8.5 1q-1 0 -6 -1.5t-7 -0.5l-5 -5q-5 5 -10 5q-21 -8 -28 -8l-4 1l-4 2q-2 0 -5 -1.5t-5 -1.5q-10 0 -41 -15l-3 1h1q0 1 -3 1q-9 0 -7 -18 q0 -4 1 -7v-3v-1q-6 -12 -6 -25q0 -7 1 -10q-4 -19 -4 -25q0 -9 1 -14q-8 -72 -10 -276h-5h-22q-6 11 -6 49l-1 3l13 297q2 20 -5 20q-4 0 -22 -9t-22 -9q-15 0 -24.5 -10t-10.5 -25q-1 1 -5 1q-2 0 -6 -0.5t-5 -0.5q-6 0 -19 8t-13 13q0 2 9 16l6 8l6 5l1 2q115 39 122 39 l7 -2q4 0 5 6h4q5 0 9 7q3 -1 14 -1q6 0 34 2q30 5 34 5q64 6 88 6q2 0 3.5 -1t2.5 -1q36 0 52 -9q0 -1 8 -19zM621 466v-10v-9q0 -14 -7 -20q1 -2 1 -4q0 -5 -6 -15q-2 -4 -4 -7.5t-3 -5.5l-1 -2q-9 -23 -17 -38q-13 -25 -28 -27q-8 0 -9 -12q0 1 -1 1l-4 -1q-3 -2 -5 -2 l-6 3h-11q-65 53 -65 176q0 19 1 28q0 1 -2 7t-3 11q-8 -8 -8 -18q-5 -2 -6 -5t-3 -11l-2 -15q-14 -42 -39 -90h-2q-2 -2 -2 -3l2 -4l-16 -4l3 -3l-6 4v1q0 -1 -3 0.5t-6.5 3.5t-4.5 2q-10 0 -27 53q-7 23 -19 67q-18 -51 -18 -150q0 -5 -1 -8q-1 -5 -1 -9q-1 -4 -1.5 -17 t-0.5 -19q-3 2 -8 -6q-2 -2 -4 -5t-4 -4q1 4 -3 4q-2 0 -4 -2q-3 13 -3 31q0 14 3 36l5 35q1 37 11 103q11 77 13 103q-1 1 -1 8q0 3 2 15t2 16q0 1 -0.5 7t-0.5 8q0 20 14 25h8q0 -1 11 -24q2 -12 7 -26q5 -73 8 -110q11 -79 33 -98q17 23 31 62q4 8 22 65q10 25 17 45 q0 2 1 7t2.5 15t3.5 19q10 74 17 98q17 69 43 82q-2 -6 -2 -35l-3 -8v-1q0 -16 -10 -53q-9 -39 -9 -54v-9q0 -5 -4 -10q-2 -19 -8 -104l-1 1q-4 0 -4 -5l4 -12q1 -11 0 -27q-1 -17 -1 -28q0 -9 1 -13q1 -1 1.5 -4t0.5 -5v-8q9 -45 28 -76l-2 -3l2 -3q2 -3 4.5 -5.5t4.5 -2.5 q6 0 6 -6q7 -4 16 -4q2 0 2 1q0 2 3 2q13 0 46 63q17 32 30 52z" />
<glyph unicode="&#xe000;" horiz-adv-x="495" d="M0 495h495v-495h-495v495z" />
<glyph unicode="&#xfb01;" horiz-adv-x="617" d="M703 673q0 -3 -10 -20q-9 3 -25 2q-5 0 -9.5 -0.5t-7.5 -0.5h-5l-3 -1h-1l-3 1l3 5q-2 2 -4 2q-4 0 -4 -1l3 -5q0 -2 -3 -2t-6 4t-7 4t-4 -1v-1q0 -2 -25 -2q-2 0 -11.5 -4t-13.5 -4q-8 0 -54 -18q-46 -17 -50 -21q-20 -16 -30 -39l5 -12v-40l-11 8l-12 -4q-17 0 -69 31 q8 8 9 17q12 43 94 83q74 37 126 37q2 0 10.5 -2.5t10.5 -2.5q3 0 14 4.5t15 4.5q24 0 78 -22zM550 167q0 -7 -23 -48q-19 -34 -31 -51l-65 -79q-11 6 -40 31v336q0 36 48 36q10 0 10 -29q0 -17 -6 -52q-5 -37 -5 -50q0 -147 22 -160q17 9 41 39t44 41zM239 362 q-1 -1 -13 -8q-10 -7 -7 -10q1 2 -2.5 3t-10.5 1q-14 0 -45 -23q-28 -23 -37 -36q-15 -21 -19 -106q2 -9 7 -18q-12 -2 -13 -12l1 -21q0 -48 -6 -142q-6 -96 -6 -144q0 -67 8 -67q4 0 7.5 1.5t5.5 2.5l2 1q18 -33 18 -111q0 -17 -1 -38q-4 -5 -4 -14q0 -8 4 -16 q17 -8 17 -34q0 -6 -2 -6q-1 1 -4 1t-5 -18q0 -21 1 -36q0 -8 0.5 -15t0.5 -9v-2q0 -5 -1.5 -21t-1.5 -20q-3 1 -9 1q-14 0 -15 -16q1 7 1 -1v-25q0 -10 -1 -14q1 9 -8.5 20.5t-17.5 11.5q-4 0 -6.5 -0.5t-3.5 -1.5l-2 -2h-1v50l-8 72q-10 83 -10 153q0 36 1 53l-6 4 q0 4 4 17t4 18q0 8 -2 32t-2 30q0 5 4.5 17.5t4.5 15.5l-1 55q0 21 6 32q0 1 -2 47q-2 40 -2 47q0 32 7 82q7 52 7 82q0 68 -30 68q-4 0 -5 4q0 3 -11 5q-10 1 -10 22q0 7 29 54q30 47 33 64q6 30 9 92q3 65 10 94q16 84 25 127q17 77 43 121q34 61 50 61h21q21 0 40 -61 q17 -54 17 -77q0 -14 -13 -23v-4q1 -60 -30 -102l10 -5q-17 -63 -29 -63q-8 -2 -8 2l1 1q0 2 -2 2q-4 -14 -23 -50q-4 -4 -4 -25q-18 -5 -36 -47q-24 -56 -28 -60v-20l9 -9q27 11 59 11q4 0 18.5 -3t18.5 -3q43 0 52 -23q-6 0 -25 -10q-18 -9 -27 -6zM248 796q-11 19 -15 20 l-2 -5q-20 -29 -50 -91q-36 -72 -36 -94q0 -8 1.5 -10.5t5.5 -0.5q-12 -18 -14 -32q4 -3 5 -14v-16q1 0 3 5.5t7 5.5q11 0 47 71q34 69 38 89q8 38 10 72z" />
<glyph unicode="&#xfb02;" horiz-adv-x="603" d="M469 -36q-6 0 -16 3q-3 1 -11 1t-11.5 3t-10.5 12q-14 19 -18 20l9 10q-8 3 -9 5q-9 26 -21 92q-11 69 -11 94q0 22 14 30l-9 3q1 18 2.5 63t2.5 70q0 7 2 65q5 28 12 76q15 127 19 153q15 87 42 148q1 -1 34 -1q1 -5 1 -19q0 -61 -20 -107v-7l-1 -3q0 -3 -1.5 -10.5 t-2.5 -15.5q3 -5 3 -10q0 -11 -10 -31q-9 -20 -9 -31q0 -7 4 -11l-14 -9l9 -4q-16 -89 -16 -100q0 -5 2 -23t2 -24q0 -18 -6 -68q-5 -49 -4 -68h-1q-4 0 -4 -9q0 -5 2.5 -6.5t2.5 -2.5v-30q0 -149 40 -208l8 -4q45 35 71 67l57 75q6 9 27 30q21 22 25 22q2 0 2 -1 q0 -20 -92 -157q-11 -17 -44 -48q-37 -34 -51 -34zM239 362q-1 -1 -13 -8q-10 -7 -7 -10q1 2 -2.5 3t-10.5 1q-14 0 -45 -23q-28 -23 -37 -36q-15 -21 -19 -106q2 -9 7 -18q-12 -2 -13 -12l1 -21q0 -48 -6 -142q-6 -96 -6 -144q0 -67 8 -67q4 0 7.5 1.5t5.5 2.5l2 1 q18 -33 18 -111q0 -17 -1 -38q-4 -5 -4 -14q0 -8 4 -16q17 -8 17 -34q0 -6 -2 -6q-1 1 -4 1t-5 -18q0 -21 1 -36q0 -8 0.5 -15t0.5 -9v-2q0 -5 -1.5 -21t-1.5 -20q-3 1 -9 1q-14 0 -15 -16q1 7 1 -1v-25q0 -10 -1 -14q1 9 -8.5 20.5t-17.5 11.5q-4 0 -6.5 -0.5t-3.5 -1.5 l-2 -2h-1v50l-8 72q-10 83 -10 153q0 36 1 53l-6 4q0 4 4 17t4 18q0 8 -2 32t-2 30q0 5 4.5 17.5t4.5 15.5l-1 55q0 21 6 32q0 1 -2 47q-2 40 -2 47q0 32 7 82q7 52 7 82q0 68 -30 68q-4 0 -5 4q0 3 -11 5q-10 1 -10 22q0 7 29 54q30 47 33 64q6 30 9 92q3 65 10 94 q16 84 25 127q17 77 43 121q34 61 50 61h21q21 0 40 -61q17 -54 17 -77q0 -14 -13 -23v-4q1 -60 -30 -102l10 -5q-17 -63 -29 -63q-8 -2 -8 2l1 1q0 2 -2 2q-4 -14 -23 -50q-4 -4 -4 -25q-18 -5 -36 -47q-24 -56 -28 -60v-20l9 -9q27 11 59 11q4 0 18.5 -3t18.5 -3 q43 0 52 -23q-6 0 -25 -10q-18 -9 -27 -6zM248 796q-11 19 -15 20l-2 -5q-20 -29 -50 -91q-36 -72 -36 -94q0 -8 1.5 -10.5t5.5 -0.5q-12 -18 -14 -32q4 -3 5 -14v-16q1 0 3 5.5t7 5.5q11 0 47 71q34 69 38 89q8 38 10 72z" />
<glyph unicode="&#xfb03;" horiz-adv-x="964" d="M1050 673q0 -3 -10 -20q-9 3 -25 2q-5 0 -9.5 -0.5t-7.5 -0.5h-6l-2 -1h-1l-3 1l3 5q-2 2 -4 2q-4 0 -4 -1l3 -5q0 -2 -3 -2t-6 4t-7 4t-4 -1v-1q0 -2 -25 -2q-2 0 -11.5 -4t-13.5 -4q-8 0 -54 -18q-46 -17 -50 -21q-20 -16 -30 -39l5 -12v-40l-11 8l-12 -4q-17 0 -69 31 q8 8 9 17q12 43 94 83q74 37 126 37q2 0 10.5 -2.5t10.5 -2.5q3 0 14 4.5t15 4.5q24 0 78 -22zM897 167q0 -7 -23 -48q-19 -34 -31 -51l-65 -79q-11 6 -40 31v336q0 36 48 36q10 0 10 -29q0 -17 -6 -52q-5 -37 -5 -50q0 -147 22 -160q17 9 41 39t44 41zM586 362 q-1 -1 -13 -8q-10 -7 -7 -10q1 2 -2.5 3t-10.5 1q-14 0 -45 -23q-28 -23 -37 -36q-15 -21 -19 -106q2 -9 7 -18q-12 -2 -13 -12l1 -21q0 -48 -6 -142q-6 -96 -6 -144q0 -67 8 -67q4 0 7.5 1.5t5.5 2.5l2 1q18 -33 18 -111q0 -17 -1 -38q-4 -5 -4 -14q0 -8 4 -16 q17 -8 17 -34q0 -6 -2 -6q-1 1 -4 1t-5 -18q0 -21 1 -36q0 -8 0.5 -15t0.5 -9v-2q0 -5 -1.5 -21t-1.5 -20q-3 1 -9 1q-14 0 -15 -16q1 7 1 -1v-25q0 -10 -1 -14q1 9 -8.5 20.5t-17.5 11.5q-4 0 -6.5 -0.5t-3.5 -1.5l-2 -2h-1v50l-8 72q-10 83 -10 153q0 36 1 53l-6 4 q0 4 4 17t4 18q0 8 -2 32t-2 30q0 5 4.5 17.5t4.5 15.5l-1 55q0 21 6 32q0 1 -2 47q-2 40 -2 47q0 32 7 82q7 52 7 82q0 68 -30 68q-4 0 -5 4q0 3 -11 5q-10 1 -10 22q0 7 29 54q30 47 33 64q6 30 9 92q3 65 10 94q16 84 25 127q17 77 43 121q34 61 50 61h21q21 0 40 -61 q17 -54 17 -77q0 -14 -13 -23v-4q1 -60 -30 -102l10 -5q-17 -63 -29 -63q-8 -2 -8 2l1 1q0 2 -2 2q-4 -14 -23 -50q-4 -4 -4 -25q-18 -5 -36 -47q-24 -56 -28 -60v-20l9 -9q27 11 59 11q4 0 18.5 -3t18.5 -3q43 0 52 -23q-6 0 -25 -10q-18 -9 -27 -6zM595 796q-11 19 -15 20 l-2 -5q-20 -29 -50 -91q-36 -72 -36 -94q0 -8 1.5 -10.5t5.5 -0.5q-12 -18 -14 -32q4 -3 5 -14v-16q1 0 3 5.5t7 5.5q11 0 47 71q34 69 38 89q8 38 10 72zM239 362q-1 -1 -13 -8q-10 -7 -7 -10q1 2 -2.5 3t-10.5 1q-14 0 -45 -23q-28 -23 -37 -36q-15 -21 -19 -106 q2 -9 7 -18q-12 -2 -13 -12l1 -21q0 -48 -6 -142q-6 -96 -6 -144q0 -67 8 -67q4 0 7.5 1.5t5.5 2.5l2 1q18 -33 18 -111q0 -17 -1 -38q-4 -5 -4 -14q0 -8 4 -16q17 -8 17 -34q0 -6 -2 -6q-1 1 -4 1t-5 -18q0 -21 1 -36q0 -8 0.5 -15t0.5 -9v-2q0 -5 -1.5 -21t-1.5 -20 q-3 1 -9 1q-14 0 -15 -16q1 7 1 -1v-25q0 -10 -1 -14q1 9 -8.5 20.5t-17.5 11.5q-4 0 -6.5 -0.5t-3.5 -1.5l-2 -2h-1v50l-8 72q-10 83 -10 153q0 36 1 53l-6 4q0 4 4 17t4 18q0 8 -2 32t-2 30q0 5 4.5 17.5t4.5 15.5l-1 55q0 21 6 32q0 1 -2 47q-2 40 -2 47q0 32 7 82 q7 52 7 82q0 68 -30 68q-4 0 -5 4q0 3 -11 5q-10 1 -10 22q0 7 29 54q30 47 33 64q6 30 9 92q3 65 10 94q16 84 25 127q17 77 43 121q34 61 50 61h21q21 0 40 -61q17 -54 17 -77q0 -14 -13 -23v-4q1 -60 -30 -102l10 -5q-17 -63 -29 -63q-8 -2 -8 2l1 1q0 2 -2 2 q-4 -14 -23 -50q-4 -4 -4 -25q-18 -5 -36 -47q-24 -56 -28 -60v-20l9 -9q27 11 59 11q4 0 18.5 -3t18.5 -3q43 0 52 -23q-6 0 -25 -10q-18 -9 -27 -6zM248 796q-11 19 -15 20l-2 -5q-20 -29 -50 -91q-36 -72 -36 -94q0 -8 1.5 -10.5t5.5 -0.5q-12 -18 -14 -32q4 -3 5 -14 v-16q1 0 3 5.5t7 5.5q11 0 47 71q34 69 38 89q8 38 10 72z" />
<glyph unicode="&#xfb04;" horiz-adv-x="950" d="M816 -36q-6 0 -16 3q-3 1 -11 1t-11.5 3t-10.5 12q-14 19 -18 20l9 10q-8 3 -9 5q-9 26 -21 92q-11 69 -11 94q0 22 14 30l-9 3q1 18 2.5 63t2.5 70q0 7 2 65q5 28 12 76q15 127 19 153q15 87 42 148q1 -1 34 -1q1 -5 1 -19q0 -61 -20 -107v-7l-1 -3q0 -3 -1.5 -10.5 t-2.5 -15.5q3 -5 3 -10q0 -11 -10 -31q-9 -20 -9 -31q0 -7 4 -11l-14 -9l9 -4q-16 -89 -16 -100q0 -5 2 -23t2 -24q0 -18 -6 -68q-5 -49 -4 -68h-1q-4 0 -4 -9q0 -5 2.5 -6.5t2.5 -2.5v-30q0 -149 40 -208l8 -4q45 35 71 67l57 75q6 9 27 30q21 22 25 22q2 0 2 -1 q0 -20 -92 -157q-11 -17 -44 -48q-37 -34 -51 -34zM586 362q-1 -1 -13 -8q-10 -7 -7 -10q1 2 -2.5 3t-10.5 1q-14 0 -45 -23q-28 -23 -37 -36q-15 -21 -19 -106q2 -9 7 -18q-12 -2 -13 -12l1 -21q0 -48 -6 -142q-6 -96 -6 -144q0 -67 8 -67q4 0 7.5 1.5t5.5 2.5l2 1 q18 -33 18 -111q0 -17 -1 -38q-4 -5 -4 -14q0 -8 4 -16q17 -8 17 -34q0 -6 -2 -6q-1 1 -4 1t-5 -18q0 -21 1 -36q0 -8 0.5 -15t0.5 -9v-2q0 -5 -1.5 -21t-1.5 -20q-3 1 -9 1q-14 0 -15 -16q1 7 1 -1v-25q0 -10 -1 -14q1 9 -8.5 20.5t-17.5 11.5q-4 0 -6.5 -0.5t-3.5 -1.5 l-2 -2h-1v50l-8 72q-10 83 -10 153q0 36 1 53l-6 4q0 4 4 17t4 18q0 8 -2 32t-2 30q0 5 4.5 17.5t4.5 15.5l-1 55q0 21 6 32q0 1 -2 47q-2 40 -2 47q0 32 7 82q7 52 7 82q0 68 -30 68q-4 0 -5 4q0 3 -11 5q-10 1 -10 22q0 7 29 54q30 47 33 64q6 30 9 92q3 65 10 94 q16 84 25 127q17 77 43 121q34 61 50 61h21q21 0 40 -61q17 -54 17 -77q0 -14 -13 -23v-4q1 -60 -30 -102l10 -5q-17 -63 -29 -63q-8 -2 -8 2l1 1q0 2 -2 2q-4 -14 -23 -50q-4 -4 -4 -25q-18 -5 -36 -47q-24 -56 -28 -60v-20l9 -9q27 11 59 11q4 0 18.5 -3t18.5 -3 q43 0 52 -23q-6 0 -25 -10q-18 -9 -27 -6zM595 796q-11 19 -15 20l-2 -5q-20 -29 -50 -91q-36 -72 -36 -94q0 -8 1.5 -10.5t5.5 -0.5q-12 -18 -14 -32q4 -3 5 -14v-16q1 0 3 5.5t7 5.5q11 0 47 71q34 69 38 89q8 38 10 72zM239 362q-1 -1 -13 -8q-10 -7 -7 -10q1 2 -2.5 3 t-10.5 1q-14 0 -45 -23q-28 -23 -37 -36q-15 -21 -19 -106q2 -9 7 -18q-12 -2 -13 -12l1 -21q0 -48 -6 -142q-6 -96 -6 -144q0 -67 8 -67q4 0 7.5 1.5t5.5 2.5l2 1q18 -33 18 -111q0 -17 -1 -38q-4 -5 -4 -14q0 -8 4 -16q17 -8 17 -34q0 -6 -2 -6q-1 1 -4 1t-5 -18 q0 -21 1 -36q0 -8 0.5 -15t0.5 -9v-2q0 -5 -1.5 -21t-1.5 -20q-3 1 -9 1q-14 0 -15 -16q1 7 1 -1v-25q0 -10 -1 -14q1 9 -8.5 20.5t-17.5 11.5q-4 0 -6.5 -0.5t-3.5 -1.5l-2 -2h-1v50l-8 72q-10 83 -10 153q0 36 1 53l-6 4q0 4 4 17t4 18q0 8 -2 32t-2 30q0 5 4.5 17.5 t4.5 15.5l-1 55q0 21 6 32q0 1 -2 47q-2 40 -2 47q0 32 7 82q7 52 7 82q0 68 -30 68q-4 0 -5 4q0 3 -11 5q-10 1 -10 22q0 7 29 54q30 47 33 64q6 30 9 92q3 65 10 94q16 84 25 127q17 77 43 121q34 61 50 61h21q21 0 40 -61q17 -54 17 -77q0 -14 -13 -23v-4q1 -60 -30 -102 l10 -5q-17 -63 -29 -63q-8 -2 -8 2l1 1q0 2 -2 2q-4 -14 -23 -50q-4 -4 -4 -25q-18 -5 -36 -47q-24 -56 -28 -60v-20l9 -9q27 11 59 11q4 0 18.5 -3t18.5 -3q43 0 52 -23q-6 0 -25 -10q-18 -9 -27 -6zM248 796q-11 19 -15 20l-2 -5q-20 -29 -50 -91q-36 -72 -36 -94 q0 -8 1.5 -10.5t5.5 -0.5q-12 -18 -14 -32q4 -3 5 -14v-16q1 0 3 5.5t7 5.5q11 0 47 71q34 69 38 89q8 38 10 72z" />
</font>
</defs>
</svg>
